<svg width="1536" height="557" viewBox="0 0 1536 557" fill="none" xmlns="http://www.w3.org/2000/svg">
<rect width="1536" height="557" fill="white"/>
<path d="M768.14 487.598L754.208 473.666L757.268 470.606L768.14 481.478L778.976 470.642L782.072 473.666L768.14 487.598ZM768.14 511.012L754.208 497.08L757.268 494.02L768.14 504.892L778.976 494.056L782.072 497.08L768.14 511.012Z" fill="#8689E2"/>
<rect x="284" y="65" width="280" height="73" rx="36.5" fill="#F6F7FB"/>
<path d="M357.334 87.016H361.302V115.72H357.334V87.016ZM337.59 107.656C339.734 107.656 342.198 107.656 344.79 107.592V105.096C341.686 104.52 339.67 102.536 339.67 99.88C339.67 96.68 342.582 94.504 346.742 94.504C350.966 94.504 353.91 96.68 353.91 99.88C353.91 102.536 351.894 104.488 348.79 105.064V107.432C351.158 107.304 353.558 107.112 355.83 106.824L356.086 109.672C349.846 110.792 343.158 110.856 338.038 110.856L337.59 107.656ZM338.134 93.32V90.184H344.79V87.112H348.758V90.184H355.414V93.32H338.134ZM343.446 99.88C343.446 101.384 344.822 102.248 346.742 102.248C348.758 102.248 350.102 101.384 350.102 99.88C350.102 98.376 348.758 97.48 346.742 97.48C344.822 97.48 343.446 98.376 343.446 99.88ZM374.647 88.936C379.159 88.936 382.519 91.848 382.519 95.944C382.519 100.104 379.159 103.016 374.647 103.016C370.135 103.016 366.743 100.104 366.743 95.944C366.743 91.848 370.135 88.936 374.647 88.936ZM365.527 106.664C370.583 106.664 377.655 106.6 383.703 105.704L383.991 108.584C377.751 109.832 370.999 109.896 366.007 109.896L365.527 106.664ZM370.647 95.944C370.647 98.248 372.343 99.624 374.647 99.624C376.919 99.624 378.615 98.248 378.615 95.944C378.615 93.672 376.919 92.328 374.647 92.328C372.343 92.328 370.647 93.672 370.647 95.944ZM385.303 115.752V86.952H389.271V115.752H385.303ZM393.336 99.912H419.32V102.792H393.336V99.912ZM396.28 107.016V104.36H416.216V111.048H400.248V112.776H417.016V115.464H396.312V108.552H412.312V107.016H396.28ZM396.536 90.184V87.528H416.152V94.216H400.504V95.816H416.664V98.504H396.568V91.72H412.216V90.184H396.536ZM436.552 89C440.392 89 443.304 92.168 443.847 97.384H448.776V86.952H452.744V115.752H448.776V100.584H443.88C443.464 106.088 440.488 109.48 436.552 109.48C432.264 109.48 429.16 105.512 429.16 99.208C429.16 92.936 432.264 89 436.552 89ZM432.936 99.208C432.936 103.528 434.408 105.864 436.552 105.864C438.664 105.864 440.104 103.528 440.104 99.208C440.104 94.92 438.664 92.616 436.552 92.616C434.408 92.616 432.936 94.92 432.936 99.208ZM460.296 103.752H468.808V101.448H472.808V103.752H481.288V106.728H460.296V103.752ZM457.096 100.488V88.2H464.552V91.272H461.032V97.352C462.28 97.288 463.496 97.192 464.84 96.904L465.16 99.976C462.792 100.456 460.936 100.488 458.504 100.488H457.096ZM462.408 111.688C462.408 109.096 465.512 107.656 470.76 107.656C476.008 107.656 479.112 109.096 479.112 111.688C479.112 114.28 476.008 115.752 470.76 115.752C465.512 115.752 462.408 114.28 462.408 111.688ZM465.928 100.488V88.2H473.896V91.272H469.8V97.384C471.848 97.352 473.128 97.224 474.6 96.872L474.888 99.944C472.872 100.424 471.176 100.488 467.464 100.488H465.928ZM466.632 111.688C466.632 112.648 468.104 113.032 470.76 113.032C473.448 113.032 474.888 112.648 474.888 111.688C474.888 110.76 473.448 110.344 470.76 110.344C468.104 110.344 466.632 110.76 466.632 111.688ZM473.096 95.56V92.584H476.936V87.016H480.904V102.28H476.936V95.56H473.096ZM505.545 86.984H509.321V115.688H505.545V86.984ZM484.329 106.952C490.089 103.464 492.649 99.272 493.193 93.608H485.865V90.408H497.097C497.097 93.128 496.809 95.688 496.105 98.056H499.497V87.624H503.209V114.376H499.497V101.224H494.889C493.257 104.52 490.601 107.368 486.569 109.736L484.329 106.952Z" fill="#8A929F"/>
<rect x="199" y="183" width="322" height="73" rx="36.5" fill="#F6F7FB"/>
<path d="M259.911 207C262.471 207 264.615 208.408 265.927 210.904H272.135V204.952H276.103V233.752H272.135V223.032H266.183C264.903 225.848 262.631 227.48 259.911 227.48C255.623 227.48 252.519 223.512 252.519 217.208C252.519 210.936 255.623 207 259.911 207ZM256.263 217.208C256.263 221.528 257.767 223.864 259.911 223.864C262.023 223.864 263.495 221.528 263.495 217.208C263.495 212.92 262.023 210.616 259.911 210.616C257.767 210.616 256.263 212.92 256.263 217.208ZM267.015 214.104C267.207 215.064 267.303 216.088 267.303 217.208C267.303 218.136 267.239 219 267.111 219.8H272.135V214.104H267.015ZM300.04 204.952H303.976V233.752H300.04V218.584H295.432V215.384H300.04V204.952ZM280.968 210.584V207.416H293.864V218.168H284.968V223.8C288.936 223.768 292.232 223.608 295.912 222.968L296.232 226.232C291.976 226.936 288.136 227.064 283.336 227.064H281.032V215.032H289.96V210.584H280.968ZM335.287 205.016H339.255V233.72H335.287V205.016ZM315.543 225.656C317.687 225.656 320.151 225.656 322.743 225.592V223.096C319.639 222.52 317.623 220.536 317.623 217.88C317.623 214.68 320.535 212.504 324.695 212.504C328.919 212.504 331.863 214.68 331.863 217.88C331.863 220.536 329.847 222.488 326.743 223.064V225.432C329.111 225.304 331.511 225.112 333.783 224.824L334.039 227.672C327.799 228.792 321.111 228.856 315.991 228.856L315.543 225.656ZM316.087 211.32V208.184H322.743V205.112H326.711V208.184H333.367V211.32H316.087ZM321.399 217.88C321.399 219.384 322.775 220.248 324.695 220.248C326.711 220.248 328.055 219.384 328.055 217.88C328.055 216.376 326.711 215.48 324.695 215.48C322.775 215.48 321.399 216.376 321.399 217.88ZM352.6 206.936C357.112 206.936 360.472 209.848 360.472 213.944C360.472 218.104 357.112 221.016 352.6 221.016C348.088 221.016 344.696 218.104 344.696 213.944C344.696 209.848 348.088 206.936 352.6 206.936ZM343.48 224.664C348.536 224.664 355.608 224.6 361.656 223.704L361.944 226.584C355.704 227.832 348.952 227.896 343.96 227.896L343.48 224.664ZM348.6 213.944C348.6 216.248 350.296 217.624 352.6 217.624C354.872 217.624 356.568 216.248 356.568 213.944C356.568 211.672 354.872 210.328 352.6 210.328C350.296 210.328 348.6 211.672 348.6 213.944ZM363.256 233.752V204.952H367.224V233.752H363.256ZM371.289 217.912H397.273V220.792H371.289V217.912ZM374.233 225.016V222.36H394.169V229.048H378.201V230.776H394.969V233.464H374.265V226.552H390.265V225.016H374.233ZM374.489 208.184V205.528H394.105V212.216H378.457V213.816H394.617V216.504H374.521V209.72H390.169V208.184H374.489ZM425.193 204.984H429.161V211.16H433.033V214.392H429.161V220.504H425.193V204.984ZM406.665 210.136V207.16H413.097V204.792H417.065V207.16H423.529V210.136H406.665ZM408.041 215.576C408.041 212.728 410.825 210.872 415.081 210.872C419.337 210.872 422.121 212.728 422.121 215.576C422.121 218.488 419.337 220.248 415.081 220.248C410.825 220.248 408.041 218.488 408.041 215.576ZM410.281 224.568V221.688H429.161V228.888H414.281V230.552H429.993V233.496H410.345V226.136H425.225V224.568H410.281ZM411.881 215.576C411.881 216.792 413.097 217.464 415.081 217.464C417.065 217.464 418.313 216.792 418.313 215.576C418.313 214.36 417.065 213.688 415.081 213.688C413.097 213.688 411.881 214.36 411.881 215.576ZM457.432 205.464H461.048V216.152H463.256V204.984H466.968V233.688H463.256V219.352H461.048V232.376H457.432V205.464ZM442.488 226.712V208.44H448.536V211.608H446.072V223.384C446.84 223.32 447.672 223.192 448.6 223L448.856 226.232C446.776 226.712 445.208 226.712 443.768 226.712H442.488ZM449.624 226.712V208.44H455.896V211.608H453.208V223.384C454.136 223.32 455.16 223.224 456.28 222.968L456.536 226.2C454.36 226.68 452.664 226.712 450.968 226.712H449.624Z" fill="#8A929F"/>
<rect x="309" y="301" width="315" height="73" rx="36.5" fill="#F6F7FB"/>
<path d="M380.626 322.952H384.626V333.672H388.818V336.968H384.626V351.752H380.626V322.952ZM363.282 344.808V325.64H376.69V328.872H367.282V341.544C371.41 341.48 374.866 341.256 378.61 340.616L378.994 343.912C374.674 344.68 370.738 344.808 365.714 344.808H363.282ZM390.195 338.536H416.179V341.704H390.195V338.536ZM393.395 326.728V323.688H413.011V331.56H397.363V333.704H413.523V336.712H393.427V328.744H409.075V326.728H393.395ZM393.459 351.176V343.336H397.427V347.976H413.651V351.176H393.459ZM427.107 324.648H440.931V327.784H431.075V330.088H440.067V333.192H431.075V335.592C436.099 335.56 439.267 335.432 442.915 334.856L443.299 337.96C439.235 338.632 435.619 338.728 429.571 338.728H427.107V324.648ZM430.307 351.368V341.256H449.347V351.368H430.307ZM434.211 348.232H445.475V344.392H434.211V348.232ZM445.347 340.072V323.016H449.347V340.072H445.347ZM462.788 324.936C467.3 324.936 470.66 327.848 470.66 331.944C470.66 336.104 467.3 339.016 462.788 339.016C458.276 339.016 454.884 336.104 454.884 331.944C454.884 327.848 458.276 324.936 462.788 324.936ZM453.668 342.664C458.724 342.664 465.796 342.6 471.844 341.704L472.132 344.584C465.892 345.832 459.14 345.896 454.148 345.896L453.668 342.664ZM458.788 331.944C458.788 334.248 460.484 335.624 462.788 335.624C465.06 335.624 466.756 334.248 466.756 331.944C466.756 329.672 465.06 328.328 462.788 328.328C460.484 328.328 458.788 329.672 458.788 331.944ZM473.444 351.752V322.952H477.412V351.752H473.444ZM508.787 323.016H512.755V351.72H508.787V323.016ZM489.043 343.656C491.187 343.656 493.651 343.656 496.243 343.592V341.096C493.139 340.52 491.123 338.536 491.123 335.88C491.123 332.68 494.035 330.504 498.195 330.504C502.419 330.504 505.363 332.68 505.363 335.88C505.363 338.536 503.347 340.488 500.243 341.064V343.432C502.611 343.304 505.011 343.112 507.283 342.824L507.539 345.672C501.299 346.792 494.611 346.856 489.491 346.856L489.043 343.656ZM489.587 329.32V326.184H496.243V323.112H500.211V326.184H506.867V329.32H489.587ZM494.899 335.88C494.899 337.384 496.275 338.248 498.195 338.248C500.211 338.248 501.555 337.384 501.555 335.88C501.555 334.376 500.211 333.48 498.195 333.48C496.275 333.48 494.899 334.376 494.899 335.88ZM526.1 324.936C530.612 324.936 533.972 327.848 533.972 331.944C533.972 336.104 530.612 339.016 526.1 339.016C521.588 339.016 518.196 336.104 518.196 331.944C518.196 327.848 521.588 324.936 526.1 324.936ZM516.98 342.664C522.036 342.664 529.108 342.6 535.156 341.704L535.444 344.584C529.204 345.832 522.452 345.896 517.46 345.896L516.98 342.664ZM522.1 331.944C522.1 334.248 523.796 335.624 526.1 335.624C528.372 335.624 530.068 334.248 530.068 331.944C530.068 329.672 528.372 328.328 526.1 328.328C523.796 328.328 522.1 329.672 522.1 331.944ZM536.756 351.752V322.952H540.724V351.752H536.756ZM563.221 322.952H567.221V334.024H571.253V337.288H567.221V351.688H563.221V322.952ZM544.565 343.656C551.285 340.2 554.837 335.56 555.573 329.16H546.101V325.928H559.605C559.605 334.536 556.277 341.896 546.773 346.696L544.565 343.656Z" fill="#8A929F"/>
<rect x="664" y="301" width="216" height="73" rx="36.5" fill="#F6F7FB"/>
<path d="M720.255 324.04H739.967V326.312C739.967 328.456 739.967 330.92 739.391 333.992H743.039V337.16H731.967V340.712C737.055 341.128 740.063 343.112 740.063 346.184C740.063 349.672 736.255 351.72 730.015 351.72C723.775 351.72 719.967 349.672 719.967 346.184C719.967 343.112 722.975 341.128 728.031 340.712V337.16H717.055V333.992H735.359C735.967 331.24 736.062 329.128 736.062 327.208H720.255V324.04ZM723.935 346.184C723.935 347.784 726.079 348.552 730.015 348.552C733.951 348.552 736.095 347.784 736.095 346.184C736.095 344.584 733.951 343.816 730.015 343.816C726.079 343.816 723.935 344.584 723.935 346.184ZM748.223 324.328H767.935V326.568C767.935 328.84 767.935 331.336 767.263 334.632H771.007V337.8H745.023V334.632H763.295C763.935 331.72 764.031 329.48 764.031 327.464H748.223V324.328ZM748.095 351.368V340.872H767.839V351.368H748.095ZM751.999 348.232H763.935V344.008H751.999V348.232ZM772.992 327.368H777.952V323.784H781.888V327.368H786.752V330.536H772.992V327.368ZM773.632 338.664C773.632 334.696 776.288 331.88 779.904 331.88C783.584 331.88 786.208 334.696 786.208 338.664C786.208 342.696 783.584 345.448 779.904 345.448C776.288 345.448 773.632 342.696 773.632 338.664ZM777.152 338.664C777.152 340.904 778.304 342.184 779.904 342.184C781.536 342.184 782.656 340.904 782.656 338.664C782.656 336.52 781.536 335.208 779.904 335.208C778.304 335.208 777.152 336.52 777.152 338.664ZM787.808 350.44V323.56H791.52V334.696H793.856V322.984H797.6V351.688H793.856V337.896H791.52V350.44H787.808ZM800.961 345.128H806.753V338.024C804.545 336.68 803.233 334.664 803.233 332.136C803.233 327.464 807.745 324.456 813.921 324.456C820.097 324.456 824.641 327.464 824.641 332.136C824.641 334.632 823.329 336.68 821.121 338.024V345.128H826.945V348.36H800.961V345.128ZM807.169 332.136C807.169 334.984 809.889 336.712 813.921 336.712C817.985 336.712 820.673 334.984 820.673 332.136C820.673 329.256 817.985 327.56 813.921 327.56C809.889 327.56 807.169 329.256 807.169 332.136ZM810.689 345.128H817.185V339.464C816.161 339.688 815.073 339.784 813.921 339.784C812.769 339.784 811.713 339.688 810.689 339.496V345.128Z" fill="#8A929F"/>
<rect x="920" y="301" width="280" height="73" rx="36.5" fill="#F6F7FB"/>
<path d="M974.23 325.576H977.974V332.072H981.846V325.576H985.526V344.84H974.23V325.576ZM977.974 341.672H981.846V335.176H977.974V341.672ZM987.926 350.376V323.464H991.67V333.992H994.23V322.984H998.038V351.688H994.23V337.192H991.67V350.376H987.926ZM1001.37 339.048H1027.35V342.28H1016.22V351.72H1012.25V342.28H1001.37V339.048ZM1003.99 330.44C1003.99 326.504 1008.18 323.976 1014.3 323.976C1020.41 323.976 1024.6 326.504 1024.6 330.44C1024.6 334.344 1020.41 336.872 1014.3 336.872C1008.18 336.872 1003.99 334.344 1003.99 330.44ZM1008.06 330.44C1008.06 332.52 1010.49 333.672 1014.3 333.672C1018.1 333.672 1020.54 332.52 1020.54 330.44C1020.54 328.328 1018.1 327.144 1014.3 327.144C1010.49 327.144 1008.06 328.328 1008.06 330.44ZM1031.99 325.48H1052.76V328.232C1052.76 331.816 1052.76 335.848 1051.61 341.96L1047.67 341.48C1048.73 336.04 1048.76 332.008 1048.76 328.648H1031.99V325.48ZM1029.34 348.2V344.968H1038.62V335.08H1042.62V344.968H1055.29V348.2H1029.34ZM1084.52 323.016H1088.52V338.92H1084.52V323.016ZM1064.58 335.4C1069.35 333.928 1071.5 330.312 1071.5 326.76V324.04H1075.53V326.76C1075.53 330.216 1077.67 333.576 1082.31 334.888L1080.39 338.024C1077.13 337.032 1074.89 335.048 1073.58 332.488C1072.3 335.272 1069.93 337.448 1066.5 338.504L1064.58 335.4ZM1068.87 351.368V348.232H1072.62V343.4H1069.19V340.264H1088.65V343.4H1085.26V348.232H1088.94V351.368H1068.87ZM1076.49 348.232H1081.32V343.4H1076.49V348.232ZM1100.52 325C1104.36 325 1107.27 328.168 1107.82 333.384H1112.74V322.952H1116.71V351.752H1112.74V336.584H1107.85C1107.43 342.088 1104.46 345.48 1100.52 345.48C1096.23 345.48 1093.13 341.512 1093.13 335.208C1093.13 328.936 1096.23 325 1100.52 325ZM1096.9 335.208C1096.9 339.528 1098.38 341.864 1100.52 341.864C1102.63 341.864 1104.07 339.528 1104.07 335.208C1104.07 330.92 1102.63 328.616 1100.52 328.616C1098.38 328.616 1096.9 330.92 1096.9 335.208ZM1120.62 345.128H1126.41V338.024C1124.2 336.68 1122.89 334.664 1122.89 332.136C1122.89 327.464 1127.4 324.456 1133.58 324.456C1139.75 324.456 1144.3 327.464 1144.3 332.136C1144.3 334.632 1142.99 336.68 1140.78 338.024V345.128H1146.6V348.36H1120.62V345.128ZM1126.83 332.136C1126.83 334.984 1129.55 336.712 1133.58 336.712C1137.64 336.712 1140.33 334.984 1140.33 332.136C1140.33 329.256 1137.64 327.56 1133.58 327.56C1129.55 327.56 1126.83 329.256 1126.83 332.136ZM1130.35 345.128H1136.84V339.464C1135.82 339.688 1134.73 339.784 1133.58 339.784C1132.43 339.784 1131.37 339.688 1130.35 339.496V345.128Z" fill="#8A929F"/>
<rect x="561" y="183" width="427" height="73" rx="36.5" fill="#F6F7FB"/>
<path d="M634.225 205.016H638.193V233.72H634.225V205.016ZM614.481 225.656C616.625 225.656 619.089 225.656 621.681 225.592V223.096C618.577 222.52 616.561 220.536 616.561 217.88C616.561 214.68 619.473 212.504 623.633 212.504C627.857 212.504 630.801 214.68 630.801 217.88C630.801 220.536 628.785 222.488 625.681 223.064V225.432C628.049 225.304 630.449 225.112 632.721 224.824L632.977 227.672C626.737 228.792 620.049 228.856 614.929 228.856L614.481 225.656ZM615.025 211.32V208.184H621.681V205.112H625.649V208.184H632.305V211.32H615.025ZM620.337 217.88C620.337 219.384 621.713 220.248 623.633 220.248C625.649 220.248 626.993 219.384 626.993 217.88C626.993 216.376 625.649 215.48 623.633 215.48C621.713 215.48 620.337 216.376 620.337 217.88ZM651.538 206.936C656.05 206.936 659.41 209.848 659.41 213.944C659.41 218.104 656.05 221.016 651.538 221.016C647.026 221.016 643.634 218.104 643.634 213.944C643.634 209.848 647.026 206.936 651.538 206.936ZM642.418 224.664C647.474 224.664 654.546 224.6 660.594 223.704L660.882 226.584C654.642 227.832 647.89 227.896 642.898 227.896L642.418 224.664ZM647.538 213.944C647.538 216.248 649.234 217.624 651.538 217.624C653.81 217.624 655.506 216.248 655.506 213.944C655.506 211.672 653.81 210.328 651.538 210.328C649.234 210.328 647.538 211.672 647.538 213.944ZM662.194 233.752V204.952H666.162V233.752H662.194ZM678.817 207.096H694.433V210.232H688.705V210.68C688.705 214.136 690.881 217.624 695.489 219.096L693.473 222.168C690.273 221.144 688.033 219.096 686.753 216.472C685.473 219.32 683.169 221.592 679.809 222.712L677.793 219.576C682.529 218.04 684.641 214.328 684.641 210.68V210.232H678.817V207.096ZM682.401 233.176V223.896H686.337V229.976H702.145V233.176H682.401ZM697.441 225.752V205.016H701.409V225.752H697.441ZM726.21 205.016H729.986V223H726.21V215.384H724.002V222.04H720.29V205.528H724.002V212.12H726.21V205.016ZM705.474 211.064V207.992H710.498V205.304H714.434V207.992H719.426V211.064H705.474ZM706.306 217.016C706.306 214.072 708.898 212.024 712.45 212.024C716.098 212.024 718.658 214.072 718.658 217.016C718.658 219.992 716.098 222.04 712.45 222.04C708.898 222.04 706.306 219.992 706.306 217.016ZM709.858 217.016C709.858 218.424 710.882 219.192 712.45 219.192C714.05 219.192 715.138 218.424 715.138 217.016C715.138 215.672 714.05 214.872 712.45 214.872C710.882 214.872 709.858 215.672 709.858 217.016ZM710.498 228.536C710.498 225.176 714.21 223.32 720.354 223.32C726.434 223.32 730.178 225.176 730.178 228.536C730.178 231.8 726.434 233.72 720.354 233.72C714.21 233.72 710.498 231.8 710.498 228.536ZM714.466 228.536C714.466 230.008 716.45 230.712 720.354 230.712C724.226 230.712 726.178 230.008 726.178 228.536C726.178 226.968 724.226 226.264 720.354 226.264C716.45 226.264 714.466 226.968 714.466 228.536ZM739.907 206.552H743.907V209.496C743.907 212.984 745.891 216.344 750.371 217.752L748.323 220.856C745.283 219.8 743.171 217.848 741.955 215.32C740.739 218.232 738.499 220.536 735.235 221.656L733.123 218.52C737.859 216.92 739.907 213.08 739.907 209.144V206.552ZM737.059 228.184C737.059 224.728 740.771 222.68 746.723 222.68C752.675 222.68 756.419 224.728 756.419 228.184C756.419 231.64 752.675 233.72 746.723 233.72C740.771 233.72 737.059 231.64 737.059 228.184ZM740.995 228.184C740.995 229.816 743.043 230.616 746.723 230.616C750.467 230.616 752.483 229.816 752.483 228.184C752.483 226.552 750.467 225.752 746.723 225.752C743.043 225.752 740.995 226.552 740.995 228.184ZM752.099 222.008V205.016H756.099V211.736H759.939V215.032H756.099V222.008H752.099ZM780.228 205.016H784.196V213.208H787.876V216.472H784.196V224.408H780.228V205.016ZM761.188 220.568C763.268 220.568 765.636 220.568 768.1 220.504V218.808C764.996 218.392 763.108 216.92 763.108 214.84C763.108 212.28 765.828 210.712 770.084 210.712C774.276 210.712 777.028 212.28 777.028 214.84C777.028 216.92 775.108 218.36 772.068 218.808V220.376C774.404 220.248 776.74 220.056 778.948 219.768L779.204 222.456C773.22 223.512 766.628 223.576 761.636 223.576L761.188 220.568ZM761.924 209.944V207.096H768.1V204.792H772.068V207.096H778.212V209.944H761.924ZM764.932 229.208C764.932 226.264 768.484 224.696 774.66 224.696C780.804 224.696 784.388 226.264 784.388 229.208C784.388 232.152 780.804 233.752 774.66 233.752C768.484 233.752 764.932 232.152 764.932 229.208ZM766.884 214.84C766.884 215.832 768.036 216.344 770.084 216.344C772.068 216.344 773.252 215.832 773.252 214.84C773.252 213.816 772.068 213.304 770.084 213.304C768.036 213.304 766.884 213.816 766.884 214.84ZM768.9 229.208C768.9 230.328 770.756 230.872 774.66 230.872C778.532 230.872 780.388 230.328 780.388 229.208C780.388 228.056 778.532 227.544 774.66 227.544C770.756 227.544 768.9 228.056 768.9 229.208ZM802.436 205.432C808.996 205.432 812.772 207.128 812.772 210.328C812.772 213.496 808.996 215.256 802.436 215.256C795.908 215.256 792.1 213.496 792.1 210.328C792.1 207.128 795.908 205.432 802.436 205.432ZM789.444 219.768V216.632H815.428V219.768H789.444ZM792.452 224.376V221.464H812.26V228.728H796.42V230.488H812.996V233.496H792.516V225.944H808.324V224.376H792.452ZM796.228 210.328C796.228 211.704 798.276 212.312 802.436 212.312C806.628 212.312 808.644 211.704 808.644 210.328C808.644 209.016 806.628 208.344 802.436 208.344C798.276 208.344 796.228 209.016 796.228 210.328ZM825.204 207.672H841.044V210.84H838.516V223.416C839.7 223.32 840.82 223.192 841.94 223.064L842.1 225.944C836.308 226.968 829.78 227.096 824.852 227.096L824.436 223.832H827.732V210.84H825.204V207.672ZM831.54 223.768L834.644 223.64V210.84H831.54V223.768ZM843.252 233.72V205.016H847.22V215.928H851.444V219.192H847.22V233.72H843.252ZM860.757 206.584C865.173 206.584 868.533 209.528 868.533 213.592C868.533 217.656 865.173 220.568 860.757 220.568C856.373 220.568 852.981 217.656 852.981 213.592C852.981 209.528 856.373 206.584 860.757 206.584ZM856.213 226.2V223.064H875.317V233.72H871.349V226.2H856.213ZM856.885 213.592C856.885 215.864 858.549 217.24 860.757 217.24C862.997 217.24 864.661 215.864 864.661 213.592C864.661 211.256 862.997 209.944 860.757 209.944C858.549 209.944 856.885 211.256 856.885 213.592ZM871.349 221.784V205.016H875.317V211.768H879.157V215.064H875.317V221.784H871.349ZM899.254 205.016H903.19V216.28H907.382V219.576H903.19V233.72H899.254V205.016ZM880.63 212.472V209.304H886.998V205.464H891.03V209.304H897.334V212.472H880.63ZM881.814 220.952C881.814 216.952 884.886 214.136 889.014 214.136C893.174 214.136 896.278 216.952 896.278 220.952C896.278 224.952 893.174 227.768 889.014 227.768C884.886 227.768 881.814 224.952 881.814 220.952ZM885.59 220.952C885.59 223.16 887.062 224.536 889.014 224.536C891.03 224.536 892.502 223.16 892.502 220.952C892.502 218.744 891.03 217.368 889.014 217.368C887.062 217.368 885.59 218.744 885.59 220.952ZM911.382 207.48H932.15V210.232C932.15 213.816 932.15 217.848 930.998 223.96L927.062 223.48C928.118 218.04 928.15 214.008 928.15 210.648H911.382V207.48ZM908.726 230.2V226.968H918.006V217.08H922.006V226.968H934.678V230.2H908.726Z" fill="#8A929F"/>
<rect x="1028" y="183" width="308" height="73" rx="36.5" fill="#F6F7FB"/>
<path d="M1082.69 207.096H1097.38V208.888C1097.38 210.84 1097.38 213.72 1096.71 217.304L1092.84 216.856C1093.32 214.104 1093.41 211.992 1093.45 210.264H1082.69V207.096ZM1081.03 219.416C1082.63 219.416 1084.42 219.416 1086.34 219.384V213.784H1090.25V219.256C1093.09 219.128 1096.01 218.904 1098.66 218.52L1098.95 221.368C1093 222.424 1086.31 222.552 1081.41 222.584L1081.03 219.416ZM1085.22 233.176V224.6H1089.22V229.976H1105.16V233.176H1085.22ZM1100.26 226.456V204.984H1104.26V213.816H1107.75V217.08H1104.26V226.456H1100.26ZM1129.25 204.952H1133.22V233.752H1129.25V204.952ZM1110.92 210.616V207.416H1124.42V218.456H1114.98V223.768C1119.37 223.736 1123.08 223.544 1127.21 222.84L1127.59 226.008C1122.92 226.872 1118.66 227.032 1113.48 227.032H1110.98V215.32H1120.36V210.616H1110.92ZM1155.85 205.016H1159.78V216.28H1163.98V219.576H1159.78V233.72H1155.85V205.016ZM1137.22 212.472V209.304H1143.59V205.464H1147.62V209.304H1153.93V212.472H1137.22ZM1138.41 220.952C1138.41 216.952 1141.48 214.136 1145.61 214.136C1149.77 214.136 1152.87 216.952 1152.87 220.952C1152.87 224.952 1149.77 227.768 1145.61 227.768C1141.48 227.768 1138.41 224.952 1138.41 220.952ZM1142.18 220.952C1142.18 223.16 1143.66 224.536 1145.61 224.536C1147.62 224.536 1149.1 223.16 1149.1 220.952C1149.1 218.744 1147.62 217.368 1145.61 217.368C1143.66 217.368 1142.18 218.744 1142.18 220.952ZM1167.98 207.48H1188.74V210.232C1188.74 213.816 1188.74 217.848 1187.59 223.96L1183.66 223.48C1184.71 218.04 1184.74 214.008 1184.74 210.648H1167.98V207.48ZM1165.32 230.2V226.968H1174.6V217.08H1178.6V226.968H1191.27V230.2H1165.32ZM1220.5 205.016H1224.5V220.92H1220.5V205.016ZM1200.57 217.4C1205.34 215.928 1207.48 212.312 1207.48 208.76V206.04H1211.51V208.76C1211.51 212.216 1213.66 215.576 1218.3 216.888L1216.38 220.024C1213.11 219.032 1210.87 217.048 1209.56 214.488C1208.28 217.272 1205.91 219.448 1202.49 220.504L1200.57 217.4ZM1204.86 233.368V230.232H1208.6V225.4H1205.18V222.264H1224.63V225.4H1221.24V230.232H1224.92V233.368H1204.86ZM1212.47 230.232H1217.3V225.4H1212.47V230.232ZM1236.5 207C1240.34 207 1243.26 210.168 1243.8 215.384H1248.73V204.952H1252.7V233.752H1248.73V218.584H1243.83C1243.42 224.088 1240.44 227.48 1236.5 227.48C1232.22 227.48 1229.11 223.512 1229.11 217.208C1229.11 210.936 1232.22 207 1236.5 207ZM1232.89 217.208C1232.89 221.528 1234.36 223.864 1236.5 223.864C1238.62 223.864 1240.06 221.528 1240.06 217.208C1240.06 212.92 1238.62 210.616 1236.5 210.616C1234.36 210.616 1232.89 212.92 1232.89 217.208ZM1256.6 227.128H1262.39V220.024C1260.19 218.68 1258.87 216.664 1258.87 214.136C1258.87 209.464 1263.39 206.456 1269.56 206.456C1275.74 206.456 1280.28 209.464 1280.28 214.136C1280.28 216.632 1278.97 218.68 1276.76 220.024V227.128H1282.59V230.36H1256.6V227.128ZM1262.81 214.136C1262.81 216.984 1265.53 218.712 1269.56 218.712C1273.63 218.712 1276.31 216.984 1276.31 214.136C1276.31 211.256 1273.63 209.56 1269.56 209.56C1265.53 209.56 1262.81 211.256 1262.81 214.136ZM1266.33 227.128H1272.83V221.464C1271.8 221.688 1270.71 221.784 1269.56 221.784C1268.41 221.784 1267.35 221.688 1266.33 221.496V227.128Z" fill="#8A929F"/>
<rect x="604" y="65" width="392" height="73" rx="36.5" fill="#F6F7FB"/>
<path d="M664.533 89.224H668.565V93.512C668.565 98.824 670.933 104.072 675.765 106.152L673.429 109.384C670.165 107.848 667.893 104.968 666.613 101.416C665.333 105.288 662.997 108.392 659.541 110.024L657.141 106.76C662.069 104.584 664.533 99.08 664.533 93.512V89.224ZM677.269 115.752V86.952H681.269V115.752H677.269ZM686.102 88.712H701.59V91.88H695.926C695.958 95.272 697.974 98.696 702.517 100.2L700.502 103.304C697.366 102.28 695.19 100.232 693.942 97.64C692.694 100.456 690.422 102.696 687.094 103.784L685.046 100.712C689.75 99.176 691.862 95.496 691.894 91.88H686.102V88.712ZM688.886 108.744V105.544H707.99V115.72H703.99V108.744H688.886ZM703.99 104.296V87.016H707.99V93.992H711.83V97.288H707.99V104.296H703.99ZM731.894 87.016H735.83V98.28H740.022V101.576H735.83V115.72H731.894V87.016ZM713.27 94.472V91.304H719.638V87.464H723.67V91.304H729.974V94.472H713.27ZM714.454 102.952C714.454 98.952 717.526 96.136 721.654 96.136C725.814 96.136 728.918 98.952 728.918 102.952C728.918 106.952 725.814 109.768 721.654 109.768C717.526 109.768 714.454 106.952 714.454 102.952ZM718.23 102.952C718.23 105.16 719.702 106.536 721.654 106.536C723.67 106.536 725.142 105.16 725.142 102.952C725.142 100.744 723.67 99.368 721.654 99.368C719.702 99.368 718.23 100.744 718.23 102.952ZM744.599 88.04H748.567V94.824H764.439V97.992H744.599V88.04ZM741.367 104.2V101.032H767.351V104.2H741.367ZM744.343 115.048V106.568H748.311V111.88H764.631V115.048H744.343ZM770.296 89.768H786.392V93.032H780.408V94.856C780.408 99.528 782.808 104.456 787.544 106.44L785.368 109.608C782.072 108.168 779.736 105.32 778.424 101.832C777.144 105.608 774.808 108.744 771.448 110.312L769.176 107.176C773.912 105.032 776.344 99.72 776.344 94.856V93.032H770.296V89.768ZM789.144 115.72V87.016H793.144V115.72H789.144ZM804.68 109.128H815.656V103.208H807.432V89.16H827.784V103.208H819.592V109.128H830.664V112.36H804.68V109.128ZM811.368 100.04H823.88V92.296H811.368V100.04ZM832.648 109.192H858.632V112.456H832.648V109.192ZM835.624 92.136V88.936H855.688V98.44H839.624V101.8H856.36V104.936H835.688V95.336H851.752V92.136H835.624ZM873.161 89C873.161 91.016 872.905 92.872 872.361 94.536H875.433V87.528H879.145V102.952H875.433V97.704H870.921C869.193 100.424 866.473 102.568 862.569 104.168L860.649 101.256C865.929 99.144 868.521 96.2 869.065 92.168H862.121V89H873.161ZM861.929 112.552C865.641 111.272 867.305 108.36 867.305 105.576V104.232H871.145V105.576C871.145 107.848 872.105 110.28 874.409 111.912C876.777 110.184 877.737 107.688 877.737 105.576V104.232H881.673V105.576C881.673 108.552 883.273 111.368 887.017 112.552L885.097 115.496C882.377 114.536 880.585 112.776 879.625 110.536C878.697 112.744 877.033 114.696 874.473 115.752C871.817 114.76 870.153 112.872 869.225 110.632C868.201 112.776 866.441 114.536 863.849 115.496L861.929 112.552ZM881.257 103.336V86.984H885.001V103.336H881.257ZM896.458 89C900.298 89 903.21 92.168 903.754 97.384H908.682V86.952H912.65V115.752H908.682V100.584H903.786C903.37 106.088 900.394 109.48 896.458 109.48C892.17 109.48 889.066 105.512 889.066 99.208C889.066 92.936 892.17 89 896.458 89ZM892.842 99.208C892.842 103.528 894.314 105.864 896.458 105.864C898.57 105.864 900.01 103.528 900.01 99.208C900.01 94.92 898.57 92.616 896.458 92.616C894.314 92.616 892.842 94.92 892.842 99.208ZM916.555 109.128H922.347V102.024C920.139 100.68 918.827 98.664 918.827 96.136C918.827 91.464 923.339 88.456 929.515 88.456C935.691 88.456 940.235 91.464 940.235 96.136C940.235 98.632 938.923 100.68 936.715 102.024V109.128H942.539V112.36H916.555V109.128ZM922.763 96.136C922.763 98.984 925.483 100.712 929.515 100.712C933.579 100.712 936.267 98.984 936.267 96.136C936.267 93.256 933.579 91.56 929.515 91.56C925.483 91.56 922.763 93.256 922.763 96.136ZM926.283 109.128H932.779V103.464C931.755 103.688 930.667 103.784 929.515 103.784C928.363 103.784 927.307 103.688 926.283 103.496V109.128Z" fill="#8A929F"/>
<rect x="1036" y="65" width="216" height="73" rx="36.5" fill="#F6F7FB"/>
<path d="M1089.89 89.064H1103.52V102.376H1089.89V89.064ZM1092.48 108.488V105.288H1111.58V115.72H1107.61V108.488H1092.48ZM1093.79 99.24H1099.58V92.2H1093.79V99.24ZM1107.61 104.008V87.016H1111.58V93.864H1115.42V97.128H1111.58V104.008H1107.61ZM1117.86 89.064H1131.49V102.376H1117.86V89.064ZM1120.45 108.488V105.288H1139.55V115.72H1135.58V108.488H1120.45ZM1121.76 99.24H1127.55V92.2H1121.76V99.24ZM1135.58 104.008V87.016H1139.55V93.864H1143.39V97.128H1139.55V104.008H1135.58ZM1144.99 91.368H1149.95V87.784H1153.89V91.368H1158.75V94.536H1144.99V91.368ZM1145.63 102.664C1145.63 98.696 1148.29 95.88 1151.9 95.88C1155.58 95.88 1158.21 98.696 1158.21 102.664C1158.21 106.696 1155.58 109.448 1151.9 109.448C1148.29 109.448 1145.63 106.696 1145.63 102.664ZM1149.15 102.664C1149.15 104.904 1150.3 106.184 1151.9 106.184C1153.54 106.184 1154.66 104.904 1154.66 102.664C1154.66 100.52 1153.54 99.208 1151.9 99.208C1150.3 99.208 1149.15 100.52 1149.15 102.664ZM1159.81 114.44V87.56H1163.52V98.696H1165.86V86.984H1169.6V115.688H1165.86V101.896H1163.52V114.44H1159.81ZM1172.96 109.128H1178.75V102.024C1176.54 100.68 1175.23 98.664 1175.23 96.136C1175.23 91.464 1179.74 88.456 1185.92 88.456C1192.1 88.456 1196.64 91.464 1196.64 96.136C1196.64 98.632 1195.33 100.68 1193.12 102.024V109.128H1198.94V112.36H1172.96V109.128ZM1179.17 96.136C1179.17 98.984 1181.89 100.712 1185.92 100.712C1189.98 100.712 1192.67 98.984 1192.67 96.136C1192.67 93.256 1189.98 91.56 1185.92 91.56C1181.89 91.56 1179.17 93.256 1179.17 96.136ZM1182.69 109.128H1189.18V103.464C1188.16 103.688 1187.07 103.784 1185.92 103.784C1184.77 103.784 1183.71 103.688 1182.69 103.496V109.128Z" fill="#8A929F"/>
</svg>
