<svg width="1536" height="629" viewBox="0 0 1536 629" fill="none" xmlns="http://www.w3.org/2000/svg">
<g clip-path="url(#clip0_1740_21153)">
<path d="M1536 0H0V629H1536V0Z" fill="white"/>
<path d="M686.299 193.82H688.459V211.64H686.299V193.82ZM673.859 206.7C675.259 206.7 676.839 206.7 678.499 206.66V204.98C676.519 204.66 675.219 203.44 675.219 201.74C675.219 199.74 677.019 198.42 679.579 198.42C682.179 198.42 683.939 199.74 683.939 201.74C683.939 203.44 682.659 204.66 680.679 204.98V206.58C682.239 206.5 683.799 206.38 685.279 206.18L685.439 207.74C681.539 208.42 677.319 208.46 674.119 208.46L673.859 206.7ZM674.219 197.6V195.88H678.499V193.86H680.679V195.88H684.959V197.6H674.219ZM677.299 201.74C677.299 202.78 678.219 203.42 679.579 203.42C680.939 203.42 681.899 202.78 681.899 201.74C681.899 200.7 680.939 200.06 679.579 200.06C678.219 200.06 677.299 200.7 677.299 201.74ZM696.979 195.04C699.779 195.04 701.819 196.84 701.819 199.34C701.819 201.88 699.779 203.64 696.979 203.64C694.179 203.64 692.119 201.88 692.119 199.34C692.119 196.84 694.179 195.04 696.979 195.04ZM691.319 206.14C694.499 206.14 698.919 206.12 702.719 205.56L702.879 207.12C698.979 207.88 694.719 207.92 691.579 207.92L691.319 206.14ZM694.259 199.34C694.259 200.86 695.419 201.8 696.979 201.8C698.539 201.8 699.699 200.86 699.699 199.34C699.699 197.84 698.539 196.9 696.979 196.9C695.419 196.9 694.259 197.84 694.259 199.34ZM703.779 211.66V193.8H705.939V211.66H703.779ZM720.36 193.8H722.52V200.78H725.16V202.58H722.52V211.6H720.36V193.8ZM708.66 206.76C712.92 204.56 715.26 201.5 715.68 197.44H709.54V195.68H717.84C717.84 200.9 715.7 205.48 709.84 208.4L708.66 206.76ZM735.629 195.12C738.009 195.12 739.809 197.14 740.109 200.4H743.449V193.8H745.609V211.66H743.449V202.14H740.129C739.889 205.56 738.069 207.7 735.629 207.7C732.989 207.7 731.109 205.24 731.109 201.38C731.109 197.54 732.989 195.12 735.629 195.12ZM733.149 201.38C733.149 204.16 734.149 205.74 735.629 205.74C737.089 205.74 738.069 204.16 738.069 201.38C738.069 198.66 737.089 197.06 735.629 197.06C734.149 197.06 733.149 198.66 733.149 201.38ZM760.89 193.8H763.05V211.66H760.89V204.3H757.65V202.56H760.89V199.44H757.73V197.72H760.89V193.8ZM748.89 197.08V195.36H756.75V202.02H751.05V205.82C753.39 205.8 755.43 205.72 757.81 205.34L757.99 207.12C755.31 207.56 753.05 207.62 750.29 207.62H748.91V200.3H754.63V197.08H748.89ZM765.75 202.62H781.87V204.36H775.05V207.64H772.83V204.36H765.75V202.62ZM767.47 197.86C767.47 195.6 769.99 194.2 773.79 194.2C777.61 194.2 780.11 195.6 780.11 197.86C780.11 200.1 777.61 201.48 773.79 201.48C769.99 201.48 767.47 200.1 767.47 197.86ZM767.69 211.28V206H769.87V209.52H780.09V211.28H767.69ZM769.77 197.86C769.77 199.06 771.35 199.74 773.79 199.74C776.23 199.74 777.81 199.06 777.81 197.86C777.81 196.62 776.23 195.94 773.79 195.94C771.35 195.94 769.77 196.62 769.77 197.86ZM799.58 193.8H801.78V198.2H804.22V200H801.78V204.22H799.58V193.8ZM788.5 203.08V195.08H796.42V196.84H790.66V201.34C794.04 201.32 795.9 201.2 798 200.76L798.22 202.5C795.92 202.98 793.86 203.08 789.96 203.08H788.5ZM790.04 208.08C790.04 205.9 792.36 204.56 795.98 204.56C799.64 204.56 801.92 205.9 801.92 208.08C801.92 210.28 799.64 211.62 795.98 211.62C792.36 211.62 790.04 210.28 790.04 208.08ZM792.18 208.08C792.18 209.24 793.58 209.88 795.98 209.88C798.4 209.88 799.82 209.24 799.82 208.08C799.82 206.88 798.4 206.28 795.98 206.28C793.58 206.28 792.18 206.88 792.18 208.08ZM817.841 193.84H820.021V206.82H817.841V193.84ZM805.381 202.66C808.241 201.64 809.681 199.1 809.681 196.58V194.82H811.901V196.58C811.901 199.04 813.361 201.4 816.161 202.34L815.061 204.06C813.021 203.34 811.601 201.9 810.821 200.1C810.041 202.04 808.581 203.6 806.481 204.38L805.381 202.66ZM808.381 211.28V205.62H810.521V209.52H820.521V211.28H808.381ZM835.961 193.8H838.021V211.62H835.961V193.8ZM823.001 201.5C823.001 197.58 824.481 195.16 826.801 195.16C828.941 195.16 830.381 197.18 830.601 200.52H832.381V194.16H834.401V210.76H832.381V202.28H830.621C830.441 205.78 828.981 207.88 826.801 207.88C824.481 207.88 823.001 205.46 823.001 201.5ZM824.961 201.5C824.961 204.3 825.661 205.84 826.801 205.84C827.981 205.84 828.681 204.3 828.681 201.5C828.681 198.72 827.981 197.2 826.801 197.2C825.661 197.2 824.961 198.72 824.961 201.5ZM853.462 193.8H855.522V211.62H853.462V193.8ZM840.182 206.34C843.842 204.14 845.542 201.32 845.842 197.72H841.062V195.98H847.982C847.982 197.7 847.782 199.34 847.282 200.84H849.762V194.22H851.762V210.76H849.762V202.56H846.582C845.562 204.6 843.902 206.4 841.402 207.86L840.182 206.34ZM860.682 208.18L859.342 212.72H857.802L858.542 208.18H860.682Z" fill="#4B5564"/>
<path d="M811.817 261.984H815.785V268.16H819.657V271.392H815.785V277.504H811.817V261.984ZM793.289 267.136V264.16H799.721V261.792H803.689V264.16H810.153V267.136H793.289ZM794.665 272.576C794.665 269.728 797.449 267.872 801.705 267.872C805.961 267.872 808.745 269.728 808.745 272.576C808.745 275.488 805.961 277.248 801.705 277.248C797.449 277.248 794.665 275.488 794.665 272.576ZM796.905 281.568V278.688H815.785V285.888H800.905V287.552H816.617V290.496H796.969V283.136H811.849V281.568H796.905ZM798.505 272.576C798.505 273.792 799.721 274.464 801.705 274.464C803.689 274.464 804.937 273.792 804.937 272.576C804.937 271.36 803.689 270.688 801.705 270.688C799.721 270.688 798.505 271.36 798.505 272.576ZM842.153 261.984H845.929V290.688H842.153V261.984ZM820.937 281.952C826.697 278.464 829.257 274.272 829.801 268.608H822.473V265.408H833.705C833.705 268.128 833.417 270.688 832.713 273.056H836.105V262.624H839.817V289.376H836.105V276.224H831.497C829.865 279.52 827.209 282.368 823.177 284.736L820.937 281.952ZM849.194 284.128H854.986V277.024C852.778 275.68 851.466 273.664 851.466 271.136C851.466 266.464 855.978 263.456 862.154 263.456C868.33 263.456 872.874 266.464 872.874 271.136C872.874 273.632 871.562 275.68 869.354 277.024V284.128H875.178V287.36H849.194V284.128ZM855.402 271.136C855.402 273.984 858.122 275.712 862.154 275.712C866.218 275.712 868.906 273.984 868.906 271.136C868.906 268.256 866.218 266.56 862.154 266.56C858.122 266.56 855.402 268.256 855.402 271.136ZM858.922 284.128H865.418V278.464C864.394 278.688 863.306 278.784 862.154 278.784C861.002 278.784 859.946 278.688 858.922 278.496V284.128ZM884.331 263.392L883.755 281.472H880.043L879.371 263.392H884.331ZM879.787 286.56C879.787 285.376 880.523 284.448 881.899 284.448C883.243 284.448 883.979 285.376 883.979 286.56C883.979 287.712 883.243 288.64 881.899 288.64C880.523 288.64 879.787 287.712 879.787 286.56Z" fill="#232326"/>
<path d="M731.857 415H731.857C723.652 415 717 421.652 717 429.857V490.143C717 498.348 723.652 505 731.857 505H731.857C740.063 505 746.714 498.348 746.714 490.143V429.857C746.714 421.652 740.063 415 731.857 415Z" fill="#3970FE"/>
<path d="M806.142 415H806.142C797.937 415 791.285 421.652 791.285 429.857V451.717C791.285 459.922 797.937 466.574 806.142 466.574H806.142C814.348 466.574 820.999 459.922 820.999 451.717V429.857C820.999 421.652 814.348 415 806.142 415Z" fill="#1FDD7E"/>
<path d="M754.143 442.061C754.143 433.855 760.794 427.204 769 427.204C777.205 427.204 783.857 433.855 783.857 442.061V445.509C783.857 455.618 775.661 463.814 765.552 463.814H754.143V442.061Z" fill="#5CDAF8"/>
<path d="M806.142 505C814.348 505 820.999 498.171 820.999 489.746C820.999 481.321 814.348 474.492 806.142 474.492C797.937 474.492 791.285 481.321 791.285 489.746C791.285 498.171 797.937 505 806.142 505Z" fill="#6268F1"/>
<path fill-rule="evenodd" clip-rule="evenodd" d="M870.2 582.193C871.828 583.821 873.935 584.593 876.377 584.593H892.032C893.669 584.593 895.127 584.08 896.252 582.954C897.424 581.783 897.999 580.303 897.999 578.625C897.999 576.97 897.437 575.514 896.253 574.404C895.143 573.221 893.688 572.658 892.032 572.658H882.356C881.502 572.658 881.139 572.446 880.978 572.285C880.817 572.125 880.605 571.761 880.605 570.907V543.185C880.605 541.431 879.99 539.901 878.728 538.725C877.543 537.552 876.026 537 874.312 537C872.536 537 870.958 537.544 869.7 538.705C868.423 539.883 867.801 541.421 867.801 543.185V576.016C867.801 578.458 868.572 580.566 870.2 582.193ZM892.342 583.075C892.242 583.08 892.139 583.082 892.036 583.082H876.381C874.279 583.082 872.576 582.43 871.271 581.126C869.967 579.821 869.314 578.118 869.314 576.016V543.184C869.314 541.807 869.786 540.684 870.728 539.814C871.594 539.015 872.675 538.583 873.97 538.518C872.673 538.582 871.591 539.014 870.724 539.814C869.782 540.684 869.311 541.808 869.311 543.185V576.016C869.311 578.118 869.963 579.821 871.268 581.126C872.572 582.43 874.275 583.083 876.377 583.083H892.032C892.137 583.083 892.24 583.08 892.342 583.075Z" fill="#232326"/>
<path fill-rule="evenodd" clip-rule="evenodd" d="M825.09 583.928L825.131 583.969L825.175 584.007C826.456 585.105 827.962 585.675 829.636 585.675C831.313 585.675 832.804 585.102 834.031 583.97L834.034 583.967C835.314 582.778 836.038 581.305 836.039 579.599L835.821 569.598V569.583C835.822 569.351 835.852 569.205 835.879 569.124C835.893 569.084 835.905 569.061 835.912 569.05C835.918 569.039 835.922 569.035 835.922 569.035C835.922 569.035 835.927 569.03 835.937 569.024C835.949 569.017 835.972 569.005 836.012 568.992C836.095 568.964 836.244 568.933 836.485 568.933H842.9C847.598 568.933 851.577 567.432 854.716 564.374C857.871 561.3 859.412 557.304 859.412 552.53C859.412 548.065 857.795 544.373 854.539 541.601C851.395 538.864 847.439 537.539 842.791 537.539H831.811C829.369 537.539 827.261 538.31 825.633 539.938C824.006 541.566 823.234 543.674 823.234 546.115V579.599C823.234 581.266 823.89 582.729 825.09 583.928ZM829.918 584.158C829.827 584.163 829.734 584.165 829.64 584.165C828.336 584.165 827.176 583.73 826.161 582.861C825.219 581.918 824.748 580.831 824.748 579.599V546.115C824.748 544.013 825.4 542.31 826.705 541.006C827.91 539.801 829.454 539.152 831.339 539.06C829.453 539.152 827.907 539.8 826.701 541.006C825.397 542.31 824.744 544.014 824.744 546.115V579.599C824.744 580.831 825.215 581.919 826.158 582.861C827.172 583.73 828.332 584.165 829.636 584.165C829.731 584.165 829.825 584.163 829.918 584.158ZM836.288 567.428C836.352 567.425 836.418 567.423 836.485 567.423H842.9C843.184 567.423 843.466 567.417 843.744 567.406C843.467 567.417 843.187 567.423 842.903 567.423H836.489C836.421 567.423 836.354 567.425 836.288 567.428ZM841.704 557.216H835.942C835.896 557.216 835.857 557.214 835.826 557.212C835.823 557.18 835.821 557.142 835.821 557.096V549.377C835.821 549.331 835.823 549.292 835.826 549.26C835.857 549.258 835.896 549.256 835.942 549.256H842.139C844.058 549.256 845.216 549.674 845.882 550.249C846.505 550.786 846.934 551.666 846.934 553.182C846.934 554.711 846.484 555.611 845.8 556.174C845.059 556.783 843.782 557.216 841.704 557.216Z" fill="#232326"/>
<path fill-rule="evenodd" clip-rule="evenodd" d="M790.655 579.599C790.655 581.363 791.278 582.901 792.554 584.079L792.578 584.101L792.603 584.122C793.85 585.177 795.367 585.675 797.057 585.675C798.794 585.675 800.348 585.19 801.556 584.082L801.56 584.079C802.837 582.901 803.459 581.363 803.459 579.599V551.225C803.459 550.371 803.672 550.007 803.832 549.847C803.993 549.686 804.356 549.473 805.211 549.473H810.429C812.112 549.473 813.617 548.976 814.758 547.835C815.929 546.664 816.505 545.184 816.505 543.506C816.505 541.85 815.942 540.395 814.759 539.285C813.632 538.084 812.129 537.539 810.429 537.539H783.577C781.899 537.539 780.419 538.114 779.247 539.286C778.122 540.411 777.609 541.869 777.609 543.506C777.609 545.145 778.122 546.609 779.202 547.788L779.246 547.836L779.295 547.881C780.473 548.961 781.937 549.473 783.577 549.473H788.904C789.758 549.473 790.121 549.686 790.282 549.847C790.442 550.007 790.655 550.371 790.655 551.225V579.599Z" fill="#232326"/>
<path d="M770.147 547.663L770.171 547.641L770.194 547.618C771.348 546.464 771.941 545.029 771.941 543.398C771.941 541.696 771.491 540.147 770.331 539.043C769.185 537.951 767.602 537.539 765.865 537.539H749.449C747.099 537.539 745.065 538.263 743.506 539.813C741.912 541.323 741.199 543.387 741.199 545.789V576.012C741.199 578.453 741.97 580.561 743.598 582.189C745.226 583.817 747.334 584.588 749.776 584.588H766.952C768.591 584.588 770.056 584.076 771.234 582.995L771.258 582.973L771.281 582.95C772.435 581.797 773.028 580.361 773.028 578.73C773.028 577.018 772.476 575.507 771.258 574.377C770.12 573.253 768.624 572.762 766.952 572.762H754.668C754.427 572.762 754.277 572.732 754.194 572.704C754.154 572.691 754.131 572.679 754.12 572.672C754.109 572.666 754.105 572.661 754.105 572.661L754.102 572.658C754.1 572.656 754.097 572.652 754.094 572.646C754.087 572.635 754.075 572.612 754.062 572.572C754.034 572.489 754.003 572.339 754.003 572.098V567.315C754.003 567.074 754.034 566.924 754.062 566.841C754.075 566.801 754.087 566.778 754.094 566.767C754.1 566.756 754.105 566.752 754.105 566.752C754.105 566.752 754.109 566.747 754.12 566.741C754.131 566.734 754.154 566.722 754.194 566.709C754.277 566.681 754.427 566.65 754.668 566.65H764.235C765.856 566.65 767.284 566.064 768.433 564.925C769.635 563.806 770.31 562.41 770.31 560.792C770.31 559.155 769.797 557.697 768.672 556.571C767.517 555.416 765.965 554.933 764.235 554.933H754.668C754.427 554.933 754.277 554.903 754.194 554.875C754.154 554.862 754.131 554.849 754.12 554.843C754.109 554.836 754.105 554.832 754.105 554.832C754.103 554.83 754.098 554.824 754.094 554.817C754.087 554.806 754.075 554.783 754.062 554.743C754.034 554.659 754.003 554.51 754.003 554.269V549.92C754.003 549.679 754.034 549.53 754.062 549.447C754.075 549.406 754.087 549.383 754.094 549.372L754.099 549.364C754.102 549.36 754.105 549.357 754.105 549.357C754.105 549.357 754.109 549.353 754.12 549.347C754.131 549.34 754.154 549.328 754.194 549.314C754.277 549.287 754.427 549.256 754.668 549.256H765.865C767.504 549.256 768.968 548.744 770.147 547.663Z" fill="#232326"/>
<path fill-rule="evenodd" clip-rule="evenodd" d="M729.944 547.663L729.968 547.641L729.991 547.618C731.145 546.464 731.738 545.029 731.738 543.398C731.738 541.696 731.288 540.147 730.128 539.043C728.982 537.951 727.399 537.539 725.662 537.539H709.246C706.896 537.539 704.862 538.263 703.302 539.813C701.709 541.323 700.996 543.387 700.996 545.789V576.012C700.996 578.453 701.767 580.561 703.395 582.189C705.023 583.817 707.131 584.588 709.572 584.588H726.749C728.388 584.588 729.852 584.076 731.031 582.995L731.055 582.973L731.078 582.95C732.232 581.797 732.825 580.361 732.825 578.73C732.825 577.018 732.273 575.507 731.055 574.377C729.917 573.253 728.421 572.762 726.749 572.762H714.465C714.223 572.762 714.074 572.732 713.991 572.704C713.951 572.691 713.928 572.679 713.916 572.672C713.906 572.666 713.902 572.662 713.901 572.661C713.901 572.66 713.897 572.657 713.891 572.646C713.884 572.635 713.872 572.612 713.859 572.572C713.831 572.489 713.8 572.339 713.8 572.098V567.315C713.8 567.074 713.831 566.924 713.859 566.841C713.872 566.801 713.884 566.778 713.891 566.767C713.897 566.756 713.902 566.751 713.903 566.75C713.904 566.749 713.907 566.747 713.91 566.745C713.911 566.744 713.914 566.742 713.916 566.741C713.928 566.734 713.951 566.722 713.991 566.709C714.074 566.681 714.223 566.65 714.465 566.65H724.031C725.653 566.65 727.081 566.064 728.23 564.925C729.432 563.806 730.107 562.41 730.107 560.792C730.107 559.155 729.594 557.697 728.469 556.571C727.314 555.416 725.762 554.933 724.031 554.933H714.465C714.223 554.933 714.074 554.903 713.991 554.875C713.951 554.862 713.928 554.849 713.916 554.843C713.906 554.836 713.902 554.833 713.901 554.832C713.901 554.831 713.897 554.828 713.891 554.817C713.884 554.806 713.872 554.783 713.859 554.743C713.831 554.659 713.8 554.51 713.8 554.269V549.92C713.8 549.679 713.831 549.53 713.859 549.447C713.872 549.406 713.884 549.383 713.891 549.372C713.897 549.362 713.901 549.358 713.902 549.357C713.902 549.357 713.906 549.353 713.916 549.347C713.928 549.34 713.951 549.328 713.991 549.314C714.074 549.287 714.223 549.256 714.465 549.256H725.662C727.301 549.256 728.765 548.744 729.944 547.663Z" fill="#232326"/>
<path fill-rule="evenodd" clip-rule="evenodd" d="M640.517 583.528L640.535 583.549L640.554 583.569C641.846 584.953 643.474 585.68 645.354 585.68C646.994 585.68 648.469 585.168 649.7 584.127L649.725 584.106L649.749 584.083C650.981 582.946 651.656 581.494 651.753 579.814L653.314 559.715L658.857 575.197L658.898 575.278C659.57 576.623 660.472 577.75 661.611 578.626L661.632 578.643L661.654 578.658C662.865 579.523 664.18 580.027 665.575 580.027C667.15 580.027 668.584 579.617 669.789 578.725C670.984 577.841 671.841 576.567 672.423 575.029L677.941 559.522L679.4 579.85L679.403 579.879C679.583 581.5 680.229 582.913 681.358 584.042L681.403 584.086L681.451 584.127C682.682 585.168 684.156 585.68 685.796 585.68C687.67 585.68 689.277 584.956 690.506 583.549C691.813 582.138 692.355 580.423 692.075 578.525L687.511 543.641L687.509 543.633C687.251 541.74 686.459 540.134 685.086 538.926C683.747 537.609 682.013 537 680.034 537C678.292 537 676.718 537.385 675.414 538.263C674.1 539.146 673.189 540.442 672.63 542.032L665.575 562.367L658.522 542.037L658.52 542.032C657.959 540.435 657.033 539.137 655.699 538.256C654.377 537.382 652.779 537 651.008 537C649.122 537 647.454 537.639 646.084 538.909C644.699 540.119 643.9 541.731 643.641 543.633L639.076 578.525C638.799 580.396 639.283 582.104 640.517 583.528Z" fill="#232326"/>
<path d="M665.562 257.944V261.928H660.186V293.512H665.562V297.544H656.25V257.944H665.562Z" fill="black"/>
<path d="M707.767 255.88H714.487V284.632H707.767V255.88ZM680.551 279.4V259.192H701.719V279.4H680.551ZM682.807 293.848C692.359 292.552 696.199 287.704 696.199 283.24V282.568H703.159V283.24C703.159 287.704 706.903 292.552 716.551 293.848L714.007 299.08C706.999 297.976 702.247 295.048 699.655 291.064C697.111 295.048 692.311 297.976 685.303 299.08L682.807 293.848ZM687.127 274.12H695.095V264.52H687.127V274.12ZM723.656 256.936H756.152V261.976H750.824V266.872H755.72V271.864H724.088V266.872H729.032V261.976H723.656V256.936ZM720.296 279.016V273.784H759.56V279.016H720.296ZM724.76 285.88V281.128H754.856V292.216H731.432V294.04H755.96V298.984H724.808V287.704H748.232V285.88H724.76ZM735.704 266.872H744.104V261.976H735.704V266.872Z" fill="#606DE9"/>
<path d="M772.426 257.944H781.738V297.544H772.426V293.512H777.802V261.928H772.426V257.944Z" fill="black"/>
</g>
<defs>
<clipPath id="clip0_1740_21153">
<rect width="1536" height="629" fill="white"/>
</clipPath>
</defs>
</svg>
