<svg width="1536" height="618" viewBox="0 0 1536 618" fill="none" xmlns="http://www.w3.org/2000/svg">
<rect width="1536" height="618" fill="white"/>
<g filter="url(#filter0_d_1389_24658)">
<rect x="169" y="297" width="1198" height="74" rx="10" fill="white"/>
<rect x="166" y="294" width="1204" height="80" rx="13" stroke="#606DE9" stroke-width="6"/>
</g>
<path d="M270.213 320.144H273.701V339.12H270.213V320.144ZM251.685 335.312V322.448H265.221V335.312H251.685ZM253.317 345.776C258.917 344.912 262.469 341.808 262.469 338.224V337.552H266.053V338.224C266.053 341.744 269.509 344.912 275.173 345.776L273.829 348.464C269.381 347.696 265.925 345.584 264.229 342.64C262.533 345.584 259.077 347.696 254.597 348.464L253.317 345.776ZM255.045 332.592H261.829V325.2H255.045V332.592ZM280.454 320.912H301.574V323.536H297.638V327.92H301.35V330.544H280.646V327.92H284.39V323.536H280.454V320.912ZM278.182 335.12V332.336H303.91V335.12H278.182ZM281.19 339.568V337.072H300.71V343.792H284.646V345.776H301.51V348.336H281.254V341.424H297.318V339.568H281.19ZM287.846 327.92H294.182V323.536H287.846V327.92ZM327.207 320.08H330.503V348.592H327.207V320.08ZM306.471 332.4C306.471 326.128 308.839 322.256 312.551 322.256C315.975 322.256 318.279 325.488 318.631 330.832H321.479V320.656H324.711V347.216H321.479V333.648H318.663C318.375 339.248 316.039 342.608 312.551 342.608C308.839 342.608 306.471 338.736 306.471 332.4ZM309.607 332.4C309.607 336.88 310.727 339.344 312.551 339.344C314.439 339.344 315.559 336.88 315.559 332.4C315.559 327.952 314.439 325.52 312.551 325.52C310.727 325.52 309.607 327.952 309.607 332.4ZM348.455 329.36H354.375V320.08H357.831V348.656H354.375V332.144H348.455V329.36ZM333.927 339.952C338.471 337.776 341.063 332.304 341.063 326.96V322.384H344.519V326.96C344.519 332.24 347.079 337.456 351.559 339.472L349.479 342.256C346.311 340.656 344.071 337.616 342.855 333.904C341.607 337.84 339.303 341.072 336.071 342.736L333.927 339.952Z" fill="#232326"/>
<path d="M690.001 136.768H694.465V169.06H690.001V136.768ZM667.789 159.988C670.201 159.988 672.973 159.988 675.889 159.916V157.108C672.397 156.46 670.129 154.228 670.129 151.24C670.129 147.64 673.405 145.192 678.085 145.192C682.837 145.192 686.149 147.64 686.149 151.24C686.149 154.228 683.881 156.424 680.389 157.072V159.736C683.053 159.592 685.753 159.376 688.309 159.052L688.597 162.256C681.577 163.516 674.053 163.588 668.293 163.588L667.789 159.988ZM668.401 143.86V140.332H675.889V136.876H680.353V140.332H687.841V143.86H668.401ZM674.377 151.24C674.377 152.932 675.925 153.904 678.085 153.904C680.353 153.904 681.865 152.932 681.865 151.24C681.865 149.548 680.353 148.54 678.085 148.54C675.925 148.54 674.377 149.548 674.377 151.24ZM709.478 138.928C714.554 138.928 718.334 142.204 718.334 146.812C718.334 151.492 714.554 154.768 709.478 154.768C704.402 154.768 700.586 151.492 700.586 146.812C700.586 142.204 704.402 138.928 709.478 138.928ZM699.218 158.872C704.906 158.872 712.862 158.8 719.666 157.792L719.99 161.032C712.97 162.436 705.374 162.508 699.758 162.508L699.218 158.872ZM704.978 146.812C704.978 149.404 706.886 150.952 709.478 150.952C712.034 150.952 713.942 149.404 713.942 146.812C713.942 144.256 712.034 142.744 709.478 142.744C706.886 142.744 704.978 144.256 704.978 146.812ZM721.466 169.096V136.696H725.93V169.096H721.466ZM730.503 154.084H742.887V151.672H734.139V142.888H751.743V140.8H734.103V137.38H756.171V146.056H738.567V148.252H756.747V151.672H747.315V154.084H759.735V157.648H730.503V154.084ZM733.743 163.048V159.52H756.351V168.916H751.887V163.048H733.743ZM771.452 138.64H786.536V142.168H775.88V144.796H785.888V148.288H775.88V150.988C781.136 150.952 784.52 150.808 788.3 150.088L788.768 153.58C784.448 154.372 780.596 154.516 774.116 154.516H771.452V138.64ZM774.692 168.664V157.108H795.608V168.664H774.692ZM779.084 165.136H791.216V160.564H779.084V165.136ZM791.108 155.632V136.768H795.608V144.328H799.928V148H795.608V155.632H791.108ZM807.633 138.604H811.989V142.384C811.989 145.948 813.753 149.476 818.001 151.24L815.625 154.624C812.889 153.508 811.017 151.564 809.865 149.152C808.713 151.924 806.697 154.228 803.709 155.524L801.369 152.068C805.833 150.016 807.633 146.056 807.633 142.384V138.604ZM807.093 161.356V157.756H829.197V169.06H824.769V161.356H807.093ZM818.145 156.172V137.272H822.321V144.652H824.985V136.768H829.197V156.352H824.985V148.252H822.321V156.172H818.145ZM847.774 137.236C855.154 137.236 859.402 139.144 859.402 142.744C859.402 146.308 855.154 148.288 847.774 148.288C840.43 148.288 836.146 146.308 836.146 142.744C836.146 139.144 840.43 137.236 847.774 137.236ZM833.158 153.364V149.836H862.39V153.364H833.158ZM836.542 158.548V155.272H858.826V163.444H841.006V165.424H859.654V168.808H836.614V160.312H854.398V158.548H836.542ZM840.79 142.744C840.79 144.292 843.094 144.976 847.774 144.976C852.49 144.976 854.758 144.292 854.758 142.744C854.758 141.268 852.49 140.512 847.774 140.512C843.094 140.512 840.79 141.268 840.79 142.744Z" fill="#8B929E"/>
<path d="M667.573 250.824H679.921V245.856H670.993V235.056H689.065V231.42H670.921V227.856H693.493V238.548H675.421V242.292H694.249V245.856H684.349V250.824H696.805V254.424H667.573V250.824ZM702.494 228.432H724.85V232.032H706.922V240.708H725.102V244.272H702.494V228.432ZM699.038 254.1V250.464H728.27V254.1H699.038ZM753.723 225.768H757.971V243.3H753.723V236.172H751.059V243.084H746.883V226.38H751.059V232.572H753.723V225.768ZM731.655 241.932V227.892H744.399V241.932H731.655ZM735.831 238.476H740.223V231.348H735.831V238.476ZM736.155 257.664V244.668H740.583V247.656H753.615V244.668H757.971V257.664H736.155ZM740.583 254.064H753.615V251.148H740.583V254.064ZM771.452 227.64H786.536V231.168H775.88V233.796H785.888V237.288H775.88V239.988C781.136 239.952 784.52 239.808 788.3 239.088L788.768 242.58C784.448 243.372 780.596 243.516 774.116 243.516H771.452V227.64ZM774.692 257.664V246.108H795.608V257.664H774.692ZM779.084 254.136H791.216V249.564H779.084V254.136ZM791.108 244.632V225.768H795.608V233.328H799.928V237H795.608V244.632H791.108ZM807.633 227.604H811.989V231.384C811.989 234.948 813.753 238.476 818.001 240.24L815.625 243.624C812.889 242.508 811.017 240.564 809.865 238.152C808.713 240.924 806.697 243.228 803.709 244.524L801.369 241.068C805.833 239.016 807.633 235.056 807.633 231.384V227.604ZM807.093 250.356V246.756H829.197V258.06H824.769V250.356H807.093ZM818.145 245.172V226.272H822.321V233.652H824.985V225.768H829.197V245.352H824.985V237.252H822.321V245.172H818.145ZM847.774 226.236C855.154 226.236 859.402 228.144 859.402 231.744C859.402 235.308 855.154 237.288 847.774 237.288C840.43 237.288 836.146 235.308 836.146 231.744C836.146 228.144 840.43 226.236 847.774 226.236ZM833.158 242.364V238.836H862.39V242.364H833.158ZM836.542 247.548V244.272H858.826V252.444H841.006V254.424H859.654V257.808H836.614V249.312H854.398V247.548H836.542ZM840.79 231.744C840.79 233.292 843.094 233.976 847.774 233.976C852.49 233.976 854.758 233.292 854.758 231.744C854.758 230.268 852.49 229.512 847.774 229.512C843.094 229.512 840.79 230.268 840.79 231.744Z" fill="#8B929E"/>
<path d="M665.497 321.604H681.049V325.132H669.961V327.724H680.077V331.216H669.961V333.916C675.613 333.88 679.177 333.736 683.281 333.088L683.713 336.58C679.141 337.336 675.073 337.444 668.269 337.444H665.497V321.604ZM669.097 351.664V340.288H690.517V351.664H669.097ZM673.489 348.136H686.161V343.816H673.489V348.136ZM686.017 338.956V319.768H690.517V338.956H686.017ZM725.923 319.768H730.387V352.06H725.923V319.768ZM703.711 342.988C706.123 342.988 708.895 342.988 711.811 342.916V340.108C708.319 339.46 706.051 337.228 706.051 334.24C706.051 330.64 709.327 328.192 714.007 328.192C718.759 328.192 722.071 330.64 722.071 334.24C722.071 337.228 719.803 339.424 716.311 340.072V342.736C718.975 342.592 721.675 342.376 724.231 342.052L724.519 345.256C717.499 346.516 709.975 346.588 704.215 346.588L703.711 342.988ZM704.323 326.86V323.332H711.811V319.876H716.275V323.332H723.763V326.86H704.323ZM710.299 334.24C710.299 335.932 711.847 336.904 714.007 336.904C716.275 336.904 717.787 335.932 717.787 334.24C717.787 332.548 716.275 331.54 714.007 331.54C711.847 331.54 710.299 332.548 710.299 334.24ZM745.4 321.928C750.476 321.928 754.256 325.204 754.256 329.812C754.256 334.492 750.476 337.768 745.4 337.768C740.324 337.768 736.508 334.492 736.508 329.812C736.508 325.204 740.324 321.928 745.4 321.928ZM735.14 341.872C740.828 341.872 748.784 341.8 755.588 340.792L755.912 344.032C748.892 345.436 741.296 345.508 735.68 345.508L735.14 341.872ZM740.9 329.812C740.9 332.404 742.808 333.952 745.4 333.952C747.956 333.952 749.864 332.404 749.864 329.812C749.864 327.256 747.956 325.744 745.4 325.744C742.808 325.744 740.9 327.256 740.9 329.812ZM757.388 352.096V319.696H761.852V352.096H757.388ZM776.161 322.108H792.685V324.124C792.685 326.32 792.685 329.56 791.929 333.592L787.573 333.088C788.113 329.992 788.221 327.616 788.257 325.672H776.161V322.108ZM774.289 335.968C776.089 335.968 778.105 335.968 780.265 335.932V329.632H784.657V335.788C787.861 335.644 791.137 335.392 794.125 334.96L794.449 338.164C787.753 339.352 780.229 339.496 774.721 339.532L774.289 335.968ZM779.005 351.448V341.8H783.505V347.848H801.433V351.448H779.005ZM795.925 343.888V319.732H800.425V329.668H804.349V333.34H800.425V343.888H795.925ZM828.542 319.696H833.006V352.096H828.542V319.696ZM807.914 326.068V322.468H823.106V334.888H812.486V340.864C817.418 340.828 821.594 340.612 826.238 339.82L826.67 343.384C821.414 344.356 816.626 344.536 810.794 344.536H807.986V331.36H818.534V326.068H807.914ZM837.651 334.276H866.883V337.516H837.651V334.276ZM840.963 342.268V339.28H863.391V346.804H845.427V348.748H864.291V351.772H840.999V343.996H858.999V342.268H840.963ZM841.251 323.332V320.344H863.319V327.868H845.715V329.668H863.895V332.692H841.287V325.06H858.891V323.332H841.251Z" fill="#606DE9"/>
<path d="M709.882 412.768H714.346V445.06H709.882V412.768ZM687.67 435.988C690.082 435.988 692.854 435.988 695.77 435.916V433.108C692.278 432.46 690.01 430.228 690.01 427.24C690.01 423.64 693.286 421.192 697.966 421.192C702.718 421.192 706.03 423.64 706.03 427.24C706.03 430.228 703.762 432.424 700.27 433.072V435.736C702.934 435.592 705.634 435.376 708.19 435.052L708.478 438.256C701.458 439.516 693.934 439.588 688.174 439.588L687.67 435.988ZM688.282 419.86V416.332H695.77V412.876H700.234V416.332H707.722V419.86H688.282ZM694.258 427.24C694.258 428.932 695.806 429.904 697.966 429.904C700.234 429.904 701.746 428.932 701.746 427.24C701.746 425.548 700.234 424.54 697.966 424.54C695.806 424.54 694.258 425.548 694.258 427.24ZM729.359 414.928C734.435 414.928 738.215 418.204 738.215 422.812C738.215 427.492 734.435 430.768 729.359 430.768C724.283 430.768 720.467 427.492 720.467 422.812C720.467 418.204 724.283 414.928 729.359 414.928ZM719.099 434.872C724.787 434.872 732.743 434.8 739.547 433.792L739.871 437.032C732.851 438.436 725.255 438.508 719.639 438.508L719.099 434.872ZM724.859 422.812C724.859 425.404 726.767 426.952 729.359 426.952C731.915 426.952 733.823 425.404 733.823 422.812C733.823 420.256 731.915 418.744 729.359 418.744C726.767 418.744 724.859 420.256 724.859 422.812ZM741.347 445.096V412.696H745.811V445.096H741.347ZM782.044 412.732H786.292V445.024H782.044V428.572H779.056V443.584H774.916V413.596H779.056V425.008H782.044V412.732ZM758.356 435.304C764.872 431.452 767.68 426.7 768.256 420.328H759.904V416.728H772.648C772.648 425.764 769.948 433.108 760.912 438.4L758.356 435.304ZM806.633 419.716H812.645V412.768H817.145V436.6H812.645V423.316H806.633V419.716ZM790.001 429.112C795.293 427.348 797.633 422.884 797.633 418.276V414.748H802.133V418.312C802.133 422.488 804.401 426.664 809.405 428.428L807.065 431.848C803.681 430.588 801.305 428.212 799.973 425.224C798.605 428.608 796.085 431.272 792.377 432.64L790.001 429.112ZM795.833 444.448V434.188H800.333V440.848H817.829V444.448H795.833ZM836.19 413.236C843.57 413.236 847.818 415.144 847.818 418.744C847.818 422.308 843.57 424.288 836.19 424.288C828.846 424.288 824.562 422.308 824.562 418.744C824.562 415.144 828.846 413.236 836.19 413.236ZM821.574 429.364V425.836H850.806V429.364H821.574ZM824.958 434.548V431.272H847.242V439.444H829.422V441.424H848.07V444.808H825.03V436.312H842.814V434.548H824.958ZM829.206 418.744C829.206 420.292 831.51 420.976 836.19 420.976C840.906 420.976 843.174 420.292 843.174 418.744C843.174 417.268 840.906 416.512 836.19 416.512C831.51 416.512 829.206 417.268 829.206 418.744Z" fill="#8B929E"/>
<path d="M667.573 526.824H679.921V521.856H670.993V511.056H689.065V507.42H670.921V503.856H693.493V514.548H675.421V518.292H694.249V521.856H684.349V526.824H696.805V530.424H667.573V526.824ZM702.494 504.432H724.85V508.032H706.922V516.708H725.102V520.272H702.494V504.432ZM699.038 530.1V526.464H728.27V530.1H699.038ZM753.723 501.768H757.971V519.3H753.723V512.172H751.059V519.084H746.883V502.38H751.059V508.572H753.723V501.768ZM731.655 517.932V503.892H744.399V517.932H731.655ZM735.831 514.476H740.223V507.348H735.831V514.476ZM736.155 533.664V520.668H740.583V523.656H753.615V520.668H757.971V533.664H736.155ZM740.583 530.064H753.615V527.148H740.583V530.064ZM786.752 506.592H792.764V501.768H797.264V518.184H792.764V510.156H786.752V506.592ZM770.084 514.908C775.376 513.288 777.716 509.292 777.716 505.188V502.812H782.216V505.188C782.216 509.04 784.52 512.748 789.524 514.332L787.22 517.788C783.8 516.672 781.424 514.476 780.02 511.704C778.652 514.8 776.096 517.212 772.352 518.4L770.084 514.908ZM775.988 523.008V519.552H797.264V528.156H780.452V530.172H798.2V533.664H776.06V524.916H792.836V523.008H775.988ZM814.041 518.364H818.649V513.864H814.617C813.177 519.228 809.901 523.728 803.853 527.328L801.333 524.196C807.813 520.272 810.621 515.556 811.233 509.184H803.133V505.584H815.625C815.625 507.24 815.517 508.824 815.337 510.336H818.649V502.452H822.825V532.548H818.649V521.928H814.041V518.364ZM825.273 534.024V501.732H829.521V534.024H825.273ZM833.194 516.276H862.426V519.516H833.194V516.276ZM836.506 524.268V521.28H858.934V528.804H840.97V530.748H859.834V533.772H836.542V525.996H854.542V524.268H836.506ZM836.794 505.332V502.344H858.862V509.868H841.258V511.668H859.438V514.692H836.83V507.06H854.434V505.332H836.794Z" fill="#8B929E"/>
<path d="M1163.68 330.832H1170.47V327.696H1164.04C1162.24 332.208 1158.08 335.408 1151.91 337.168L1150.56 334.416C1157.22 332.624 1160.74 329.2 1161.25 324.912H1152.1V322.128H1165.03C1165.03 323.12 1164.96 324.048 1164.8 324.944H1170.47V320.112H1173.92V336.784H1170.47V333.648H1163.68V330.832ZM1155.01 342.8C1155.01 339.248 1158.79 337.136 1164.58 337.136C1170.34 337.136 1174.08 339.248 1174.08 342.8C1174.08 346.288 1170.34 348.432 1164.58 348.432C1158.79 348.432 1155.01 346.288 1155.01 342.8ZM1158.44 342.8C1158.44 344.688 1160.77 345.744 1164.58 345.744C1168.36 345.744 1170.66 344.688 1170.66 342.8C1170.66 340.88 1168.36 339.824 1164.58 339.824C1160.77 339.824 1158.44 340.88 1158.44 342.8ZM1198.44 320.144H1201.89V337.328H1198.44V331.408H1194.37V328.56H1198.44V320.144ZM1178.31 325.552V322.8H1184.87V319.856H1188.33V322.8H1194.85V325.552H1178.31ZM1179.88 331.824C1179.88 328.816 1182.66 326.704 1186.6 326.704C1190.5 326.704 1193.28 328.816 1193.28 331.824C1193.28 334.832 1190.5 336.912 1186.6 336.912C1182.66 336.912 1179.88 334.832 1179.88 331.824ZM1183.14 348.24V338.64H1201.89V348.24H1183.14ZM1183.17 331.824C1183.17 333.392 1184.58 334.32 1186.6 334.32C1188.58 334.32 1189.99 333.392 1189.99 331.824C1189.99 330.256 1188.58 329.296 1186.6 329.296C1184.58 329.296 1183.17 330.256 1183.17 331.824ZM1186.53 345.488H1198.5V341.392H1186.53V345.488ZM1224.87 320.112H1228.29V331.472H1232.61V334.352H1228.29V348.624H1224.87V320.112ZM1206.02 327.248V324.464H1212.68V320.528H1216.2V324.464H1222.69V327.248H1206.02ZM1207.37 335.856C1207.37 331.92 1210.37 329.168 1214.44 329.168C1218.53 329.168 1221.54 331.92 1221.54 335.856C1221.54 339.792 1218.53 342.512 1214.44 342.512C1210.37 342.512 1207.37 339.792 1207.37 335.856ZM1210.66 335.856C1210.66 338.192 1212.26 339.696 1214.44 339.696C1216.65 339.696 1218.25 338.192 1218.25 335.856C1218.25 333.52 1216.65 332.016 1214.44 332.016C1212.26 332.016 1210.66 333.52 1210.66 335.856ZM1245.38 329.968H1249.41V320.656H1252.65V347.216H1249.41V332.784H1245.38V329.968ZM1233.73 340.144C1237.8 337.648 1239.65 332.592 1239.65 327.728V322.672H1243.01V327.568C1243.01 332.176 1244.58 336.976 1248.39 339.408L1246.5 342.096C1243.97 340.56 1242.31 337.872 1241.35 334.736C1240.33 338.192 1238.53 341.104 1235.85 342.736L1233.73 340.144ZM1255.21 348.592V320.08H1258.53V348.592H1255.21ZM1262.12 342.32H1268.07V335.056C1265.83 333.744 1264.46 331.728 1264.46 329.232C1264.46 324.656 1268.9 321.712 1274.98 321.712C1281.1 321.712 1285.51 324.656 1285.51 329.232C1285.51 331.728 1284.17 333.744 1281.93 335.056V342.32H1287.91V345.168H1262.12V342.32ZM1267.85 329.232C1267.85 332.176 1270.76 334 1274.98 334C1279.21 334 1282.09 332.176 1282.09 329.232C1282.09 326.256 1279.21 324.4 1274.98 324.4C1270.76 324.4 1267.85 326.256 1267.85 329.232ZM1271.5 342.32H1278.47V336.336C1277.38 336.56 1276.23 336.688 1274.98 336.688C1273.74 336.688 1272.58 336.56 1271.5 336.336V342.32Z" fill="#232326"/>
<defs>
<filter id="filter0_d_1389_24658" x="133" y="261" width="1270" height="146" filterUnits="userSpaceOnUse" color-interpolation-filters="sRGB">
<feFlood flood-opacity="0" result="BackgroundImageFix"/>
<feColorMatrix in="SourceAlpha" type="matrix" values="0 0 0 0 0 0 0 0 0 0 0 0 0 0 0 0 0 0 127 0" result="hardAlpha"/>
<feOffset/>
<feGaussianBlur stdDeviation="15"/>
<feComposite in2="hardAlpha" operator="out"/>
<feColorMatrix type="matrix" values="0 0 0 0 0.223529 0 0 0 0 0.223529 0 0 0 0 0.282353 0 0 0 0.3 0"/>
<feBlend mode="normal" in2="BackgroundImageFix" result="effect1_dropShadow_1389_24658"/>
<feBlend mode="normal" in="SourceGraphic" in2="effect1_dropShadow_1389_24658" result="shape"/>
</filter>
</defs>
</svg>
