<svg width="1536" height="580" viewBox="0 0 1536 580" fill="none" xmlns="http://www.w3.org/2000/svg">
<g clip-path="url(#clip0_1740_21663)">
<mask id="mask0_1740_21663" style="mask-type:luminance" maskUnits="userSpaceOnUse" x="0" y="0" width="1536" height="580">
<path d="M1536 0H0V580H1536V0Z" fill="white"/>
</mask>
<g mask="url(#mask0_1740_21663)">
<path d="M1536 0H0V580H1536V0Z" fill="white"/>
<path d="M1006.84 240.64H1011.16V250.92H1016.12V254.44H1011.16V266.28H1006.84V240.64ZM983.24 259.16C991.36 256.84 996.24 252.32 996.96 246.8H984.76V243.32H1001.6C1001.6 252.8 995.48 259.48 985.04 262.6L983.24 259.16ZM988.56 275.52V263.68H992.88V272.04H1012.56V275.52H988.56ZM1043.52 240.64H1047.84V266.96H1043.52V257.56H1038.52V254.08H1043.52V250.56H1038.52V247.08H1043.52V240.64ZM1018.32 258.68H1022.4V246.76H1019.28V243.28H1038V246.76H1034.88V258.2C1036.2 258.12 1037.52 258 1038.76 257.84L1038.96 261C1032.28 262.08 1024.44 262.24 1018.8 262.24L1018.32 258.68ZM1024.64 275.52V264.92H1028.96V272.04H1048.68V275.52H1024.64ZM1026.56 258.6C1027.96 258.56 1029.36 258.52 1030.76 258.44V246.76H1026.56V258.6ZM1076.8 240.68H1081.12V251.88H1086.04V255.44H1081.12V267.28H1076.8V240.68ZM1053.32 248V244.6H1061.68V240.64H1065.96V244.6H1074.28V248H1053.32ZM1055.2 256.36C1055.2 252.32 1058.72 249.6 1063.8 249.6C1068.92 249.6 1072.48 252.32 1072.48 256.36C1072.48 260.4 1068.92 263.12 1063.8 263.12C1058.72 263.12 1055.2 260.4 1055.2 256.36ZM1058.52 275.52V265.2H1062.8V272.04H1082.52V275.52H1058.52ZM1059.28 256.36C1059.28 258.52 1061.12 259.8 1063.8 259.8C1066.48 259.8 1068.32 258.52 1068.32 256.36C1068.32 254.16 1066.48 252.88 1063.8 252.88C1061.12 252.88 1059.28 254.16 1059.28 256.36ZM1122.5 240.64H1126.78V276.2H1122.5V240.64ZM1097.62 266.36C1100.42 266.36 1103.58 266.36 1106.9 266.28V262.92C1102.94 262.28 1100.38 259.84 1100.38 256.48C1100.38 252.48 1103.9 249.84 1109.06 249.84C1114.22 249.84 1117.82 252.48 1117.82 256.48C1117.82 259.88 1115.18 262.28 1111.22 262.92V266.12C1114.34 265.96 1117.5 265.72 1120.46 265.32L1120.78 268.44C1112.98 269.84 1104.54 269.92 1098.14 269.92L1097.62 266.36ZM1098.34 248.16V244.76H1106.9V240.72H1111.26V244.76H1119.82V248.16H1098.34ZM1104.42 256.48C1104.42 258.56 1106.34 259.84 1109.06 259.84C1111.82 259.84 1113.7 258.56 1113.7 256.48C1113.7 254.36 1111.82 253.08 1109.06 253.08C1106.34 253.08 1104.42 254.36 1104.42 256.48ZM1143.86 243.08C1149.42 243.08 1153.54 246.64 1153.54 251.68C1153.54 256.72 1149.42 260.28 1143.86 260.28C1138.26 260.28 1134.18 256.72 1134.18 251.68C1134.18 246.64 1138.26 243.08 1143.86 243.08ZM1132.58 265.28C1138.9 265.28 1147.74 265.24 1155.34 264.08L1155.66 267.2C1147.86 268.72 1139.34 268.8 1133.06 268.8L1132.58 265.28ZM1138.38 251.68C1138.38 254.68 1140.74 256.6 1143.86 256.6C1146.98 256.6 1149.34 254.68 1149.34 251.68C1149.34 248.68 1146.98 246.8 1143.86 246.8C1140.74 246.8 1138.38 248.68 1138.38 251.68ZM1157.46 276.28V240.6H1161.74V276.28H1157.46ZM1201.8 240.68H1206.12V267.76H1201.8V260.72H1196.56V257.32H1201.8V253.16H1196.56V249.72H1201.8V240.68ZM1176.64 248V244.6H1184.56V240.56H1188.88V244.6H1196.36V248H1176.64ZM1178.48 256.52C1178.48 252.36 1181.88 249.6 1186.68 249.6C1191.48 249.6 1194.92 252.36 1194.92 256.52C1194.92 260.56 1191.48 263.4 1186.68 263.4C1181.88 263.4 1178.48 260.56 1178.48 256.52ZM1182.52 256.52C1182.52 258.72 1184.24 260.08 1186.68 260.08C1189.16 260.08 1190.84 258.72 1190.84 256.52C1190.84 254.32 1189.16 252.92 1186.68 252.92C1184.24 252.92 1182.52 254.32 1182.52 256.52ZM1182.88 275.52V265.48H1187.2V272.04H1206.92V275.52H1182.88ZM1235.2 240.68H1239.48V251H1244.32V254.52H1239.48V264.68H1235.2V240.68ZM1211.24 260.2C1213.92 260.2 1216.96 260.2 1220.16 260.08V257.68C1216.24 257.24 1213.8 255.44 1213.8 252.72C1213.8 249.6 1217.12 247.68 1222.28 247.68C1227.44 247.68 1230.76 249.6 1230.76 252.72C1230.76 255.44 1228.36 257.2 1224.44 257.68V259.92C1227.48 259.8 1230.56 259.52 1233.4 259.16L1233.68 262.08C1226.24 263.4 1217.96 263.48 1211.76 263.48L1211.24 260.2ZM1212.12 246.56V243.4H1220.16V240.36H1224.44V243.4H1232.44V246.56H1212.12ZM1215.92 270.68C1215.92 267.04 1220.28 265.12 1227.8 265.12C1235.36 265.12 1239.72 267.04 1239.72 270.68C1239.72 274.24 1235.36 276.2 1227.8 276.2C1220.28 276.2 1215.92 274.24 1215.92 270.68ZM1217.88 252.72C1217.88 254.24 1219.52 255 1222.28 255C1225.04 255 1226.72 254.24 1226.72 252.72C1226.72 251.32 1225.04 250.48 1222.28 250.48C1219.52 250.48 1217.88 251.32 1217.88 252.72ZM1220.24 270.68C1220.24 272.24 1222.72 273.08 1227.8 273.08C1232.84 273.08 1235.4 272.24 1235.4 270.68C1235.4 269.04 1232.84 268.24 1227.8 268.24C1222.72 268.24 1220.24 269.04 1220.24 270.68ZM1257.5 243.28H1275.46V245.4C1275.46 247.8 1275.46 251.28 1274.58 255.84L1270.38 255.36C1271.1 251.68 1271.22 248.92 1271.26 246.76H1257.5V243.28ZM1255.34 258.72C1257.42 258.72 1259.78 258.72 1262.26 258.64V251.4H1266.54V258.52C1270.22 258.36 1273.98 258.08 1277.38 257.6L1277.66 260.68C1270.34 262 1261.94 262.16 1255.78 262.16L1255.34 258.72ZM1260.66 275.52V264.92H1264.94V272.04H1284.98V275.52H1260.66ZM1279.5 267.32V240.64H1283.82V251.8H1288.46V255.32H1283.82V267.32H1279.5ZM1315.78 240.6H1320.1V276.28H1315.78V240.6ZM1292.62 247.24V243.8H1309.26V257.08H1297.02V264.32C1302.62 264.28 1307.42 264 1312.94 263.08L1313.38 266.56C1307.34 267.64 1302.06 267.84 1295.74 267.84H1292.66V253.64H1304.9V247.24H1292.62Z" fill="black"/>
<path d="M982.888 338.728H1002.06V340.528H993.496V347.848H991.336V340.528H982.888V338.728ZM984.952 332.152C984.952 329.296 987.976 327.52 992.416 327.52C996.88 327.52 999.88 329.296 999.88 332.152C999.88 335.008 996.88 336.808 992.416 336.808C987.976 336.808 984.952 335.008 984.952 332.152ZM987.208 332.152C987.208 333.952 989.296 335.08 992.416 335.08C995.56 335.08 997.648 333.952 997.648 332.152C997.648 330.376 995.56 329.248 992.416 329.248C989.296 329.248 987.208 330.376 987.208 332.152ZM1019.08 326.632H1021.29V347.872H1019.08V326.632ZM1005.02 330.376V328.6H1014.86V336.304H1007.27V340.984C1010.68 340.96 1013.68 340.816 1017.21 340.24L1017.45 342.016C1013.7 342.664 1010.54 342.784 1006.84 342.784H1005.06V334.528H1012.65V330.376H1005.02ZM1026.04 327.928H1036.12V329.68H1028.23V332.08H1035.55V333.808H1028.23V336.328C1032.45 336.328 1034.92 336.208 1037.78 335.752L1038.02 337.48C1034.97 337.984 1032.38 338.056 1027.79 338.056H1026.04V327.928ZM1028.49 347.56V340.312H1042.24V347.56H1028.49ZM1030.63 345.808H1040.08V342.04H1030.63V345.808ZM1040.03 339.28V326.68H1042.24V339.28H1040.03ZM1066.47 326.68H1068.68V347.848H1066.47V326.68ZM1051.44 342.088C1053.17 342.088 1055.14 342.088 1057.2 342.04V339.856C1054.76 339.544 1053.17 338.104 1053.17 336.016C1053.17 333.64 1055.24 332.08 1058.28 332.08C1061.33 332.08 1063.42 333.64 1063.42 336.016C1063.42 338.08 1061.84 339.52 1059.41 339.856V341.944C1061.38 341.848 1063.35 341.704 1065.2 341.464L1065.34 343.072C1060.66 343.888 1055.6 343.912 1051.73 343.912L1051.44 342.088ZM1051.88 330.952V329.2H1057.2V326.704H1059.41V329.2H1064.72V330.952H1051.88ZM1055.24 336.016C1055.24 337.384 1056.51 338.248 1058.28 338.248C1060.11 338.248 1061.36 337.384 1061.36 336.016C1061.36 334.624 1060.11 333.76 1058.28 333.76C1056.51 333.76 1055.24 334.624 1055.24 336.016ZM1079.17 328.168C1082.45 328.168 1084.85 330.256 1084.85 333.208C1084.85 336.184 1082.45 338.248 1079.17 338.248C1075.83 338.248 1073.43 336.184 1073.43 333.208C1073.43 330.256 1075.83 328.168 1079.17 328.168ZM1072.42 341.488C1076.24 341.488 1081.57 341.464 1086.13 340.768L1086.29 342.376C1081.59 343.288 1076.45 343.312 1072.69 343.312L1072.42 341.488ZM1075.57 333.208C1075.57 335.08 1077.1 336.352 1079.17 336.352C1081.18 336.352 1082.72 335.08 1082.72 333.208C1082.72 331.312 1081.18 330.064 1079.17 330.064C1077.1 330.064 1075.57 331.312 1075.57 333.208ZM1087.45 347.872V326.632H1089.65V347.872H1087.45ZM1114.12 326.68H1116.31V342.808H1114.12V338.44H1110.69V336.688H1114.12V333.976H1110.69V332.2H1114.12V326.68ZM1098.86 330.904V329.152H1103.78V326.632H1105.96V329.152H1110.67V330.904H1098.86ZM1100.01 336.064C1100.01 333.616 1102 331.984 1104.83 331.984C1107.69 331.984 1109.68 333.616 1109.68 336.064C1109.68 338.464 1107.69 340.12 1104.83 340.12C1102 340.12 1100.01 338.464 1100.01 336.064ZM1102.07 336.064C1102.07 337.504 1103.2 338.416 1104.83 338.416C1106.49 338.416 1107.62 337.504 1107.62 336.064C1107.62 334.648 1106.49 333.688 1104.83 333.688C1103.2 333.688 1102.07 334.648 1102.07 336.064ZM1102.6 347.392V341.44H1104.79V345.592H1116.81V347.392H1102.6ZM1134.11 326.68H1136.3V332.968H1139.32V334.768H1136.3V341.008H1134.11V326.68ZM1119.67 338.44C1121.3 338.44 1123.22 338.44 1125.19 338.368V336.784C1122.79 336.544 1121.27 335.488 1121.27 333.832C1121.27 331.96 1123.24 330.856 1126.24 330.856C1129.27 330.856 1131.23 331.96 1131.23 333.832C1131.23 335.488 1129.75 336.52 1127.37 336.784V338.296C1129.27 338.2 1131.16 338.056 1132.94 337.792L1133.08 339.304C1128.62 340.12 1123.63 340.168 1119.95 340.168L1119.67 338.44ZM1120.19 330.04V328.432H1125.19V326.512H1127.37V328.432H1132.31V330.04H1120.19ZM1122.47 344.56C1122.47 342.424 1125.02 341.272 1129.46 341.272C1133.9 341.272 1136.47 342.424 1136.47 344.56C1136.47 346.672 1133.9 347.824 1129.46 347.824C1125.02 347.824 1122.47 346.672 1122.47 344.56ZM1123.36 333.832C1123.36 334.84 1124.47 335.392 1126.24 335.392C1128.07 335.392 1129.17 334.84 1129.17 333.832C1129.17 332.896 1128.07 332.296 1126.24 332.296C1124.47 332.296 1123.36 332.896 1123.36 333.832ZM1124.68 344.56C1124.68 345.616 1126.31 346.216 1129.46 346.216C1132.58 346.216 1134.23 345.616 1134.23 344.56C1134.23 343.456 1132.58 342.88 1129.46 342.88C1126.31 342.88 1124.68 343.456 1124.68 344.56ZM1150.34 327.04C1155.04 327.04 1157.85 328.312 1157.85 330.664C1157.85 333.04 1155.04 334.336 1150.34 334.336C1145.66 334.336 1142.85 333.04 1142.85 330.664C1142.85 328.312 1145.66 327.04 1150.34 327.04ZM1140.79 337.408V335.656H1159.91V337.408H1140.79ZM1143.07 340.72V339.064H1157.49V343.984H1145.27V345.928H1158.11V347.632H1143.14V342.424H1155.33V340.72H1143.07ZM1145.11 330.664C1145.11 331.984 1147 332.68 1150.34 332.68C1153.7 332.68 1155.59 331.984 1155.59 330.664C1155.59 329.368 1153.7 328.648 1150.34 328.648C1147 328.648 1145.11 329.368 1145.11 330.664ZM1181.57 326.68H1183.78V333.52H1186.83V335.344H1183.78V342.544H1181.57V326.68ZM1167.34 330.904V329.152H1172.5V326.68H1174.69V329.152H1179.85V330.904H1167.34ZM1168.49 335.968C1168.49 333.568 1170.58 331.984 1173.58 331.984C1176.61 331.984 1178.69 333.568 1178.69 335.968C1178.69 338.368 1176.61 339.928 1173.58 339.928C1170.58 339.928 1168.49 338.368 1168.49 335.968ZM1170.51 347.392V341.296H1172.67V345.592H1184.69V347.392H1170.51ZM1170.58 335.968C1170.58 337.36 1171.81 338.248 1173.58 338.248C1175.38 338.248 1176.58 337.36 1176.58 335.968C1176.58 334.552 1175.38 333.688 1173.58 333.688C1171.81 333.688 1170.58 334.552 1170.58 335.968ZM1190.86 327.424H1193.02V332.92H1205.26V334.672H1190.86V327.424ZM1188.29 338.776V337H1207.42V338.776H1199.09V342.976H1196.93V338.776H1188.29ZM1190.67 347.392V341.176H1192.85V345.616H1205.41V347.392H1190.67ZM1225.18 326.656H1227.27V347.824H1225.18V326.656ZM1209.49 335.8C1209.49 331.216 1211.26 328.36 1214 328.36C1216.54 328.36 1218.27 330.808 1218.51 334.792H1220.94V327.112H1223V346.792H1220.94V336.592H1218.51C1218.32 340.744 1216.59 343.264 1214 343.264C1211.26 343.264 1209.49 340.408 1209.49 335.8ZM1211.48 335.8C1211.48 339.208 1212.44 341.2 1214 341.2C1215.58 341.2 1216.54 339.208 1216.54 335.8C1216.54 332.416 1215.58 330.424 1214 330.424C1212.44 330.424 1211.48 332.416 1211.48 335.8ZM1236.02 328.888H1247.8V330.64H1245.62V340.576C1246.68 340.504 1247.71 340.408 1248.69 340.288L1248.81 341.896C1244.42 342.616 1239.45 342.688 1235.76 342.688L1235.52 340.864H1238.18V330.64H1236.02V328.888ZM1240.34 340.816C1241.37 340.792 1242.43 340.768 1243.48 340.72V330.64H1240.34V340.816ZM1249.89 347.848V326.68H1252.1V335.032H1255.46V336.856H1252.1V347.848H1249.89ZM1262.66 327.904C1265.85 327.904 1268.23 329.992 1268.23 332.968C1268.23 335.92 1265.85 338.008 1262.66 338.008C1259.44 338.008 1257.09 335.92 1257.09 332.968C1257.09 329.992 1259.44 327.904 1262.66 327.904ZM1259.2 332.968C1259.2 334.888 1260.67 336.16 1262.66 336.16C1264.63 336.16 1266.12 334.888 1266.12 332.968C1266.12 331.048 1264.63 329.776 1262.66 329.776C1260.67 329.776 1259.2 331.048 1259.2 332.968ZM1259.4 341.944V340.168H1273.22V347.848H1271.01V341.944H1259.4ZM1271.01 339.112V326.68H1273.22V332.008H1276.27V333.832H1273.22V339.112H1271.01ZM1291.89 326.68H1294.08V335.272H1297.44V337.096H1294.08V347.848H1291.89V326.68ZM1277.59 331.768V329.992H1282.77V326.944H1285V329.992H1290.07V331.768H1277.59ZM1278.72 338.296C1278.72 335.416 1280.92 333.4 1283.9 333.4C1286.92 333.4 1289.11 335.416 1289.11 338.296C1289.11 341.176 1286.92 343.192 1283.9 343.192C1280.92 343.192 1278.72 341.176 1278.72 338.296ZM1280.8 338.296C1280.8 340.144 1282.1 341.392 1283.9 341.392C1285.7 341.392 1287.02 340.144 1287.02 338.296C1287.02 336.472 1285.7 335.2 1283.9 335.2C1282.1 335.2 1280.8 336.472 1280.8 338.296ZM1300.7 328.696H1315.63V330.784C1315.63 333.4 1315.63 336.328 1314.86 340.648L1312.65 340.408C1313.44 336.304 1313.44 333.328 1313.44 330.784V330.496H1300.7V328.696ZM1298.68 344.968V343.144H1305.98V335.656H1308.16V343.144H1317.84V344.968H1298.68ZM983.824 367.656H991.36V364.944H993.544V367.656H1001.06V369.432H983.824V367.656ZM982.888 383.472V381.672H987.832V377.856C986.296 377.184 985.456 376.104 985.456 374.688C985.456 372.168 988.096 370.68 992.44 370.68C996.736 370.68 999.424 372.168 999.424 374.688C999.424 376.104 998.56 377.184 997.048 377.856V381.672H1002.06V383.472H982.888ZM987.664 374.688C987.664 376.128 989.44 376.944 992.44 376.944C995.44 376.944 997.192 376.128 997.192 374.688C997.192 373.224 995.44 372.384 992.44 372.384C989.44 372.384 987.664 373.224 987.664 374.688ZM989.992 381.672H994.888V378.456C994.144 378.576 993.328 378.648 992.44 378.648C991.552 378.648 990.736 378.576 989.992 378.456V381.672ZM1013.42 364.92C1018.12 364.92 1020.93 366.216 1020.93 368.544C1020.93 370.92 1018.12 372.216 1013.42 372.216C1008.74 372.216 1005.93 370.92 1005.93 368.544C1005.93 366.216 1008.74 364.92 1013.42 364.92ZM1003.86 375.144V373.392H1022.99V375.144H1017.83V377.064H1020.57V381.984H1008.35V383.928H1021.19V385.632H1006.22V380.424H1018.41V378.72H1006.14V377.064H1008.95V375.144H1003.86ZM1008.18 368.544C1008.18 369.864 1010.08 370.56 1013.42 370.56C1016.78 370.56 1018.67 369.864 1018.67 368.544C1018.67 367.272 1016.78 366.552 1013.42 366.552C1010.08 366.552 1008.18 367.272 1008.18 368.544ZM1011.11 377.064H1015.65V375.144H1011.11V377.064ZM1036.19 370.08H1040.11V364.68H1042.29V377.304H1040.11V371.88H1036.19V370.08ZM1024.84 375.288C1028.06 374.16 1030.1 371.376 1030.1 368.448V367.824H1025.51V366.048H1036.84V367.824H1032.31V368.448C1032.31 371.112 1034.23 373.728 1037.37 374.832L1036.27 376.56C1033.91 375.72 1032.16 374.016 1031.25 371.904C1030.34 374.256 1028.47 376.128 1025.97 377.016L1024.84 375.288ZM1028.11 380.208V378.408H1042.29V385.848H1040.11V380.208H1028.11ZM1055.37 365.928C1059.81 365.928 1063.12 368.28 1063.12 371.832C1063.12 375.384 1059.81 377.736 1055.37 377.736C1050.98 377.736 1047.64 375.384 1047.64 371.832C1047.64 368.28 1050.98 365.928 1055.37 365.928ZM1045.82 383.064V381.24H1064.99V383.064H1045.82ZM1049.75 371.832C1049.75 374.328 1052.15 375.936 1055.37 375.936C1058.63 375.936 1061.01 374.328 1061.01 371.832C1061.01 369.336 1058.63 367.704 1055.37 367.704C1052.15 367.704 1049.75 369.336 1049.75 371.832ZM1066.79 381.48H1075.27V377.688H1069.15V370.992H1081.48V367.944H1069.1V366.168H1083.67V372.72H1071.31V375.912H1084.15V377.688H1077.45V381.48H1085.97V383.28H1066.79V381.48ZM1094.41 366.288H1104.99V367.464C1104.99 368.856 1104.99 370.944 1104.44 373.704L1102.3 373.464C1102.78 371.112 1102.85 369.384 1102.85 368.064H1094.41V366.288ZM1093.13 375.552C1094.43 375.552 1095.89 375.552 1097.45 375.504V371.04H1099.61V375.432C1101.87 375.336 1104.22 375.168 1106.33 374.88L1106.48 376.464C1102.09 377.232 1097.07 377.328 1093.37 377.328L1093.13 375.552ZM1096.33 385.392V379.152H1098.51V383.592H1110.56V385.392H1096.33ZM1107.68 380.568V364.656H1109.89V371.472H1112.79V373.272H1109.89V380.568H1107.68ZM1129.49 364.632H1131.7V385.872H1129.49V364.632ZM1115.43 368.376V366.6H1125.27V374.304H1117.69V378.984C1121.09 378.96 1124.09 378.816 1127.62 378.24L1127.86 380.016C1124.12 380.664 1120.95 380.784 1117.25 380.784H1115.48V372.528H1123.06V368.376H1115.43ZM1149.44 364.68H1151.62V373.272H1154.98V375.096H1151.62V385.848H1149.44V364.68ZM1135.14 369.768V367.992H1140.32V364.944H1142.55V367.992H1147.62V369.768H1135.14ZM1136.26 376.296C1136.26 373.416 1138.47 371.4 1141.45 371.4C1144.47 371.4 1146.66 373.416 1146.66 376.296C1146.66 379.176 1144.47 381.192 1141.45 381.192C1138.47 381.192 1136.26 379.176 1136.26 376.296ZM1138.35 376.296C1138.35 378.144 1139.65 379.392 1141.45 379.392C1143.25 379.392 1144.57 378.144 1144.57 376.296C1144.57 374.472 1143.25 373.2 1141.45 373.2C1139.65 373.2 1138.35 374.472 1138.35 376.296ZM1157.05 366.672H1166.79V369.672H1171.54V364.632H1173.73V385.872H1171.54V377.256H1166.79V380.544H1157.05V366.672ZM1159.21 378.792H1164.63V368.424H1159.21V378.792ZM1166.79 375.456H1171.54V371.448H1166.79V375.456ZM983.248 406.304H987.904V403.064H990.088V406.304H994.672V408.032H990.088V409.448C990.088 412.784 992.056 416.216 995.152 417.728L993.952 419.408C991.672 418.28 989.92 416.048 989.032 413.432C988.12 416.264 986.272 418.616 983.872 419.792L982.648 418.112C985.84 416.6 987.928 413 987.928 409.448V408.032H983.248V406.304ZM997.024 423.848V402.68H999.232V411.272H1002.62V413.096H999.232V423.848H997.024ZM1006.31 403.928H1020.64V405.608C1020.64 407.408 1020.64 409.52 1020.11 412.304H1023.04V414.104H1003.86V412.304H1017.93C1018.48 409.52 1018.48 407.48 1018.48 405.68H1006.31V403.928ZM1006.36 423.392V416.336H1008.54V421.616H1021.24V423.392H1006.36ZM1025.2 406.304H1029.86V403.064H1032.04V406.304H1036.63V408.032H1032.04V409.448C1032.04 412.784 1034.01 416.216 1037.11 417.728L1035.91 419.408C1033.63 418.28 1031.87 416.048 1030.99 413.432C1030.07 416.264 1028.23 418.616 1025.83 419.792L1024.6 418.112C1027.79 416.6 1029.88 413 1029.88 409.448V408.032H1025.2V406.304ZM1038.98 423.848V402.68H1041.19V411.272H1044.57V413.096H1041.19V423.848H1038.98ZM1048.27 403.928H1062.59V405.608C1062.59 407.408 1062.59 409.52 1062.07 412.304H1064.99V414.104H1045.82V412.304H1059.88C1060.43 409.52 1060.43 407.48 1060.43 405.68H1048.27V403.928ZM1048.31 423.392V416.336H1050.5V421.616H1063.19V423.392H1048.31ZM1087.45 402.68H1089.65V423.848H1087.45V402.68ZM1072.42 418.088C1074.15 418.088 1076.12 418.088 1078.18 418.04V415.856C1075.73 415.544 1074.15 414.104 1074.15 412.016C1074.15 409.64 1076.21 408.08 1079.26 408.08C1082.31 408.08 1084.4 409.64 1084.4 412.016C1084.4 414.08 1082.81 415.52 1080.39 415.856V417.944C1082.36 417.848 1084.33 417.704 1086.17 417.464L1086.32 419.072C1081.64 419.888 1076.57 419.912 1072.71 419.912L1072.42 418.088ZM1072.85 406.952V405.2H1078.18V402.704H1080.39V405.2H1085.69V406.952H1072.85ZM1076.21 412.016C1076.21 413.384 1077.49 414.248 1079.26 414.248C1081.09 414.248 1082.33 413.384 1082.33 412.016C1082.33 410.624 1081.09 409.76 1079.26 409.76C1077.49 409.76 1076.21 410.624 1076.21 412.016ZM1100.14 404.168C1103.43 404.168 1105.83 406.256 1105.83 409.208C1105.83 412.184 1103.43 414.248 1100.14 414.248C1096.81 414.248 1094.41 412.184 1094.41 409.208C1094.41 406.256 1096.81 404.168 1100.14 404.168ZM1093.4 417.488C1097.21 417.488 1102.54 417.464 1107.1 416.768L1107.27 418.376C1102.57 419.288 1097.43 419.312 1093.66 419.312L1093.4 417.488ZM1096.54 409.208C1096.54 411.08 1098.08 412.352 1100.14 412.352C1102.16 412.352 1103.69 411.08 1103.69 409.208C1103.69 407.312 1102.16 406.064 1100.14 406.064C1098.08 406.064 1096.54 407.312 1096.54 409.208ZM1108.42 423.872V402.632H1110.63V423.872H1108.42ZM1122.23 403.568H1136.49V410.816H1130.44V413.312H1138.94V415.064H1119.81V413.312H1128.28V410.816H1122.23V403.568ZM1121.95 418.88V417.104H1136.59V423.848H1134.4V418.88H1121.95ZM1124.37 409.064H1134.33V405.296H1124.37V409.064ZM1140.79 419.528H1145.97V414.752H1142.49V413H1145.61V406.328H1142.44V404.552H1158.23V406.328H1155.04V413H1158.19V414.752H1154.68V419.528H1159.96V421.304H1140.79V419.528ZM1147.82 413H1152.86V406.328H1147.82V413ZM1148.15 419.528H1152.52V414.752H1148.15V419.528ZM1177.7 402.656H1179.79V423.824H1177.7V402.656ZM1162 411.8C1162 407.216 1163.78 404.36 1166.52 404.36C1169.06 404.36 1170.79 406.808 1171.03 410.792H1173.45V403.112H1175.52V422.792H1173.45V412.592H1171.03C1170.84 416.744 1169.11 419.264 1166.52 419.264C1163.78 419.264 1162 416.408 1162 411.8ZM1164 411.8C1164 415.208 1164.96 417.2 1166.52 417.2C1168.1 417.2 1169.06 415.208 1169.06 411.8C1169.06 408.416 1168.1 406.424 1166.52 406.424C1164.96 406.424 1164 408.416 1164 411.8ZM1189.18 403.856H1198.57V405.584H1191.37V410.816C1195.37 410.792 1197.75 410.648 1200.49 410.12L1200.73 411.848C1197.8 412.472 1195.23 412.568 1190.84 412.568H1189.18V403.856ZM1191.22 416.048V414.32H1204.78V419.672H1193.43V421.808H1205.5V423.56H1191.25V418.016H1202.62V416.048H1191.22ZM1202.57 413.288V402.656H1204.78V407H1207.81V408.824H1204.78V413.288H1202.57ZM1214.48 403.856H1216.66V405.848C1216.66 408.824 1218.58 411.464 1221.73 412.52L1220.55 414.248C1218.25 413.408 1216.54 411.752 1215.63 409.616C1214.72 412.04 1212.87 413.936 1210.33 414.872L1209.18 413.096C1212.49 411.944 1214.48 409.136 1214.48 405.944V403.856ZM1212.58 419.792C1212.58 417.248 1215.3 415.76 1219.71 415.76C1224.1 415.76 1226.79 417.248 1226.79 419.792C1226.79 422.36 1224.1 423.8 1219.71 423.8C1215.3 423.8 1212.58 422.36 1212.58 419.792ZM1214.79 419.792C1214.79 421.256 1216.59 422.096 1219.71 422.096C1222.78 422.096 1224.63 421.256 1224.63 419.792C1224.63 418.328 1222.78 417.488 1219.71 417.488C1216.59 417.488 1214.79 418.328 1214.79 419.792ZM1220.07 408.824V407H1224.51V402.68H1226.7V415.16H1224.51V408.824H1220.07ZM1230.18 406.184H1234.33V403.256H1236.49V406.184H1240.59V407.96H1230.18V406.184ZM1230.85 414.128C1230.85 411.296 1232.74 409.28 1235.41 409.28C1238.05 409.28 1239.97 411.296 1239.97 414.128C1239.97 417.032 1238.05 419.024 1235.41 419.024C1232.74 419.024 1230.85 417.032 1230.85 414.128ZM1232.79 414.128C1232.79 415.952 1233.87 417.176 1235.41 417.176C1236.92 417.176 1238.02 415.952 1238.02 414.128C1238.02 412.328 1236.92 411.104 1235.41 411.104C1233.87 411.104 1232.79 412.328 1232.79 414.128ZM1241.58 422.816V403.136H1243.64V411.512H1246.09V402.656H1248.18V423.824H1246.09V413.312H1243.64V422.816H1241.58ZM1251.2 419.36H1255.81V413.768C1254.08 412.832 1253.02 411.32 1253.02 409.424C1253.02 406.088 1256.29 403.928 1260.75 403.928C1265.29 403.928 1268.5 406.088 1268.5 409.424C1268.5 411.296 1267.5 412.784 1265.79 413.744V419.36H1270.38V421.16H1251.2V419.36ZM1255.16 409.424C1255.16 411.728 1257.49 413.192 1260.75 413.192C1264.04 413.192 1266.37 411.728 1266.37 409.424C1266.37 407.12 1264.04 405.656 1260.75 405.656C1257.49 405.656 1255.16 407.12 1255.16 409.424ZM1257.97 419.36H1263.58V414.584C1262.72 414.8 1261.76 414.896 1260.75 414.896C1259.77 414.896 1258.83 414.8 1257.97 414.584V419.36Z" fill="#6D7683"/>
<path d="M996.344 191.136H999.072V210.848H996.344V191.136ZM982.77 205.304C984.266 205.304 985.959 205.304 987.719 205.26V203.544C985.585 203.148 984.2 201.806 984.2 199.958C984.2 197.758 986.201 196.284 989.083 196.284C991.987 196.284 993.99 197.758 993.99 199.958C993.99 201.806 992.604 203.17 990.448 203.566V205.15C992.098 205.062 993.748 204.93 995.31 204.732L995.486 206.69C991.196 207.482 986.597 207.504 983.099 207.504L982.77 205.304ZM983.143 195.448V193.314H987.719V191.202H990.448V193.314H995.023V195.448H983.143ZM986.796 199.958C986.796 201.036 987.741 201.608 989.083 201.608C990.447 201.608 991.393 201.036 991.393 199.958C991.393 198.902 990.447 198.33 989.083 198.33C987.741 198.33 986.796 198.902 986.796 199.958ZM1008.25 192.434C1011.33 192.434 1013.64 194.458 1013.64 197.274C1013.64 200.112 1011.33 202.114 1008.25 202.114C1005.14 202.114 1002.81 200.112 1002.81 197.274C1002.81 194.458 1005.14 192.434 1008.25 192.434ZM1001.98 204.622C1005.45 204.622 1010.31 204.6 1014.47 203.984L1014.67 205.964C1010.38 206.8 1005.72 206.844 1002.31 206.844L1001.98 204.622ZM1005.47 197.274C1005.47 198.836 1006.66 199.782 1008.25 199.782C1009.79 199.782 1010.97 198.836 1010.97 197.274C1010.97 195.69 1009.79 194.766 1008.25 194.766C1006.66 194.766 1005.47 195.69 1005.47 197.274ZM1015.57 210.87V191.092H1018.3V210.87H1015.57ZM1027.11 192.566H1037.19V193.776C1037.19 195.14 1037.19 197.098 1036.7 199.584L1034.06 199.276C1034.42 197.406 1034.48 195.932 1034.5 194.744H1027.11V192.566ZM1025.95 201.014C1027.05 201.014 1028.28 201.014 1029.6 200.992V197.142H1032.28V200.904C1034.24 200.816 1036.24 200.662 1038.09 200.398L1038.27 202.334C1034.2 203.082 1029.6 203.17 1026.21 203.192L1025.95 201.014ZM1028.83 210.474V204.578H1031.56V208.296H1042.53V210.474H1028.83ZM1039.19 205.876V191.114H1041.92V197.186H1044.32V199.408H1041.92V205.876H1039.19ZM1059.1 191.092H1061.83V210.87H1059.1V191.092ZM1046.47 194.986V192.808H1055.76V200.376H1049.27V204.028C1052.28 204.006 1054.83 203.874 1057.67 203.39L1057.96 205.568C1054.72 206.14 1051.8 206.25 1048.23 206.25H1046.52V198.198H1052.98V194.986H1046.47Z" fill="#5257D6"/>
</g>
<g filter="url(#filter0_d_1740_21663)">
<path d="M153 185.611C153 178.646 158.646 173 165.612 173H705.388C712.354 173 718 178.646 718 185.611V387.389C718 394.354 712.354 400 705.388 400H165.612C158.646 400 153 394.354 153 387.389V185.611Z" fill="white"/>
</g>
<path d="M528.387 198.11H529.814V204.803H528.387V201.99H527.167V204.72H525.754V198.332H527.167V200.785H528.387V198.11ZM519.837 204.249V198.942H524.659V204.249H519.837ZM521.236 203.071H523.26V200.106H521.236V203.071ZM521.555 210.277V205.344H523.038V206.605H528.345V205.344H529.814V210.277H521.555ZM523.038 209.071H528.345V207.768H523.038V209.071Z" fill="#232326"/>
<path d="M508.584 199.163H517.065V200.382H510.067V203.874H517.176V205.08H508.584V199.163ZM507.24 208.863V207.643H518.409V208.863H507.24Z" fill="#232326"/>
<path d="M495.13 207.782H499.952V205.745H496.46V201.713H503.499V200.147H496.446V198.941H504.996V202.891H497.943V204.54H505.273V205.745H501.435V207.782H506.298V209.001H495.13V207.782Z" fill="#232326"/>
<path d="M481.197 199.067H489.65V200.273H482.707V201.783H489.386V202.975H482.707V204.569H489.76V205.76H481.197V199.067ZM479.825 208.961V207.728H490.994V208.961H479.825Z" fill="#232326"/>
<path d="M472.814 201.2H474.352V198.345H475.751V205.537H474.352V202.405H472.814V201.2ZM467.659 204.29C469.267 203.625 470.056 202.128 470.056 200.728V200.243H467.992V199.024H473.437V200.243H471.497V200.715C471.497 202.059 472.232 203.417 473.784 204.04L473.036 205.204C471.955 204.761 471.22 203.971 470.791 203.001C470.361 204.068 469.571 204.969 468.421 205.44L467.659 204.29ZM469.793 207.31V206.105H478.176V210.442H476.694V207.31H469.793ZM476.749 205.606V198.096H478.176V205.606H476.749Z" fill="#232326"/>
<path d="M455.604 207.782H460.426V205.745H456.934V201.713H463.973V200.147H456.92V198.941H465.469V202.891H458.416V204.54H465.747V205.745H461.908V207.782H466.772V209.001H455.604V207.782Z" fill="#232326"/>
<path d="M443.491 207.714H454.66V208.933H443.491V207.714ZM444.406 200.439V199.233H453.69V200.439H451.902V204.388H453.662V205.594H444.447V204.388H446.179V200.439H444.406ZM447.676 204.388H450.406V200.439H447.676V204.388Z" fill="#232326"/>
<path d="M428.591 198.623H430.087V200.217H432.942V198.623H434.438V204.013H428.591V198.623ZM429.824 206.078V204.914H437.819V208.129H431.321V209.14H438.207V210.318H429.852V207.034H436.337V206.078H429.824ZM430.087 202.835H432.942V201.353H430.087V202.835ZM436.323 204.401V198.11H437.819V200.577H439.524V201.81H437.819V204.401H436.323Z" fill="#232326"/>
<path d="M425.166 198.084H426.593V210.43H425.166V204.084H423.836V209.862H422.422V198.417H423.836V202.878H425.166V198.084ZM416.007 206.8C418.598 205.289 419.707 203.336 419.914 200.855H416.561V199.65H421.383C421.383 202.989 420.344 205.844 416.866 207.853L416.007 206.8Z" fill="#232326"/>
<path d="M408.658 203.487H414.7V204.915H408.658V203.487Z" fill="#232326"/>
<path d="M404.791 198.11H406.288V207.02H404.791V198.11ZM396.353 202.004C396.353 200.203 397.78 198.914 399.637 198.914C401.507 198.914 402.934 200.203 402.934 202.004C402.934 203.805 401.507 205.094 399.637 205.094C397.78 205.094 396.353 203.805 396.353 202.004ZM397.807 202.004C397.807 203.099 398.597 203.792 399.637 203.792C400.69 203.792 401.466 203.099 401.466 202.004C401.466 200.909 400.69 200.217 399.637 200.217C398.597 200.217 397.807 200.909 397.807 202.004ZM398.223 210.193V206.12H399.72V208.974H406.648V210.193H398.223Z" fill="#232326"/>
<path d="M384.227 199.315H390.933V200.548H388.384V201.615C388.384 203.514 389.52 205.703 391.446 206.604L390.601 207.782C389.229 207.13 388.204 205.8 387.649 204.248C387.095 205.939 386.028 207.394 384.615 208.1L383.77 206.909C385.682 205.98 386.887 203.666 386.887 201.615V200.548H384.227V199.315ZM392.084 210.442V198.096H393.58V202.918H395.451V204.165H393.58V210.442H392.084Z" fill="#232326"/>
<path d="M380.555 198.084H382.051V210.458H380.555V198.084ZM372.656 207.451V199.22H378.559V200.453H374.153V206.218C376.425 206.204 377.866 206.135 379.46 205.816L379.612 207.063C377.853 207.396 376.273 207.451 373.696 207.451H372.656Z" fill="#232326"/>
<path d="M364.476 203.487H370.517V204.915H364.476V203.487Z" fill="#232326"/>
<path d="M352.394 199.081H355.248V198H356.745V199.081H359.613V200.189H352.394V199.081ZM352.02 204.956C352.99 204.956 354.098 204.956 355.248 204.928V204.194C353.876 204.014 352.99 203.349 352.99 202.406C352.99 201.27 354.195 200.55 355.983 200.55C357.812 200.55 358.989 201.27 358.989 202.406C358.989 203.349 358.13 204.014 356.745 204.194V204.859C357.784 204.818 358.837 204.734 359.807 204.596L359.918 205.635C357.285 206.065 354.389 206.106 352.2 206.106L352.02 204.956ZM353.738 208.102V206.938H362.135V210.443H360.652V208.102H353.738ZM354.431 202.406C354.431 202.919 355.04 203.224 355.983 203.224C356.953 203.224 357.576 202.919 357.576 202.406C357.576 201.852 356.953 201.561 355.983 201.561C355.04 201.561 354.431 201.852 354.431 202.406ZM360.652 206.425V198.111H362.135V206.425H360.652Z" fill="#232326"/>
<path d="M348.54 198.084H350.036V210.43H348.54V198.084ZM339.921 207.063C343.122 205.525 344.618 203.419 344.882 200.592H340.544V199.387H346.392C346.392 203.072 344.979 206.176 340.711 208.255L339.921 207.063Z" fill="#232326"/>
<path d="M237.14 270.716H243.288V271.593H238.239V272.691H243.096V273.558H238.239V274.717H243.368V275.583H237.14V270.716ZM236.143 277.911V277.014H244.265V277.911H236.143Z" fill="black"/>
<path d="M233.644 270.02H234.733V276.61H233.644V270.02ZM227.789 271.501V270.624H231.881V273.375H228.867V274.544C230.49 274.534 231.558 274.484 232.767 274.262L232.888 275.139C231.558 275.381 230.399 275.431 228.555 275.431H227.799V272.559H230.812V271.501H227.789ZM228.807 278.807V276.086H229.895V277.92H234.964V278.807H228.807Z" fill="black"/>
<path d="M218.526 277.003H226.649V277.89H218.526V277.003ZM219.191 271.713V270.836H225.943V271.713H224.643V274.585H225.923V275.462H219.222V274.585H220.481V271.713H219.191ZM221.57 274.585H223.555V271.713H221.57V274.585Z" fill="black"/>
<path d="M213.154 270.574H214.313V271.239C214.313 272.65 215.674 274.021 217.508 274.343L217.034 275.25C215.543 274.938 214.313 274.031 213.729 272.832C213.154 274.031 211.935 274.948 210.453 275.25L209.98 274.343C211.804 274.021 213.154 272.62 213.154 271.239V270.574ZM209.718 277.84V276.943H217.84V277.84H209.718Z" fill="black"/>
<path d="M207.218 270.02H208.307V276.499H207.218V270.02ZM201.081 272.851C201.081 271.541 202.119 270.604 203.469 270.604C204.83 270.604 205.868 271.541 205.868 272.851C205.868 274.161 204.83 275.099 203.469 275.099C202.119 275.099 201.081 274.161 201.081 272.851ZM202.139 272.851C202.139 273.647 202.714 274.151 203.469 274.151C204.235 274.151 204.8 273.647 204.8 272.851C204.8 272.055 204.235 271.551 203.469 271.551C202.714 271.551 202.139 272.055 202.139 272.851ZM202.442 278.807V275.844H203.53V277.92H208.569V278.807H202.442Z" fill="black"/>
<path d="M192.263 270.897H197.141V271.794H195.287V272.569C195.287 273.95 196.113 275.542 197.514 276.197L196.899 277.054C195.901 276.58 195.156 275.613 194.752 274.484C194.349 275.714 193.573 276.772 192.545 277.286L191.931 276.419C193.321 275.744 194.198 274.061 194.198 272.569V271.794H192.263V270.897ZM197.977 278.989V270.01H199.066V273.517H200.426V274.424H199.066V278.989H197.977Z" fill="black"/>
<path d="M189.593 270H190.681V278.999H189.593V270ZM183.849 276.812V270.826H188.142V271.723H184.937V275.916C186.59 275.905 187.638 275.855 188.797 275.623L188.908 276.53C187.628 276.772 186.479 276.812 184.604 276.812H183.849Z" fill="black"/>
<path d="M353.887 270.01H354.976V273.718H356.225V274.625H354.976V278.989H353.887V270.01ZM347.841 276.5C348.516 276.5 349.302 276.5 350.118 276.48V275.633C349.151 275.462 348.506 274.857 348.506 274.001C348.506 272.993 349.403 272.328 350.663 272.328C351.932 272.328 352.819 272.993 352.819 274.001C352.819 274.857 352.174 275.462 351.207 275.633V276.439C351.952 276.399 352.688 276.349 353.384 276.248L353.474 277.034C351.57 277.377 349.514 277.387 347.982 277.387L347.841 276.5ZM348.002 271.894V271.038H350.118V270.04H351.207V271.038H353.313V271.894H348.002ZM349.534 274.001C349.534 274.525 349.977 274.847 350.663 274.847C351.338 274.847 351.791 274.525 351.791 274.001C351.791 273.476 351.338 273.154 350.663 273.154C349.977 273.154 349.534 273.476 349.534 274.001Z" fill="black"/>
<path d="M342.802 273.467H343.961V270.181H344.979V278.546H343.961V274.354H342.802V273.467ZM339.013 276.409C340.262 275.674 340.827 274.172 340.827 272.751V272.459H339.305V271.582H340.827V270.322H341.855V271.582H343.356V272.459H341.855V272.751C341.855 274.132 342.429 275.543 343.658 276.218L343.064 277.014C342.238 276.571 341.673 275.785 341.351 274.837C341.038 275.855 340.484 276.742 339.638 277.236L339.013 276.409ZM345.765 278.979V270H346.803V278.979H345.765Z" fill="black"/>
<path d="M331.304 270.555H337.431V271.341C337.431 272.197 337.431 273.124 337.199 274.394H338.439V275.271H334.891V278.98H333.793V275.271H330.326V274.394H336.111C336.353 273.175 336.363 272.248 336.363 271.421H331.304V270.555Z" fill="black"/>
<path d="M323.957 270.665C325.156 270.665 326.063 271.683 326.215 273.326H327.898V270H328.986V278.999H327.898V274.202H326.225C326.104 275.926 325.187 277.004 323.957 277.004C322.627 277.004 321.68 275.764 321.68 273.819C321.68 271.885 322.627 270.665 323.957 270.665ZM322.708 273.819C322.708 275.22 323.211 276.016 323.957 276.016C324.693 276.016 325.187 275.22 325.187 273.819C325.187 272.449 324.693 271.643 323.957 271.643C323.211 271.643 322.708 272.449 322.708 273.819Z" fill="black"/>
<path d="M319.008 270H320.096V278.999H319.008V270ZM313.264 276.812V270.826H317.557V271.723H314.352V275.916C316.005 275.905 317.053 275.855 318.212 275.623L318.323 276.53C317.043 276.772 315.894 276.812 314.019 276.812H313.264Z" fill="black"/>
<path d="M310.201 270H311.299V278.999H310.201V270ZM304.194 273.819C304.194 271.885 305.172 270.665 306.512 270.665C307.853 270.665 308.84 271.885 308.84 273.819C308.84 275.764 307.853 277.004 306.512 277.004C305.172 277.004 304.194 275.764 304.194 273.819ZM305.242 273.819C305.242 275.22 305.766 276.016 306.512 276.016C307.278 276.016 307.792 275.22 307.792 273.819C307.792 272.449 307.278 271.643 306.512 271.643C305.766 271.643 305.242 272.449 305.242 273.819Z" fill="black"/>
<path d="M297.482 270.665C298.822 270.665 299.79 271.884 299.79 273.819C299.79 275.764 298.822 277.004 297.482 277.004C296.142 277.004 295.164 275.764 295.164 273.819C295.164 271.884 296.142 270.665 297.482 270.665ZM296.222 273.819C296.222 275.22 296.736 276.016 297.482 276.016C298.238 276.016 298.742 275.22 298.742 273.819C298.742 272.449 298.238 271.642 297.482 271.642C296.736 271.642 296.222 272.449 296.222 273.819ZM300.959 278.989V270.01H302.057V273.476H303.418V274.383H302.057V278.989H300.959Z" fill="black"/>
<path d="M456.14 274.666H457.541V273.305H456.291C455.878 274.807 454.951 276.087 453.278 277.085L452.663 276.319C454.497 275.21 455.344 273.789 455.505 271.975H453.117V271.098H456.573C456.573 271.562 456.543 272.005 456.483 272.439H457.541V270.212H458.569V278.546H457.541V275.553H456.14V274.666ZM459.365 278.979V270H460.413V278.979H459.365Z" fill="black"/>
<path d="M448.509 271.451H450.273V270.02H451.371V274.595H450.273V272.337H448.509V271.451ZM443.884 273.799C445.315 273.335 446.05 272.227 446.05 271.027V270.302H447.129V271.027C447.129 272.126 447.864 273.184 449.225 273.607L448.661 274.454C447.693 274.131 446.998 273.486 446.615 272.67C446.232 273.587 445.496 274.303 444.448 274.645L443.884 273.799ZM445.506 275.854V274.998H451.371V277.306H446.605V278.011H451.654V278.868H445.526V276.51H450.283V275.854H445.506Z" fill="black"/>
<path d="M436.221 270.574H437.38V271.239C437.38 272.65 438.74 274.021 440.574 274.343L440.101 275.25C438.609 274.938 437.38 274.031 436.795 272.832C436.221 274.031 435.001 274.948 433.52 275.25L433.046 274.343C434.87 274.021 436.221 272.62 436.221 271.239V270.574ZM432.784 277.84V276.943H440.907V277.84H432.784Z" fill="black"/>
<path d="M430.274 270H431.362V278.999H430.274V270ZM424.449 276.873V270.736H425.528V273.003H427.694V270.736H428.783V276.873H424.449ZM425.528 275.986H427.694V273.85H425.528V275.986Z" fill="black"/>
<path d="M419.683 272.923H421.547V270H422.635V278.999H421.547V273.799H419.683V272.923ZM415.107 276.258C416.538 275.573 417.355 273.85 417.355 272.167V270.726H418.443V272.167C418.443 273.829 419.249 275.472 420.66 276.107L420.005 276.984C419.007 276.48 418.302 275.523 417.919 274.354C417.526 275.593 416.8 276.611 415.783 277.135L415.107 276.258Z" fill="black"/>
<path d="M550.754 270.392H551.842V271.551H553.918V270.392H555.007V274.313H550.754V270.392ZM551.651 275.814V274.968H557.466V277.306H552.739V278.041H557.748V278.898H551.671V276.51H556.387V275.814H551.651ZM551.842 273.456H553.918V272.378H551.842V273.456ZM556.377 274.595V270.02H557.466V271.813H558.705V272.71H557.466V274.595H556.377Z" fill="black"/>
<path d="M548.266 270H549.304V278.979H548.266V274.364H547.298V278.566H546.27V270.242H547.298V273.487H548.266V270ZM541.604 276.339C543.489 275.24 544.295 273.819 544.446 272.016H542.008V271.139H545.515C545.515 273.567 544.759 275.643 542.229 277.105L541.604 276.339Z" fill="black"/>
<path d="M683.269 270H684.358V278.999H683.269V270ZM677.444 271.683V270.796H681.627V274.162H678.563V275.976C679.964 275.966 681.183 275.905 682.564 275.664L682.675 276.55C681.163 276.812 679.823 276.873 678.22 276.873H677.454V273.285H680.528V271.683H677.444Z" fill="black"/>
<path d="M668.143 275.098H676.265V275.975H672.708V278.968H671.629V275.975H668.143V275.098ZM669.12 274.03V270.473H675.257V274.03H669.12ZM670.188 273.173H674.189V271.329H670.188V273.173Z" fill="black"/>
<path d="M659.627 270.876H663.849V276.752H659.627V270.876ZM660.705 275.895H662.771V271.743H660.705V275.895ZM665.2 278.989V270.01H666.298V273.476H667.659V274.383H666.298V278.989H665.2Z" fill="black"/>
<path d="M651.701 273.214H652.779V274.383H656.307V275.24H648.204V274.383H651.701V273.214ZM648.597 272.831C650.24 272.68 651.318 272.015 651.499 271.269H648.95V270.402H655.581V271.269H653.021C653.193 272.015 654.261 272.68 655.913 272.831L655.541 273.688C653.928 273.526 652.739 272.892 652.255 271.985C651.772 272.892 650.582 273.526 648.97 273.688L648.597 272.831ZM649.151 277.406C649.151 276.399 650.3 275.834 652.245 275.834C654.18 275.834 655.339 276.399 655.339 277.406C655.339 278.404 654.18 278.968 652.245 278.968C650.3 278.968 649.151 278.404 649.151 277.406ZM650.25 277.406C650.25 277.89 650.945 278.142 652.245 278.142C653.525 278.142 654.231 277.89 654.231 277.406C654.231 276.912 653.525 276.661 652.245 276.661C650.945 276.661 650.25 276.912 650.25 277.406Z" fill="black"/>
<path d="M641.815 274.817H642.903V276.278C643.679 276.228 644.455 276.157 645.191 276.047L645.271 276.853C643.306 277.236 641.149 277.236 639.577 277.246L639.446 276.349C640.142 276.349 640.958 276.349 641.815 276.319V274.817ZM639.678 274.273C640.998 273.9 641.744 273.003 641.815 271.985H639.92V271.119H641.815V270.091H642.903V271.119H644.828V271.985H642.913C642.984 272.953 643.739 273.829 645.07 274.182L644.576 275.019C643.528 274.736 642.772 274.112 642.369 273.305C641.976 274.152 641.23 274.807 640.172 275.119L639.678 274.273ZM645.725 278.999V270H646.813V278.999H645.725Z" fill="black"/>
<path fill-rule="evenodd" clip-rule="evenodd" d="M661.741 251.367H215.444V249.53H661.741V251.367Z" fill="#A8ABEB"/>
<path d="M231.056 250.907C231.056 260.797 223.244 268.814 213.608 268.814C203.972 268.814 196.16 260.797 196.16 250.907C196.16 241.017 203.972 233 213.608 233C223.244 233 231.056 241.017 231.056 250.907Z" fill="white"/>
<path d="M343.089 251.366C343.089 261.509 335.277 269.732 325.641 269.732C316.005 269.732 308.193 261.509 308.193 251.366C308.193 241.223 316.005 233 325.641 233C335.277 233 343.089 241.223 343.089 251.366Z" fill="white"/>
<path d="M456.041 250.907C456.041 260.797 448.023 268.814 438.134 268.814C428.244 268.814 420.227 260.797 420.227 250.907C420.227 241.017 428.244 233 438.134 233C448.023 233 456.041 241.017 456.041 250.907Z" fill="white"/>
<path d="M568.075 251.366C568.075 261.509 560.057 269.732 550.168 269.732C540.278 269.732 532.261 261.509 532.261 251.366C532.261 241.223 540.278 233 550.168 233C560.057 233 568.075 241.223 568.075 251.366Z" fill="white"/>
<path d="M680.108 251.366C680.108 261.509 671.885 269.732 661.742 269.732C651.599 269.732 643.376 261.509 643.376 251.366C643.376 241.223 651.599 233 661.742 233C671.885 233 680.108 241.223 680.108 251.366Z" fill="white"/>
<path d="M221.872 250.907C221.872 255.725 218.172 259.63 213.608 259.63C209.043 259.63 205.343 255.725 205.343 250.907C205.343 246.088 209.043 242.183 213.608 242.183C218.172 242.183 221.872 246.088 221.872 250.907Z" fill="#5257D6"/>
<path d="M333.905 250.907C333.905 255.725 330.205 259.63 325.641 259.63C321.076 259.63 317.376 255.725 317.376 250.907C317.376 246.088 321.076 242.183 325.641 242.183C330.205 242.183 333.905 246.088 333.905 250.907Z" fill="#5257D6"/>
<path d="M445.94 250.907C445.94 255.725 442.239 259.63 437.675 259.63C433.11 259.63 429.41 255.725 429.41 250.907C429.41 246.088 433.11 242.183 437.675 242.183C442.239 242.183 445.94 246.088 445.94 250.907Z" fill="#5257D6"/>
<path d="M670.924 250.907C670.924 255.725 667.019 259.63 662.2 259.63C657.382 259.63 653.477 255.725 653.477 250.907C653.477 246.088 657.382 242.183 662.2 242.183C667.019 242.183 670.924 246.088 670.924 250.907Z" fill="#5257D6"/>
<path d="M558.891 250.907C558.891 255.725 554.985 259.63 550.167 259.63C545.349 259.63 541.443 255.725 541.443 250.907C541.443 246.088 545.349 242.183 550.167 242.183C554.985 242.183 558.891 246.088 558.891 250.907Z" fill="#5257D6"/>
<path d="M214.525 247.692V254.121H213.251V248.841L212.184 249.135L211.771 248.129L213.251 247.692H214.525Z" fill="white"/>
<path d="M323.112 253.045H323.124C324.768 251.79 326.922 250.857 326.922 249.79C326.922 249.136 326.298 248.768 325.595 248.768C325.108 248.768 324.507 248.912 324.133 249.566L322.886 249.118C323.532 247.979 324.858 247.692 325.595 247.692C326.865 247.692 328.282 248.544 328.282 249.79C328.282 251.117 326.65 252.121 325.21 253.045H328.396V254.121H323.112V253.045Z" fill="white"/>
<path d="M439.373 250.792C439.947 251.117 440.429 251.644 440.429 252.285C440.429 253.348 439.518 254.121 438.125 254.121C436.74 254.121 435.838 253.348 435.838 252.206H436.913C436.913 252.672 437.277 253.146 438.125 253.146C438.981 253.146 439.418 252.68 439.418 252.206C439.418 251.732 439.063 251.267 438.143 251.267H437.678V250.336H438.161C438.917 250.336 439.318 249.914 439.318 249.484C439.318 249.08 438.935 248.667 438.188 248.667C437.432 248.667 437.113 249.071 437.113 249.493H436.038C436.038 248.421 436.913 247.692 438.188 247.692C439.446 247.692 440.32 248.421 440.32 249.414C440.32 249.993 439.901 250.485 439.373 250.792Z" fill="white"/>
<path d="M551.531 247.692V251.69H552.462V252.705H551.531V254.121H550.371V252.705H546.952V251.734L550.371 247.692H551.531ZM548.353 251.69H550.371V249.304L548.353 251.69Z" fill="white"/>
<path d="M662.319 249.932C663.605 249.932 664.496 250.867 664.496 252.04C664.496 253.212 663.513 254.121 662.209 254.121C661.401 254.121 660.501 253.75 660.051 253.133C660.024 253.089 659.95 253.009 659.904 252.93L660.859 252.463L660.942 252.577C661.19 252.868 661.704 253.098 662.209 253.098C662.953 253.098 663.458 252.622 663.458 252.04C663.458 251.422 662.944 250.955 662.209 250.955C661.796 250.955 661.337 251.078 661.071 251.316L660.299 250.902L660.382 247.692H664.11V248.698H661.374L661.328 250.161C661.649 250.003 661.925 249.932 662.319 249.932Z" fill="white"/>
<rect x="173" y="302" width="78" height="20" rx="10" fill="#EBEEF9"/>
<path d="M198.73 312.675H202.2V311.865C200.59 311.745 199.57 311.095 199.57 310.085C199.57 308.965 200.83 308.275 202.75 308.275C204.67 308.275 205.93 308.965 205.93 310.085C205.93 311.105 204.89 311.755 203.27 311.865V312.675H206.76V313.535H198.73V312.675ZM199.73 316.755V314.185H200.81V315.885H205.87V316.755H199.73ZM200.68 310.085C200.68 310.695 201.47 311.035 202.75 311.035C204.04 311.035 204.82 310.695 204.82 310.085C204.82 309.475 204.04 309.145 202.75 309.145C201.47 309.145 200.68 309.475 200.68 310.085ZM207.47 314.965H210.95V313.205H208.37V308.625H209.43V310.085H213.55V308.625H214.61V313.205H212.02V314.965H215.52V315.845H207.47V314.965ZM209.43 312.355H213.55V310.935H209.43V312.355ZM222.47 308.035H223.55V313.405H222.47V308.035ZM216.73 312.735V308.715H220.93V309.575H217.79V311.875C219.54 311.865 220.56 311.815 221.7 311.575L221.8 312.445C220.58 312.685 219.46 312.735 217.48 312.735H216.73ZM217.55 315.195C217.55 314.105 218.71 313.465 220.57 313.465C222.43 313.465 223.59 314.105 223.59 315.195C223.59 316.295 222.43 316.925 220.57 316.925C218.71 316.925 217.55 316.295 217.55 315.195ZM218.64 315.195C218.64 315.775 219.33 316.095 220.57 316.095C221.81 316.095 222.51 315.775 222.51 315.195C222.51 314.615 221.81 314.305 220.57 314.305C219.33 314.305 218.64 314.615 218.64 315.195Z" fill="#495565"/>
<rect x="285" y="302" width="79" height="20" rx="10" fill="#EBEEF9"/>
<path d="M299.847 308.675C301.177 308.675 302.137 309.895 302.137 311.815C302.137 313.745 301.177 314.975 299.847 314.975C298.517 314.975 297.547 313.745 297.547 311.815C297.547 309.895 298.517 308.675 299.847 308.675ZM298.587 311.815C298.587 313.195 299.097 313.995 299.847 313.995C300.597 313.995 301.107 313.195 301.107 311.815C301.107 310.455 300.597 309.655 299.847 309.655C299.097 309.655 298.587 310.455 298.587 311.815ZM303.307 316.925V308.035H304.387V311.475H305.737V312.365H304.387V316.925H303.307ZM312.457 308.025H313.537V316.945H312.457V308.025ZM306.487 311.815C306.487 309.895 307.447 308.675 308.787 308.675C310.127 308.675 311.087 309.895 311.087 311.815C311.087 313.745 310.127 314.975 308.787 314.975C307.447 314.975 306.487 313.745 306.487 311.815ZM307.527 311.815C307.527 313.195 308.037 313.995 308.787 313.995C309.537 313.995 310.057 313.195 310.057 311.815C310.057 310.455 309.537 309.655 308.787 309.655C308.037 309.655 307.527 310.455 307.527 311.815ZM321.197 308.035H322.277V316.945H321.197V308.035ZM315.497 314.785V308.845H319.747V309.725H316.567V313.885C318.197 313.875 319.237 313.835 320.417 313.605L320.517 314.505C319.237 314.745 318.107 314.785 316.247 314.785H315.497ZM326.088 308.675C327.278 308.675 328.178 309.685 328.328 311.315H330.008V308.025H331.078V316.945H330.008V312.175H328.338C328.228 313.895 327.318 314.975 326.088 314.975C324.778 314.975 323.828 313.745 323.828 311.815C323.828 309.895 324.778 308.675 326.088 308.675ZM324.848 311.815C324.848 313.195 325.358 313.995 326.088 313.995C326.838 313.995 327.328 313.195 327.328 311.815C327.328 310.455 326.838 309.655 326.088 309.655C325.358 309.655 324.848 310.455 324.848 311.815ZM339.283 310.005H341.033V308.045H342.113V314.635H341.033V310.885H339.283V310.005ZM334.703 312.625C336.103 312.135 336.843 310.895 336.843 309.595V308.565H337.923V309.605C337.923 310.795 338.643 311.945 339.983 312.435L339.423 313.255C338.463 312.895 337.783 312.205 337.403 311.325C337.033 312.305 336.303 313.085 335.263 313.475L334.703 312.625ZM336.303 316.755V313.945H337.373V315.885H342.313V316.755H336.303ZM348.243 310.255H349.773V308.035H350.853V313.315H349.773V311.135H348.243V310.255ZM343.453 312.435C344.853 311.945 345.613 310.755 345.613 309.555V309.485H343.763V308.625H348.523V309.485H346.703V309.555C346.703 310.645 347.413 311.745 348.773 312.205L348.243 313.055C347.263 312.715 346.563 312.035 346.183 311.195C345.793 312.155 345.053 312.925 344.003 313.295L343.453 312.435ZM344.863 315.245C344.863 314.185 346.013 313.555 347.883 313.555C349.743 313.555 350.883 314.185 350.883 315.245C350.883 316.315 349.743 316.925 347.883 316.925C346.013 316.925 344.863 316.315 344.863 315.245ZM345.943 315.245C345.943 315.805 346.643 316.105 347.883 316.105C349.113 316.105 349.813 315.805 349.813 315.245C349.813 314.675 349.113 314.375 347.883 314.375C346.643 314.375 345.943 314.675 345.943 315.245Z" fill="#495565"/>
<rect x="285" y="329" width="79" height="19" rx="9.5" fill="#EBEEF9"/>
<path d="M304.047 333.879H305.067V342.769H304.047V333.879ZM297.757 340.729V334.919H301.127V335.779H298.817V339.839C299.867 339.829 300.617 339.769 301.477 339.589L301.577 340.479C300.567 340.689 299.697 340.729 298.357 340.729H297.757ZM300.517 338.059V337.179H302.227V334.059H303.227V342.349H302.227V338.059H300.517ZM309.627 334.429H310.767V335.089C310.767 336.479 312.117 337.859 313.937 338.169L313.467 339.059C311.987 338.749 310.767 337.849 310.197 336.649C309.617 337.849 308.397 338.759 306.927 339.059L306.467 338.169C308.267 337.849 309.627 336.469 309.627 335.089V334.429ZM306.207 341.629V340.749H314.257V341.629H306.207ZM315.877 334.709H322.107V335.759C322.107 337.059 322.107 338.289 321.707 340.169L320.637 340.069C320.817 339.289 320.917 338.599 320.967 337.969L315.767 338.229L315.627 337.359L321.017 337.159C321.037 336.679 321.037 336.219 321.037 335.759V335.579H315.877V334.709ZM314.947 341.639V340.749H322.987V341.639H314.947ZM332.262 333.869H333.342V342.789H332.262V333.869ZM326.472 335.529V334.669H330.632V337.989H327.572V339.799C328.972 339.789 330.172 339.719 331.552 339.489L331.662 340.359C330.152 340.629 328.832 340.679 327.252 340.679H326.482V337.129H329.542V335.529H326.472ZM339.193 336.769H341.053V333.869H342.123V342.789H341.053V337.629H339.193V336.769ZM334.653 340.079C336.063 339.409 336.893 337.689 336.893 336.019V334.589H337.973V336.019C337.973 337.669 338.763 339.299 340.153 339.929L339.523 340.789C338.523 340.299 337.823 339.349 337.433 338.189C337.043 339.409 336.323 340.429 335.323 340.939L334.653 340.079ZM349.723 333.879H350.803V342.769H349.723V333.879ZM343.563 340.269C344.953 339.639 345.773 338.129 345.773 336.689V336.219H343.843V335.369H345.763V334.059H346.853V335.369H348.753V336.219H346.843V336.689C346.843 338.059 347.683 339.509 349.083 340.119L348.503 340.949C347.493 340.509 346.733 339.609 346.333 338.529C345.933 339.669 345.173 340.629 344.143 341.099L343.563 340.269Z" fill="#495565"/>
<rect x="285" y="356" width="79" height="20" rx="10" fill="#EBEEF9"/>
<path d="M312.477 362.035H313.557V370.925H312.477V362.035ZM306.257 368.505C308.577 367.385 309.647 365.865 309.827 363.825H306.707V362.965H310.927C310.927 365.625 309.907 367.865 306.827 369.355L306.257 368.505ZM315.997 362.195H317.067V364.365H322.087V365.225H315.997V362.195ZM314.957 366.965V366.095H322.997V366.965H314.957ZM315.887 369.265C315.887 368.225 317.037 367.635 318.957 367.635C320.857 367.635 322.017 368.225 322.017 369.265C322.017 370.305 320.857 370.905 318.957 370.905C317.037 370.905 315.887 370.305 315.887 369.265ZM316.967 369.265C316.967 369.795 317.677 370.065 318.957 370.065C320.227 370.065 320.927 369.795 320.927 369.265C320.927 368.735 320.227 368.465 318.957 368.465C317.677 368.465 316.967 368.735 316.967 369.265ZM332.262 362.035H333.342V370.925H332.262V362.035ZM326.042 368.505C328.362 367.385 329.432 365.865 329.612 363.825H326.492V362.965H330.712C330.712 365.625 329.692 367.865 326.612 369.355L326.042 368.505ZM335.043 362.755H337.103V361.975H338.183V362.755H340.243V363.535H335.043V362.755ZM334.773 366.985C335.473 366.985 336.273 366.985 337.103 366.965V366.435C336.113 366.305 335.483 365.825 335.483 365.135C335.483 364.325 336.343 363.805 337.643 363.805C338.943 363.805 339.813 364.325 339.813 365.135C339.813 365.825 339.183 366.305 338.183 366.435V366.915C338.933 366.885 339.683 366.825 340.383 366.725L340.463 367.455C338.563 367.785 336.483 367.815 334.903 367.815L334.773 366.985ZM336.013 369.245V368.405H342.073V370.925H340.993V369.245H336.013ZM336.503 365.135C336.503 365.505 336.953 365.735 337.643 365.735C338.343 365.735 338.783 365.505 338.783 365.135C338.783 364.745 338.343 364.525 337.643 364.525C336.953 364.525 336.503 364.745 336.503 365.135ZM340.993 368.035V362.045H342.073V368.035H340.993Z" fill="#495565"/>
<rect x="399" y="302" width="77" height="20" rx="10" fill="#EBEEF9"/>
<path d="M415.557 308.295H422.137V309.105H420.917V310.475H422.077V311.295H415.607V310.475H416.777V309.105H415.557V308.295ZM414.837 312.715V311.875H422.867V312.715H414.837ZM415.777 314.115V313.335H421.867V315.435H416.857V316.055H422.127V316.855H415.797V314.695H420.817V314.115H415.777ZM417.857 310.475H419.837V309.105H417.857V310.475ZM423.577 315.015H427.057V313.535H424.537V310.635H429.627V309.495H424.527V308.635H430.687V311.485H425.607V312.675H430.887V313.535H428.127V315.015H431.627V315.885H423.577V315.015ZM432.318 313.065H440.368V313.935H436.848V316.935H435.788V313.935H432.318V313.065ZM433.148 310.335C433.148 309.135 434.438 308.375 436.318 308.375C438.208 308.375 439.488 309.135 439.488 310.335C439.488 311.545 438.208 312.315 436.318 312.315C434.438 312.315 433.148 311.545 433.148 310.335ZM434.258 310.335C434.258 311.045 435.068 311.465 436.318 311.465C437.578 311.465 438.388 311.045 438.388 310.335C438.388 309.645 437.578 309.225 436.318 309.225C435.068 309.225 434.258 309.645 434.258 310.335ZM447.912 309.465H449.662V308.035H450.742V312.585H449.662V310.335H447.912V309.465ZM443.322 311.785C444.732 311.335 445.472 310.235 445.472 309.035V308.315H446.542V309.035C446.542 310.135 447.272 311.185 448.612 311.615L448.062 312.445C447.102 312.125 446.412 311.485 446.022 310.665C445.642 311.575 444.912 312.285 443.882 312.625L443.322 311.785ZM444.932 313.825V312.985H450.742V315.275H446.012V315.975H451.032V316.815H444.942V314.485H449.682V313.825H444.932ZM455.473 312.655H456.873V311.295H455.633C455.223 312.785 454.303 314.065 452.633 315.055L452.023 314.285C453.833 313.195 454.683 311.785 454.843 309.985H452.473V309.115H455.903C455.903 309.565 455.873 310.005 455.813 310.435H456.873V308.245H457.883V316.495H456.873V313.515H455.473V312.655ZM458.683 316.925V308.035H459.703V316.925H458.683Z" fill="#495565"/>
<rect x="399" y="330" width="77" height="20" rx="10" fill="#EBEEF9"/>
<path d="M425.107 336.035H426.187V339.715H427.417V340.615H426.187V344.925H425.107V336.035ZM419.107 342.465C419.787 342.465 420.567 342.465 421.377 342.445V341.605C420.417 341.445 419.767 340.835 419.767 339.995C419.767 338.995 420.657 338.335 421.907 338.335C423.167 338.335 424.057 338.995 424.057 339.995C424.057 340.835 423.417 341.435 422.447 341.605V342.405C423.187 342.365 423.927 342.315 424.617 342.215L424.697 342.985C422.807 343.345 420.767 343.355 419.257 343.355L419.107 342.465ZM419.277 337.905V337.055H421.377V336.065H422.447V337.055H424.537V337.905H419.277ZM420.797 339.995C420.797 340.515 421.237 340.835 421.907 340.835C422.587 340.835 423.037 340.515 423.037 339.995C423.037 339.465 422.587 339.145 421.907 339.145C421.237 339.145 420.797 339.465 420.797 339.995ZM428.337 336.765H432.467V337.505H434.257V336.045H435.327V342.515H434.257V340.275H432.467V341.045H428.337V336.765ZM429.387 340.185H431.417V337.625H429.387V340.185ZM429.527 344.755V341.915H430.597V343.885H435.527V344.755H429.527ZM432.467 339.415H434.257V338.365H432.467V339.415ZM443.542 337.465H445.292V336.035H446.372V340.585H445.292V338.335H443.542V337.465ZM438.952 339.785C440.362 339.335 441.102 338.235 441.102 337.035V336.315H442.172V337.035C442.172 338.135 442.902 339.185 444.242 339.615L443.692 340.445C442.732 340.125 442.042 339.485 441.652 338.665C441.272 339.575 440.542 340.285 439.512 340.625L438.952 339.785ZM440.562 341.825V340.985H446.372V343.275H441.642V343.975H446.662V344.815H440.572V342.485H445.312V341.825H440.562ZM451.103 340.655H452.503V339.295H451.263C450.853 340.785 449.933 342.065 448.263 343.055L447.653 342.285C449.463 341.195 450.313 339.785 450.473 337.985H448.103V337.115H451.533C451.533 337.565 451.503 338.005 451.443 338.435H452.503V336.245H453.513V344.495H452.503V341.515H451.103V340.655ZM454.313 344.925V336.035H455.333V344.925H454.313Z" fill="#495565"/>
<rect x="511" y="302" width="78" height="20" rx="10" fill="#EBEEF9"/>
<path d="M523.073 308.035H524.153V316.925H523.073V308.035ZM516.853 314.505C519.173 313.385 520.243 311.865 520.423 309.825H517.303V308.965H521.523C521.523 311.625 520.503 313.865 517.423 315.355L516.853 314.505ZM525.853 311.925H530.213V312.955H525.853V311.925ZM537.457 308.035H538.537V316.945H537.457V308.035ZM531.757 314.785V308.845H536.007V309.725H532.827V313.885C534.457 313.875 535.497 313.835 536.677 313.605L536.777 314.505C535.497 314.745 534.367 314.785 532.507 314.785H531.757ZM540.257 311.925H544.617V312.955H540.257V311.925ZM552.151 308.035H553.181V316.925H552.151V312.345H551.191V316.515H550.181V308.265H551.191V311.485H552.151V308.035ZM545.541 314.305C547.431 313.225 548.231 311.815 548.371 310.025H545.941V309.155H549.431C549.431 311.555 548.671 313.625 546.171 315.075L545.541 314.305ZM557.006 308.605H558.016V309.925H559.486V308.605H560.486V312.835H557.006V308.605ZM558.016 311.985H559.486V310.745H558.016V311.985ZM558.146 314.705V313.845H564.196V316.925H563.126V314.705H558.146ZM561.276 313.345V308.205H562.286V310.265H563.176V308.045H564.196V313.375H563.176V311.145H562.286V313.345H561.276ZM565.397 315.015H568.877V313.535H566.357V310.635H571.447V309.495H566.347V308.635H572.507V311.485H567.427V312.675H572.707V313.535H569.947V315.015H573.447V315.885H565.397V315.015ZM574.987 308.895H581.157V309.885C581.157 311.075 581.157 312.315 580.827 314.185L579.747 314.085C580.087 312.335 580.087 311.045 580.087 309.885V309.755H574.987V308.895ZM574.137 315.705V314.825H582.177V315.705H574.137Z" fill="#495565"/>
<rect x="623" y="302" width="79" height="20" rx="10" fill="#EBEEF9"/>
<path d="M647.74 312.815H648.82V314.255C649.59 314.205 650.36 314.135 651.09 314.025L651.17 314.815C649.22 315.185 647.09 315.205 645.52 315.205L645.4 314.325C646.08 314.325 646.89 314.325 647.74 314.295V312.815ZM645.61 312.255C646.93 311.895 647.68 310.995 647.74 309.985H645.85V309.125H647.74V308.105H648.82V309.125H650.73V309.985H648.82C648.89 310.965 649.65 311.825 650.96 312.175L650.47 313.005C649.43 312.715 648.69 312.105 648.29 311.305C647.9 312.135 647.16 312.785 646.1 313.095L645.61 312.255ZM651.62 316.945V308.025H652.69V316.945H651.62ZM657.57 311.225H658.64V312.365H662.13V313.225H654.1V312.365H657.57V311.225ZM654.49 310.845C656.12 310.695 657.19 310.035 657.36 309.285H654.83V308.435H661.41V309.285H658.88C659.05 310.035 660.11 310.695 661.75 310.845L661.38 311.695C659.79 311.525 658.6 310.895 658.12 309.985C657.64 310.895 656.46 311.525 654.86 311.695L654.49 310.845ZM655.04 315.375C655.04 314.375 656.18 313.815 658.11 313.815C660.02 313.815 661.17 314.375 661.17 315.375C661.17 316.365 660.02 316.915 658.11 316.915C656.18 316.915 655.04 316.365 655.04 315.375ZM656.12 315.375C656.12 315.865 656.82 316.115 658.11 316.115C659.39 316.115 660.08 315.865 660.08 315.375C660.08 314.885 659.39 314.635 658.11 314.635C656.82 314.635 656.12 314.885 656.12 315.375ZM667.61 310.155H669.14V308.035H670.21V313.195H669.14V311.035H667.61V310.155ZM662.82 312.325C664.22 311.845 664.98 310.685 664.98 309.495V309.395H663.13V308.535H667.89V309.395H666.06V309.495C666.06 310.575 666.78 311.675 668.14 312.145L667.61 312.995C666.62 312.655 665.93 311.965 665.54 311.125C665.15 312.065 664.41 312.815 663.36 313.185L662.82 312.325ZM664.35 316.815V313.595H670.21V316.815H664.35ZM665.41 315.965H669.16V314.435H665.41V315.965ZM676.14 308.565C676.14 310.865 674.64 312.475 672.06 313.195L671.63 312.355C673.63 311.805 674.81 310.745 674.99 309.425H672.11V308.565H676.14ZM673.15 316.815V313.415H678.96V316.815H673.15ZM674.21 315.955H677.9V314.265H674.21V315.955ZM676.17 311.105V310.215H677.88V308.035H678.96V313.045H677.88V311.105H676.17Z" fill="#495565"/>
<rect x="511" y="330" width="78" height="20" rx="10" fill="#EBEEF9"/>
<path d="M527.855 336.035H528.885V344.925H527.855V340.345H526.895V344.515H525.885V336.265H526.895V339.485H527.855V336.035ZM521.245 342.305C523.135 341.225 523.935 339.815 524.075 338.025H521.645V337.155H525.135C525.135 339.555 524.375 341.625 521.875 343.075L521.245 342.305ZM530.375 336.415H531.435V337.565H533.515V336.415H534.575V340.295H530.375V336.415ZM531.245 341.795V340.955H537.015V343.275H532.325V344.005H537.305V344.855H531.265V342.485H535.955V341.795H531.245ZM531.435 339.445H533.515V338.375H531.435V339.445ZM535.945 340.585V336.035H537.015V337.835H538.245V338.715H537.015V340.585H535.945ZM542.47 341.735H548.48V344.925H547.4V342.575H542.47V341.735ZM541.21 338.685C541.21 337.425 542.21 336.515 543.54 336.515C544.27 336.515 544.92 336.805 545.34 337.275H547.4V336.035H548.48V341.285H547.4V340.105H545.33C544.91 340.575 544.27 340.855 543.54 340.855C542.21 340.855 541.21 339.955 541.21 338.685ZM542.23 338.685C542.23 339.465 542.79 339.945 543.54 339.945C544.28 339.945 544.83 339.465 544.83 338.685C544.83 337.925 544.28 337.435 543.54 337.435C542.79 337.435 542.23 337.925 542.23 338.685ZM545.79 339.235H547.4V338.145H545.79C545.84 338.315 545.86 338.495 545.86 338.685C545.86 338.875 545.84 339.065 545.79 339.235ZM555.72 336.015H556.8V338.015H558.04V338.895H556.8V340.865H555.72V336.015ZM549.85 337.565V336.745H551.94V335.955H553.01V336.745H555.09V337.565H549.85ZM550.32 339.325C550.32 338.415 551.17 337.855 552.47 337.855C553.77 337.855 554.64 338.415 554.64 339.325C554.64 340.215 553.77 340.765 552.47 340.765C551.17 340.765 550.32 340.215 550.32 339.325ZM551.03 342.055V341.265H556.8V343.395H552.11V344.045H557.08V344.855H551.05V342.655H555.73V342.055H551.03ZM551.34 339.325C551.34 339.755 551.78 340.005 552.47 340.005C553.16 340.005 553.6 339.755 553.6 339.325C553.6 338.875 553.16 338.625 552.47 338.625C551.78 338.625 551.34 338.875 551.34 339.325ZM560.875 340.645H568.925V341.505H565.535V343.045H564.455V341.505H560.875V340.645ZM561.855 344.765V342.325H562.915V343.885H568.045V344.765H561.855ZM561.935 339.935V336.315H562.995V337.315H566.815V336.315H567.885V339.935H561.935ZM562.995 339.085H566.815V338.135H562.995V339.085ZM575.515 336.035H576.585V338.105H577.825V338.975H576.585V341.035H575.515V336.035ZM570.005 340.645V336.605H573.935V337.465H571.075V339.775C572.745 339.765 573.665 339.715 574.705 339.495L574.815 340.355C573.675 340.595 572.655 340.645 570.725 340.645H570.005ZM570.895 344.815V341.455H576.585V344.815H570.895ZM571.955 343.955H575.535V342.305H571.955V343.955Z" fill="#495565"/>
<rect x="173" y="329" width="78" height="20" rx="10" fill="#EBEEF9"/>
<path d="M186.847 335.675C188.177 335.675 189.137 336.895 189.137 338.815C189.137 340.745 188.177 341.975 186.847 341.975C185.517 341.975 184.547 340.745 184.547 338.815C184.547 336.895 185.517 335.675 186.847 335.675ZM185.587 338.815C185.587 340.195 186.097 340.995 186.847 340.995C187.597 340.995 188.107 340.195 188.107 338.815C188.107 337.455 187.597 336.655 186.847 336.655C186.097 336.655 185.587 337.455 185.587 338.815ZM190.307 343.925V335.035H191.387V338.475H192.737V339.365H191.387V343.925H190.307ZM199.457 335.025H200.537V343.945H199.457V335.025ZM193.487 338.815C193.487 336.895 194.447 335.675 195.787 335.675C197.127 335.675 198.087 336.895 198.087 338.815C198.087 340.745 197.127 341.975 195.787 341.975C194.447 341.975 193.487 340.745 193.487 338.815ZM194.527 338.815C194.527 340.195 195.037 340.995 195.787 340.995C196.537 340.995 197.057 340.195 197.057 338.815C197.057 337.455 196.537 336.655 195.787 336.655C195.037 336.655 194.527 337.455 194.527 338.815ZM208.197 335.035H209.277V343.945H208.197V335.035ZM202.497 341.785V335.845H206.747V336.725H203.567V340.885C205.197 340.875 206.237 340.835 207.417 340.605L207.517 341.505C206.237 341.745 205.107 341.785 203.247 341.785H202.497ZM213.088 335.675C214.278 335.675 215.178 336.685 215.328 338.315H217.008V335.025H218.078V343.945H217.008V339.175H215.338C215.228 340.895 214.318 341.975 213.088 341.975C211.778 341.975 210.828 340.745 210.828 338.815C210.828 336.895 211.778 335.675 213.088 335.675ZM211.848 338.815C211.848 340.195 212.358 340.995 213.088 340.995C213.838 340.995 214.328 340.195 214.328 338.815C214.328 337.455 213.838 336.655 213.088 336.655C212.358 336.655 211.848 337.455 211.848 338.815ZM222.053 335.415H223.113V336.565H225.193V335.415H226.253V339.295H222.053V335.415ZM222.923 340.795V339.955H228.693V342.275H224.003V343.005H228.983V343.855H222.943V341.485H227.633V340.795H222.923ZM223.113 338.445H225.193V337.375H223.113V338.445ZM227.623 339.585V335.035H228.693V336.835H229.923V337.715H228.693V339.585H227.623ZM237.033 335.035H238.063V343.925H237.033V335.035ZM230.323 341.425C231.593 340.625 232.143 339.025 232.143 337.465V336.865H230.603V335.985H234.613V336.865H233.193V337.465C233.193 338.965 233.733 340.485 234.983 341.215L234.343 342.005C233.523 341.515 232.983 340.655 232.683 339.645C232.373 340.745 231.803 341.685 230.963 342.215L230.323 341.425ZM233.973 339.015V338.145H235.253V335.205H236.253V343.495H235.253V339.015H233.973Z" fill="#495565"/>
<g filter="url(#filter1_d_1740_21663)">
<rect x="647" y="306" width="166" height="202" rx="30" fill="#F6F7FB" shape-rendering="crispEdges"/>
<path d="M753.76 451.151H754.907V448.593H756.368V455.07H754.907V452.398H753.76V451.151ZM749.438 454.704V449.097H753.684V450.332H750.925V451.277H753.269V452.449H750.925V453.482C752.147 453.469 753.042 453.406 754.088 453.23L754.226 454.452C752.954 454.679 751.87 454.704 750.207 454.704H749.438ZM750.963 459.593V455.624H758.586V459.593H750.963ZM752.5 458.358H757.074V456.833H752.5V458.358ZM757.111 455.158V448.43H758.586V455.158H757.111Z" fill="#232326"/>
<path d="M742.206 449.072H743.869V449.891C743.869 451.58 745.331 453.331 747.838 453.759L747.158 455.057C745.217 454.666 743.768 453.57 743.038 452.121C742.294 453.558 740.845 454.666 738.905 455.057L738.237 453.759C740.719 453.331 742.206 451.542 742.206 449.891V449.072ZM737.985 458.308V457.035H748.203V458.308H737.985Z" fill="#232326"/>
<path d="M729.72 449.311H731.295V450.975C731.295 453.066 732.24 455.145 734.13 455.964L733.223 457.224C731.925 456.632 731.03 455.498 730.526 454.087C730.022 455.611 729.103 456.846 727.742 457.476L726.81 456.191C728.75 455.347 729.72 453.179 729.72 450.975V449.311ZM734.735 459.731V448.404H736.297V459.731H734.735Z" fill="#232326"/>
<path d="M715.961 457.111H720.27V455.007H717.044V449.136H718.594V450.9H723.508V449.136H725.058V455.007H721.832V457.111H726.179V458.384H715.961V457.111ZM718.594 453.76H723.508V452.134H718.594V453.76Z" fill="#232326"/>
<path d="M711.034 451.176H712.798V448.43H714.36V455.133H712.798V452.436H711.034V451.176ZM704.886 453.898C706.687 453.28 707.544 451.806 707.569 450.37H705.302V449.123H711.374V450.37H709.144C709.17 451.68 709.988 453.016 711.727 453.608L710.946 454.83C709.711 454.414 708.867 453.595 708.388 452.575C707.897 453.734 706.99 454.666 705.667 455.12L704.886 453.898ZM706.687 457.552C706.687 456.203 708.162 455.385 710.543 455.385C712.924 455.385 714.398 456.203 714.398 457.552C714.398 458.938 712.924 459.731 710.543 459.731C708.162 459.731 706.687 458.938 706.687 457.552ZM708.25 457.552C708.25 458.207 709.044 458.547 710.543 458.547C712.03 458.547 712.849 458.207 712.849 457.552C712.849 456.909 712.03 456.569 710.543 456.569C709.044 456.569 708.25 456.909 708.25 457.552Z" fill="#232326"/>
<path d="M697.023 449.034C697.931 449.034 698.712 449.362 699.253 449.916H701.786V448.43H703.348V455.044H701.786V453.684H699.228C698.699 454.225 697.918 454.54 697.023 454.54C695.348 454.54 694.062 453.394 694.062 451.794C694.062 450.194 695.348 449.034 697.023 449.034ZM695.537 451.794C695.537 452.688 696.179 453.23 697.023 453.23C697.893 453.23 698.51 452.688 698.51 451.794C698.51 450.887 697.893 450.357 697.023 450.357C696.179 450.357 695.537 450.887 695.537 451.794ZM695.675 457.501C695.675 456.103 697.162 455.271 699.531 455.271C701.899 455.271 703.386 456.103 703.386 457.501C703.386 458.9 701.899 459.719 699.531 459.719C697.162 459.719 695.675 458.9 695.675 457.501ZM697.212 457.501C697.212 458.169 698.031 458.522 699.531 458.522C701.043 458.522 701.849 458.169 701.849 457.501C701.849 456.821 701.043 456.481 699.531 456.481C698.031 456.481 697.212 456.821 697.212 457.501ZM699.921 452.436H701.786V451.164H699.921C699.972 451.365 699.997 451.58 699.997 451.794C699.997 452.021 699.972 452.235 699.921 452.436Z" fill="#232326"/>
<path d="M688.254 452.575H690.774V451.479H688.367C687.674 453.268 686.074 454.49 683.605 455.17L683 453.948C685.595 453.268 686.868 452.02 687.07 450.445H683.605V449.186H688.771C688.771 449.551 688.745 449.904 688.695 450.231H690.774V448.417H692.336V454.943H690.774V453.822H688.254V452.575ZM684.789 457.375C684.789 455.964 686.301 455.095 688.607 455.095C690.887 455.095 692.399 455.964 692.399 457.375C692.399 458.774 690.887 459.656 688.607 459.656C686.301 459.656 684.789 458.774 684.789 457.375ZM686.339 457.375C686.339 458.081 687.196 458.446 688.607 458.446C690.018 458.446 690.862 458.081 690.862 457.375C690.862 456.657 690.018 456.292 688.607 456.292C687.196 456.292 686.339 456.657 686.339 457.375Z" fill="#232326"/>
<path fill-rule="evenodd" clip-rule="evenodd" d="M773.459 449.526C773.24 449.308 772.885 449.308 772.666 449.526L771.873 450.319L773.855 452.301L774.648 451.508C774.867 451.289 774.867 450.934 774.648 450.716L773.459 449.526ZM773.458 452.697L771.477 450.716L765.675 456.517C765.582 456.61 765.525 456.733 765.513 456.863L765.363 458.506C765.348 458.68 765.494 458.826 765.668 458.811L767.311 458.661C767.442 458.649 767.564 458.592 767.657 458.499L773.458 452.697Z" fill="#232326"/>
<path d="M776.086 387.543C776.086 413.248 755.248 434.086 729.543 434.086C703.838 434.086 683 413.248 683 387.543C683 361.838 703.838 341 729.543 341C755.248 341 776.086 361.838 776.086 387.543ZM703.983 387.543C703.983 401.659 715.427 413.103 729.543 413.103C743.659 413.103 755.103 401.659 755.103 387.543C755.103 373.427 743.659 361.983 729.543 361.983C715.427 361.983 703.983 373.427 703.983 387.543Z" fill="#DDE1EA"/>
<path d="M729.543 434.086C717.199 434.086 705.361 429.182 696.632 420.454C687.904 411.725 683 399.887 683 387.543C683 375.199 687.904 363.361 696.632 354.632C705.361 345.904 717.199 341 729.543 341L729.543 361.78C722.71 361.78 716.157 364.494 711.326 369.326C706.494 374.157 703.78 380.71 703.78 387.543C703.78 394.376 706.494 400.929 711.326 405.76C716.157 410.592 722.71 413.306 729.543 413.306L729.543 434.086Z" fill="#5257D6"/>
<path d="M732.745 376.742H738.175V377.236H736.753V377.703H737.504V379.037H734.045V379.511H737.687V379.978H733.388V378.597H736.854V378.17H733.375V377.703H734.16V377.236H732.745V376.742ZM733.422 374.65V374.183H737.484V375.489H734.086V375.916H737.599V376.383H733.436V375.056H736.827V374.65H733.422ZM734.81 377.703H736.096V377.236H734.81V377.703Z" fill="#393948"/>
<path d="M731.262 374.041H731.892V377.819H731.262V376.153H730.619V377.609H729.989V374.163H730.619V375.612H731.262V374.041ZM726.787 375.246V374.718H727.965V374.095H728.615V374.718H729.779V375.246H726.787ZM727.017 376.532C727.017 375.916 727.539 375.503 728.29 375.503C729.041 375.503 729.57 375.916 729.57 376.532C729.57 377.162 729.041 377.568 728.29 377.568C727.539 377.568 727.017 377.162 727.017 376.532ZM727.599 376.532C727.599 376.878 727.884 377.087 728.29 377.087C728.696 377.087 728.987 376.878 728.987 376.532C728.987 376.194 728.696 375.991 728.29 375.991C727.884 375.991 727.599 376.194 727.599 376.532ZM727.884 378.969C727.884 378.286 728.635 377.907 729.901 377.907C731.167 377.907 731.925 378.286 731.925 378.969C731.925 379.64 731.167 380.026 729.901 380.026C728.635 380.026 727.884 379.64 727.884 378.969ZM728.541 378.969C728.541 379.328 729.028 379.518 729.901 379.518C730.775 379.518 731.262 379.328 731.262 378.969C731.262 378.597 730.775 378.408 729.901 378.408C729.028 378.408 728.541 378.597 728.541 378.969Z" fill="#393948"/>
<path d="M721.148 374.507H724.417V375.042H723.124V375.272C723.124 376.051 723.68 376.775 724.6 377.08L724.255 377.594C723.571 377.371 723.064 376.897 722.799 376.301C722.535 376.944 722.014 377.459 721.303 377.709L720.965 377.188C721.899 376.863 722.447 376.091 722.447 375.272V375.042H721.148V374.507ZM721.94 379.91V378H722.603V379.368H726.015V379.91H721.94ZM725.169 378.407V374.047H725.846V378.407H725.169Z" fill="#393948"/>
<path d="M737.244 397.76L741.915 390.286H743.022L738.33 397.76H737.244ZM735.527 392.195C735.527 391.058 736.391 390.164 737.508 390.164C738.604 390.164 739.478 391.058 739.478 392.195C739.478 393.332 738.604 394.226 737.508 394.226C736.391 394.226 735.527 393.332 735.527 392.195ZM736.543 392.195C736.543 392.764 736.959 393.221 737.508 393.221C738.046 393.221 738.472 392.764 738.472 392.195C738.472 391.626 738.046 391.18 737.508 391.18C736.959 391.18 736.543 391.626 736.543 392.195ZM740.696 395.79C740.696 394.652 741.559 393.759 742.676 393.759C743.773 393.759 744.646 394.652 744.646 395.79C744.646 396.927 743.773 397.831 742.676 397.831C741.559 397.831 740.696 396.927 740.696 395.79ZM741.712 395.79C741.712 396.359 742.128 396.815 742.676 396.815C743.215 396.815 743.641 396.359 743.641 395.79C743.641 395.221 743.215 394.774 742.676 394.774C742.128 394.774 741.712 395.221 741.712 395.79Z" fill="#232326"/>
<path d="M729.253 396.278C730.945 396.278 732.079 394.382 732.079 391.59C732.079 388.78 730.945 386.885 729.253 386.885C727.56 386.885 726.409 388.78 726.409 391.59C726.409 394.382 727.56 396.278 729.253 396.278ZM724.615 391.59C724.615 387.9 726.528 385.311 729.253 385.311C731.961 385.311 733.873 387.9 733.873 391.59C733.873 395.262 731.961 397.869 729.253 397.869C726.528 397.869 724.615 395.262 724.615 391.59Z" fill="#232326"/>
<path d="M716.736 392.232L714.942 392.012L715.365 385.429H721.948V387.003H717.091L716.888 390.015C717.447 389.761 718.073 389.609 718.631 389.609C721.17 389.609 722.964 391.319 722.964 393.739C722.964 396.193 721.17 397.919 718.631 397.919C716.634 397.919 714.908 396.582 714.468 394.687L716.211 394.28C716.465 395.414 717.463 396.227 718.631 396.227C720.121 396.227 721.17 395.194 721.17 393.739C721.17 392.317 720.121 391.302 718.631 391.302C718.005 391.302 717.227 391.691 716.736 392.232Z" fill="#232326"/>
<path d="M752.94 469.876H759.281V470.664H758.099V471.98H759.214V472.768H752.998V471.98H754.122V470.664H752.94V469.876ZM752.258 474.142V473.306H759.982V474.142H752.258ZM753.161 475.477V474.728H759.022V476.745H754.199V477.341H759.262V478.11H753.18V476.034H758.003V475.477H753.161ZM755.159 471.98H757.062V470.664H755.159V471.98Z" fill="#495565"/>
<path d="M744.34 470.145H748.433V470.971H745.377V471.788H748.192V472.605H745.377V473.46C746.972 473.46 747.943 473.421 749.057 473.239L749.163 474.046C747.952 474.257 746.886 474.276 745.06 474.276H744.34V470.145ZM745.31 478.081V475.112H750.911V478.081H745.31ZM746.329 477.255H749.903V475.938H746.329V477.255ZM749.874 474.728V469.646H750.911V474.728H749.874Z" fill="#495565"/>
<path d="M734.017 470.424H740.185V471.298C740.185 472.355 740.185 473.508 739.896 475.189L738.868 475.074C739.157 473.498 739.157 472.336 739.157 471.298V471.26H734.017V470.424ZM733.248 477.082V476.246H734.987V473.489H736.015V476.246H737.101V473.489H738.119V476.246H740.982V477.082H733.248Z" fill="#495565"/>
<path d="M724.86 470.453H726.849V469.588H727.896V470.453H729.904V471.279H724.86V470.453ZM725.293 473.181C725.293 472.249 726.148 471.615 727.378 471.615C728.598 471.615 729.453 472.249 729.453 473.181C729.453 474.113 728.598 474.728 727.378 474.728C726.148 474.728 725.293 474.113 725.293 473.181ZM725.898 476.217V475.391H731.528V478.196H730.5V476.217H725.898ZM726.292 473.181C726.292 473.671 726.734 473.95 727.378 473.95C728.021 473.95 728.454 473.671 728.454 473.181C728.454 472.691 728.021 472.422 727.378 472.422C726.734 472.422 726.292 472.691 726.292 473.181ZM730.5 474.987V469.646H731.528V471.903H732.719V472.768H731.528V474.987H730.5Z" fill="#495565"/>
<path d="M722.766 469.626H723.765V478.186H722.766V473.834H721.815V477.754H720.844V469.799H721.815V472.979H722.766V469.626ZM716.732 476.178V470.654H719.893V471.49H717.76V475.314C718.683 475.304 719.442 475.256 720.306 475.083L720.403 475.938C719.365 476.15 718.471 476.178 717.309 476.178H716.732Z" fill="#495565"/>
<g clip-path="url(#clip1_1740_21663)">
<path d="M704.477 466.987C704.238 466.83 703.928 466.83 703.689 466.987L700.681 468.956H698.062C697.476 468.956 697 469.424 697 470V476.956C697 477.532 697.476 478 698.062 478H710.104C710.69 478 711.166 477.532 711.166 476.956V470C711.166 469.424 710.69 468.956 710.104 468.956H707.485L704.477 466.987ZM702.667 475.913C702.667 475.145 703.302 474.521 704.083 474.521C704.865 474.521 705.5 475.145 705.5 475.913V478H702.667V475.913ZM699.125 471.043H699.833C700.028 471.043 700.187 471.2 700.187 471.391V472.782C700.187 472.974 700.028 473.13 699.833 473.13H699.125C698.93 473.13 698.771 472.974 698.771 472.782V471.391C698.771 471.2 698.93 471.043 699.125 471.043ZM707.979 471.391C707.979 471.2 708.138 471.043 708.333 471.043H709.041C709.236 471.043 709.396 471.2 709.396 471.391V472.782C709.396 472.974 709.236 473.13 709.041 473.13H708.333C708.138 473.13 707.979 472.974 707.979 472.782V471.391ZM699.125 473.826H699.833C700.028 473.826 700.187 473.982 700.187 474.174V475.565C700.187 475.756 700.028 475.913 699.833 475.913H699.125C698.93 475.913 698.771 475.756 698.771 475.565V474.174C698.771 473.982 698.93 473.826 699.125 473.826ZM707.979 474.174C707.979 473.982 708.138 473.826 708.333 473.826H709.041C709.236 473.826 709.396 473.982 709.396 474.174V475.565C709.396 475.756 709.236 475.913 709.041 475.913H708.333C708.138 475.913 707.979 475.756 707.979 475.565V474.174ZM702.135 470.695C702.135 470.188 702.341 469.701 702.706 469.343C703.071 468.984 703.567 468.782 704.083 468.782C704.6 468.782 705.095 468.984 705.46 469.343C705.826 469.701 706.031 470.188 706.031 470.695C706.031 471.203 705.826 471.689 705.46 472.048C705.095 472.407 704.6 472.608 704.083 472.608C703.567 472.608 703.071 472.407 702.706 472.048C702.341 471.689 702.135 471.203 702.135 470.695ZM704.083 469.652C703.888 469.652 703.729 469.808 703.729 470V470.695C703.729 470.887 703.888 471.043 704.083 471.043H704.791C704.986 471.043 705.146 470.887 705.146 470.695C705.146 470.504 704.986 470.347 704.791 470.347H704.437V470C704.437 469.808 704.278 469.652 704.083 469.652Z" fill="#6268F1"/>
</g>
</g>
</g>
<defs>
<filter id="filter0_d_1740_21663" x="132.2" y="156.2" width="606.6" height="268.6" filterUnits="userSpaceOnUse" color-interpolation-filters="sRGB">
<feFlood flood-opacity="0" result="BackgroundImageFix"/>
<feColorMatrix in="SourceAlpha" type="matrix" values="0 0 0 0 0 0 0 0 0 0 0 0 0 0 0 0 0 0 127 0" result="hardAlpha"/>
<feOffset dy="4"/>
<feGaussianBlur stdDeviation="10.4"/>
<feComposite in2="hardAlpha" operator="out"/>
<feColorMatrix type="matrix" values="0 0 0 0 0 0 0 0 0 0 0 0 0 0 0 0 0 0 0.25 0"/>
<feBlend mode="normal" in2="BackgroundImageFix" result="effect1_dropShadow_1740_21663"/>
<feBlend mode="normal" in="SourceGraphic" in2="effect1_dropShadow_1740_21663" result="shape"/>
</filter>
<filter id="filter1_d_1740_21663" x="624.2" y="287.2" width="211.6" height="247.6" filterUnits="userSpaceOnUse" color-interpolation-filters="sRGB">
<feFlood flood-opacity="0" result="BackgroundImageFix"/>
<feColorMatrix in="SourceAlpha" type="matrix" values="0 0 0 0 0 0 0 0 0 0 0 0 0 0 0 0 0 0 127 0" result="hardAlpha"/>
<feOffset dy="4"/>
<feGaussianBlur stdDeviation="11.4"/>
<feComposite in2="hardAlpha" operator="out"/>
<feColorMatrix type="matrix" values="0 0 0 0 0 0 0 0 0 0 0 0 0 0 0 0 0 0 0.25 0"/>
<feBlend mode="normal" in2="BackgroundImageFix" result="effect1_dropShadow_1740_21663"/>
<feBlend mode="normal" in="SourceGraphic" in2="effect1_dropShadow_1740_21663" result="shape"/>
</filter>
<clipPath id="clip0_1740_21663">
<rect width="1536" height="580" fill="white"/>
</clipPath>
<clipPath id="clip1_1740_21663">
<rect width="14.1663" height="11.1307" fill="white" transform="translate(697 466.869)"/>
</clipPath>
</defs>
</svg>
