<svg width="17" height="15" viewBox="0 0 17 15" fill="none" xmlns="http://www.w3.org/2000/svg">
<g id="solar:branching-paths-up-bold">
<path id="Vector" fill-rule="evenodd" clip-rule="evenodd" d="M1.99379 2.8784C1.05884 3.758 1.05884 5.1716 1.05884 8C1.05884 10.8284 1.05884 12.2426 1.99379 13.121C2.93001 14 4.43462 14 7.4451 14C10.4556 14 11.9608 14 12.8958 13.121C13.8314 12.2432 13.8314 10.8284 13.8314 8C13.8314 5.1716 13.8314 3.7574 12.8958 2.8784C11.9615 2 10.4556 2 7.4451 2C4.43462 2 2.92938 2 1.99379 2.8784ZM4.90976 4.382C4.99945 4.46638 5.04983 4.58075 5.04983 4.7C5.04983 4.81925 4.99945 4.93362 4.90976 5.018L4.76926 5.15H4.8906C5.96349 5.15 6.90546 5.6732 7.4451 6.4622C7.71945 6.05961 8.09725 5.72839 8.54368 5.49907C8.99011 5.26974 9.49081 5.1497 9.99961 5.15H10.1209L9.98045 5.018C9.89585 4.9327 9.84979 4.81987 9.85198 4.70329C9.85416 4.58671 9.90443 4.47547 9.99219 4.39303C10.0799 4.31058 10.1983 4.26335 10.3224 4.2613C10.4465 4.25924 10.5666 4.30251 10.6574 4.382L11.6153 5.282C11.705 5.36638 11.7554 5.48075 11.7554 5.6C11.7554 5.71925 11.705 5.83362 11.6153 5.918L10.6574 6.818C10.6135 6.86221 10.5607 6.89767 10.5019 6.92227C10.4432 6.94686 10.3797 6.96009 10.3154 6.96116C10.2511 6.96222 10.1872 6.95111 10.1276 6.92847C10.068 6.90584 10.0138 6.87215 9.96829 6.82942C9.92281 6.78669 9.88696 6.73579 9.86287 6.67976C9.83878 6.62373 9.82695 6.56371 9.82808 6.50329C9.82922 6.44287 9.84329 6.38328 9.86947 6.32808C9.89565 6.27288 9.93339 6.2232 9.98045 6.182L10.1209 6.05H9.99961C9.44914 6.05 8.92122 6.25545 8.53198 6.62114C8.14275 6.98684 7.92407 7.48283 7.92407 8V11.6C7.92407 11.7193 7.87361 11.8338 7.78379 11.9182C7.69396 12.0026 7.57213 12.05 7.4451 12.05C7.31807 12.05 7.19625 12.0026 7.10642 11.9182C7.0166 11.8338 6.96613 11.7193 6.96613 11.6V8C6.96613 7.48283 6.74746 6.98684 6.35822 6.62114C5.96898 6.25545 5.44106 6.05 4.8906 6.05H4.76926L4.90976 6.182C4.95681 6.2232 4.99456 6.27288 5.02074 6.32808C5.04692 6.38328 5.06099 6.44287 5.06213 6.50329C5.06326 6.56371 5.05143 6.62373 5.02734 6.67976C5.00325 6.73579 4.9674 6.78669 4.92191 6.82942C4.87643 6.87215 4.82226 6.90584 4.76262 6.92847C4.70298 6.95111 4.63909 6.96222 4.57478 6.96116C4.51047 6.96009 4.44705 6.94686 4.38829 6.92227C4.32954 6.89767 4.27666 6.86221 4.23281 6.818L3.27487 5.918C3.18518 5.83362 3.1348 5.71925 3.1348 5.6C3.1348 5.48075 3.18518 5.36638 3.27487 5.282L4.23281 4.382C4.32262 4.29773 4.44436 4.2504 4.57128 4.2504C4.69821 4.2504 4.81995 4.29773 4.90976 4.382Z" fill="#1FDD7E"/>
</g>
</svg>
