<svg width="16" height="15" viewBox="0 0 16 15" fill="none" xmlns="http://www.w3.org/2000/svg">
<g id="solar:branching-paths-up-bold">
<path id="Vector" fill-rule="evenodd" clip-rule="evenodd" d="M2.27616 2.165C1.35205 3.08125 1.35205 4.55375 1.35205 7.5C1.35205 10.4462 1.35205 11.9194 2.27616 12.8344C3.20152 13.75 4.68867 13.75 7.66424 13.75C10.6398 13.75 12.1276 13.75 13.0517 12.8344C13.9764 11.92 13.9764 10.4462 13.9764 7.5C13.9764 4.55375 13.9764 3.08063 13.0517 2.165C12.1282 1.25 10.6398 1.25 7.66424 1.25C4.68867 1.25 3.20089 1.25 2.27616 2.165ZM5.1583 3.73125C5.24696 3.81914 5.29675 3.93828 5.29675 4.0625C5.29675 4.18672 5.24696 4.30586 5.1583 4.39375L5.01943 4.53125H5.13936C6.19981 4.53125 7.13086 5.07625 7.66424 5.89813C7.9354 5.47876 8.30882 5.13374 8.75007 4.89486C9.19133 4.65598 9.68621 4.53094 10.1891 4.53125H10.309L10.1702 4.39375C10.0866 4.30489 10.041 4.18736 10.0432 4.06592C10.0454 3.94449 10.095 3.82862 10.1818 3.74274C10.2685 3.65685 10.3855 3.60766 10.5082 3.60552C10.6308 3.60337 10.7495 3.64845 10.8393 3.73125L11.7861 4.66875C11.8748 4.75664 11.9246 4.87578 11.9246 5C11.9246 5.12422 11.8748 5.24336 11.7861 5.33125L10.8393 6.26875C10.7959 6.3148 10.7437 6.35174 10.6856 6.37736C10.6275 6.40298 10.5648 6.41676 10.5013 6.41787C10.4377 6.41898 10.3746 6.4074 10.3156 6.38383C10.2567 6.36025 10.2031 6.32516 10.1582 6.28065C10.1132 6.23614 10.0778 6.18312 10.054 6.12475C10.0301 6.06638 10.0185 6.00386 10.0196 5.94092C10.0207 5.87798 10.0346 5.81591 10.0605 5.75841C10.0864 5.70091 10.1237 5.64916 10.1702 5.60625L10.309 5.46875H10.1891C9.64503 5.46875 9.12324 5.68276 8.73851 6.06369C8.35379 6.44462 8.13765 6.96128 8.13765 7.5V11.25C8.13765 11.3743 8.08778 11.4935 7.99899 11.5815C7.91021 11.6694 7.7898 11.7188 7.66424 11.7188C7.53868 11.7188 7.41827 11.6694 7.32949 11.5815C7.2407 11.4935 7.19083 11.3743 7.19083 11.25V7.5C7.19083 6.96128 6.97469 6.44462 6.58997 6.06369C6.20524 5.68276 5.68345 5.46875 5.13936 5.46875H5.01943L5.1583 5.60625C5.20481 5.64916 5.24212 5.70091 5.26799 5.75841C5.29387 5.81591 5.30778 5.87798 5.3089 5.94092C5.31003 6.00386 5.29833 6.06638 5.27452 6.12475C5.25071 6.18312 5.21527 6.23614 5.17032 6.28065C5.12536 6.32516 5.07182 6.36025 5.01287 6.38383C4.95392 6.4074 4.89078 6.41898 4.82721 6.41787C4.76365 6.41676 4.70096 6.40298 4.64289 6.37736C4.58481 6.35174 4.53255 6.3148 4.48921 6.26875L3.54238 5.33125C3.45373 5.24336 3.40393 5.12422 3.40393 5C3.40393 4.87578 3.45373 4.75664 3.54238 4.66875L4.48921 3.73125C4.57797 3.64347 4.6983 3.59416 4.82375 3.59416C4.94921 3.59416 5.06954 3.64347 5.1583 3.73125Z" fill="#6268F1"/>
</g>
</svg>
