<svg width="32" height="32" viewBox="0 0 32 32" fill="none" xmlns="http://www.w3.org/2000/svg">
<g id="Group 37938">
<path id="Ellipse 2049" d="M32 16C32 24.8366 24.8366 32 16 32C7.16344 32 0 24.8366 0 16C0 7.16344 7.16344 0 16 0C24.8366 0 32 7.16344 32 16ZM10.0161 16C10.0161 19.3048 12.6952 21.9839 16 21.9839C19.3048 21.9839 21.9839 19.3048 21.9839 16C21.9839 12.6952 19.3048 10.0161 16 10.0161C12.6952 10.0161 10.0161 12.6952 10.0161 16Z" fill="#DDE1EA"/>
<path id="Ellipse 2052" d="M16 0C13.4771 3.00848e-08 10.99 0.596588 8.74171 1.74107C6.49338 2.88555 4.54755 4.54547 3.06306 6.58535C1.57857 8.62523 0.597498 10.9872 0.199923 13.4786C-0.197651 15.9699 -0.000457764 18.52 0.775408 20.9206C1.55128 23.3211 2.88382 25.5042 4.66427 27.2916C6.44473 29.0791 8.62262 30.4201 11.0202 31.2053C13.4177 31.9905 15.967 32.1976 18.4598 31.8098C20.9527 31.4219 23.3185 30.4501 25.3642 28.9735L19.5021 20.852C18.7371 21.4042 17.8523 21.7677 16.92 21.9128C15.9876 22.0578 15.0342 21.9803 14.1376 21.6867C13.2409 21.393 12.4264 20.8915 11.7605 20.223C11.0946 19.5545 10.5963 18.7381 10.3061 17.8403C10.0159 16.9424 9.94219 15.9887 10.0909 15.057C10.2396 14.1253 10.6065 13.2419 11.1617 12.479C11.7169 11.7161 12.4446 11.0953 13.2854 10.6673C14.1263 10.2392 15.0565 10.0161 16 10.0161V0Z" fill="#5257D6"/>
</g>
</svg>
