<svg width="14" height="14" viewBox="0 0 14 14" fill="none" xmlns="http://www.w3.org/2000/svg">
<g id="lucide:copy" clip-path="url(#clip0_788_27832)">
<g id="Group">
<path id="Vector" d="M3.41663 4.58301H8.41663C8.96891 4.58301 9.41663 5.03072 9.41663 5.58301V10.583C9.41663 11.1353 8.96891 11.583 8.41663 11.583H3.41663C2.86434 11.583 2.41663 11.1353 2.41663 10.583V5.58301C2.41663 5.03072 2.86434 4.58301 3.41663 4.58301Z" stroke="#505BCE" stroke-width="1.2" stroke-linecap="round" stroke-linejoin="round"/>
<path id="Vector_2" d="M11.4166 8.58301C11.9666 8.58301 12.4166 8.13301 12.4166 7.58301V2.58301C12.4166 2.03301 11.9666 1.58301 11.4166 1.58301H6.41663C5.86663 1.58301 5.41663 2.03301 5.41663 2.58301" stroke="#505BCE" stroke-width="1.2" stroke-linecap="round" stroke-linejoin="round"/>
</g>
</g>
<defs>
<clipPath id="clip0_788_27832">
<rect width="13" height="13" fill="white" transform="matrix(-1 0 0 1 13.5 0.5)"/>
</clipPath>
</defs>
</svg>
