<svg width="21" height="19" viewBox="0 0 21 19" fill="none" xmlns="http://www.w3.org/2000/svg">
<path id="Vector" d="M11.5934 19V15.7542L16.8797 9.94861C17.0233 9.79028 17.1827 9.67593 17.3581 9.60556C17.5336 9.53519 17.709 9.5 17.8844 9.5C18.0757 9.5 18.2591 9.53976 18.4345 9.61928C18.61 9.6988 18.7694 9.81737 18.913 9.975L19.798 10.9514C19.9256 11.1097 20.0254 11.2856 20.0975 11.4792C20.1696 11.6727 20.2053 11.8662 20.2046 12.0597C20.2046 12.2532 20.1728 12.4513 20.109 12.654C20.0452 12.8567 19.9415 13.0368 19.798 13.1944L14.5355 19H11.5934ZM17.8844 13.0889L18.7694 12.0597L17.8844 11.0833L16.9754 12.0861L17.8844 13.0889ZM2.02526 16.8889C1.49901 16.8889 1.04835 16.682 0.673282 16.2682C0.298213 15.8544 0.110997 15.3576 0.111635 14.7778V2.11111C0.111635 1.53056 0.29917 1.03339 0.674239 0.619613C1.04931 0.205835 1.49965 -0.000701912 2.02526 1.79212e-06H7.76612L9.67974 2.11111H17.3342C17.8605 2.11111 18.3111 2.318 18.6862 2.73178C19.0613 3.14556 19.2485 3.64237 19.2478 4.22222V7.70556C19.0246 7.6 18.7934 7.52083 18.5541 7.46806C18.3149 7.41528 18.0757 7.38889 17.8365 7.38889C17.39 7.38889 16.9713 7.47685 16.5803 7.65278C16.1892 7.8287 15.8346 8.09259 15.5163 8.44445L9.67974 14.8833V16.8889H2.02526Z" fill="white"/>
</svg>
