<svg width="50" height="50" viewBox="0 0 50 50" fill="none" xmlns="http://www.w3.org/2000/svg">
<path d="M50 25.5625C50 23.9167 49.851 22.3542 49.5956 20.8333H25.5428V30.2292H39.3146C38.6973 33.3125 36.888 35.9167 34.206 37.6875V43.9375H42.4223C47.2329 39.5833 50 33.1667 50 25.5625Z" fill="#4285F4"/>
<path d="M25.5428 50C32.4393 50 38.2077 47.75 42.4223 43.9375L34.206 37.6875C31.9072 39.1875 28.9911 40.1042 25.5428 40.1042C18.8804 40.1042 13.2397 35.7083 11.2175 29.7708H2.74585V36.2083C6.93912 44.375 15.5598 50 25.5428 50Z" fill="#34A853"/>
<path d="M11.2175 29.7708C10.6854 28.2708 10.4087 26.6667 10.4087 25C10.4087 23.3333 10.7067 21.7292 11.2175 20.2292V13.7917H2.74585C1.00043 17.1667 0 20.9583 0 25C0 29.0417 1.00043 32.8333 2.74585 36.2083L11.2175 29.7708Z" fill="#FBBC05"/>
<path d="M25.5428 9.89583C29.3103 9.89583 32.6735 11.1667 35.3342 13.6458L42.6139 6.52083C38.2077 2.47917 32.4393 0 25.5428 0C15.5598 0 6.93912 5.625 2.74585 13.7917L11.2175 20.2292C13.2397 14.2917 18.8804 9.89583 25.5428 9.89583Z" fill="#EA4335"/>
</svg>
