<svg width="21" height="21" viewBox="0 0 21 21" fill="none" xmlns="http://www.w3.org/2000/svg">
<path id="Vector" d="M13.7847 7.30984C14.63 7.30984 15.316 8.02256 15.316 8.90075V15.0362C15.316 16.3625 14.8089 17.6345 13.9062 18.5724C13.0035 19.5102 11.7792 20.0371 10.5026 20.0371C9.22604 20.0371 8.00174 19.5102 7.09905 18.5724C6.19637 17.6345 5.68925 16.3625 5.68925 15.0362V8.90075C5.68925 8.02256 6.37437 7.30984 7.2205 7.30984H13.7847ZM1.53125 7.30984L5.3655 7.30802C5.05019 7.70276 4.86036 8.18932 4.82213 8.70075L4.81338 8.90075V15.0362C4.81338 16.0662 5.068 17.0353 5.51337 17.8789C4.91392 18.1507 4.25877 18.263 3.60707 18.2059C2.95536 18.1487 2.32761 17.9238 1.7805 17.5515C1.23338 17.1792 0.784118 16.6712 0.473269 16.0733C0.16242 15.4755 -0.000230927 14.8066 2.46078e-07 14.1271V8.90075C0.000232224 8.47873 0.161754 8.07408 0.449058 7.77575C0.736362 7.47742 1.12506 7.30984 1.53125 7.30984ZM15.6397 7.30802L19.4687 7.30984C20.314 7.30984 21 8.02256 21 8.90075V14.128C21.0003 14.8073 20.8377 15.4759 20.5271 16.0735C20.2164 16.6712 19.7674 17.1791 19.2206 17.5514C18.6738 17.9237 18.0464 18.1486 17.3949 18.206C16.7435 18.2633 16.0886 18.1512 15.4892 17.8798L15.5382 17.7871C15.9136 17.048 16.142 16.2153 16.184 15.3326L16.191 15.0362V8.90075C16.191 8.29529 15.9836 7.74075 15.6397 7.30802ZM10.5 0.0371094C10.9022 0.0371094 11.3004 0.119409 11.672 0.279311C12.0435 0.439212 12.3811 0.673583 12.6655 0.969043C12.9499 1.2645 13.1755 1.61526 13.3294 2.0013C13.4833 2.38733 13.5625 2.80109 13.5625 3.21893C13.5625 3.63677 13.4833 4.05052 13.3294 4.43656C13.1755 4.82259 12.9499 5.17335 12.6655 5.46881C12.3811 5.76427 12.0435 5.99864 11.672 6.15854C11.3004 6.31845 10.9022 6.40075 10.5 6.40075C9.68777 6.40075 8.90882 6.06552 8.33449 5.46881C7.76016 4.87211 7.4375 4.0628 7.4375 3.21893C7.4375 2.37506 7.76016 1.56575 8.33449 0.969043C8.90882 0.372336 9.68777 0.0371094 10.5 0.0371094ZM17.5026 0.9462C17.8473 0.9462 18.1887 1.01674 18.5072 1.1538C18.8256 1.29086 19.115 1.49175 19.3588 1.745C19.6025 1.99825 19.7959 2.2989 19.9278 2.62979C20.0597 2.96068 20.1276 3.31532 20.1276 3.67347C20.1276 4.03162 20.0597 4.38627 19.9278 4.71716C19.7959 5.04804 19.6025 5.3487 19.3588 5.60195C19.115 5.8552 18.8256 6.05609 18.5072 6.19314C18.1887 6.3302 17.8473 6.40075 17.5026 6.40075C16.8064 6.40075 16.1388 6.11341 15.6465 5.60195C15.1542 5.09048 14.8776 4.39679 14.8776 3.67347C14.8776 2.95016 15.1542 2.25646 15.6465 1.745C16.1388 1.23354 16.8064 0.9462 17.5026 0.9462ZM3.49738 0.9462C3.8421 0.9462 4.18344 1.01674 4.50192 1.1538C4.8204 1.29086 5.10978 1.49175 5.35353 1.745C5.59728 1.99825 5.79064 2.2989 5.92256 2.62979C6.05448 2.96068 6.12237 3.31532 6.12237 3.67347C6.12237 4.03162 6.05448 4.38627 5.92256 4.71716C5.79064 5.04804 5.59728 5.3487 5.35353 5.60195C5.10978 5.8552 4.8204 6.05609 4.50192 6.19314C4.18344 6.3302 3.8421 6.40075 3.49738 6.40075C2.80118 6.40075 2.1335 6.11341 1.64122 5.60195C1.14894 5.09048 0.872375 4.39679 0.872375 3.67347C0.872375 2.95016 1.14894 2.25646 1.64122 1.745C2.1335 1.23354 2.80118 0.9462 3.49738 0.9462Z" fill="#7DD8F4"/>
</svg>
