<svg width="16" height="16" viewBox="0 0 16 16" fill="none" xmlns="http://www.w3.org/2000/svg">
<g id="solar:branching-paths-up-bold">
<path id="Vector" fill-rule="evenodd" clip-rule="evenodd" d="M2.7012 2.43844C1.7771 3.35469 1.7771 4.82719 1.7771 7.77344C1.7771 10.7197 1.7771 12.1928 2.7012 13.1078C3.62657 14.0234 5.11372 14.0234 8.08929 14.0234C11.0649 14.0234 12.5526 14.0234 13.4767 13.1078C14.4015 12.1934 14.4015 10.7197 14.4015 7.77344C14.4015 4.82719 14.4015 3.35406 13.4767 2.43844C12.5533 1.52344 11.0649 1.52344 8.08929 1.52344C5.11372 1.52344 3.62594 1.52344 2.7012 2.43844ZM5.58335 4.00469C5.672 4.09258 5.7218 4.21172 5.7218 4.33594C5.7218 4.46016 5.672 4.5793 5.58335 4.66719L5.44448 4.80469H5.56441C6.62486 4.80469 7.55591 5.34969 8.08929 6.17156C8.36045 5.7522 8.73387 5.40718 9.17512 5.1683C9.61637 4.92942 10.1113 4.80437 10.6142 4.80469H10.7341L10.5952 4.66719C10.5116 4.57833 10.4661 4.4608 10.4682 4.33936C10.4704 4.21792 10.5201 4.10206 10.6068 4.01617C10.6936 3.93029 10.8106 3.8811 10.9332 3.87895C11.0559 3.87681 11.1746 3.92189 11.2643 4.00469L12.2111 4.94219C12.2998 5.03008 12.3496 5.14922 12.3496 5.27344C12.3496 5.39766 12.2998 5.5168 12.2111 5.60469L11.2643 6.54219C11.221 6.58824 11.1687 6.62518 11.1106 6.6508C11.0526 6.67642 10.9899 6.6902 10.9263 6.69131C10.8628 6.69242 10.7996 6.68084 10.7407 6.65726C10.6817 6.63369 10.6282 6.5986 10.5832 6.55409C10.5383 6.50957 10.5028 6.45655 10.479 6.39819C10.4552 6.33982 10.4435 6.2773 10.4446 6.21436C10.4457 6.15142 10.4597 6.08935 10.4855 6.03185C10.5114 5.97435 10.5487 5.9226 10.5952 5.87969L10.7341 5.74219H10.6142C10.0701 5.74219 9.54829 5.95619 9.16356 6.33713C8.77884 6.71806 8.5627 7.23472 8.5627 7.77344V11.5234C8.5627 11.6478 8.51283 11.767 8.42404 11.8549C8.33526 11.9428 8.21485 11.9922 8.08929 11.9922C7.96373 11.9922 7.84332 11.9428 7.75453 11.8549C7.66575 11.767 7.61587 11.6478 7.61587 11.5234V7.77344C7.61587 7.23472 7.39974 6.71806 7.01502 6.33713C6.63029 5.95619 6.10849 5.74219 5.56441 5.74219H5.44448L5.58335 5.87969C5.62986 5.9226 5.66717 5.97435 5.69304 6.03185C5.71892 6.08935 5.73283 6.15142 5.73395 6.21436C5.73507 6.2773 5.72338 6.33982 5.69957 6.39819C5.67576 6.45655 5.64032 6.50957 5.59537 6.55409C5.55041 6.5986 5.49686 6.63369 5.43792 6.65726C5.37897 6.68084 5.31583 6.69242 5.25226 6.69131C5.1887 6.6902 5.12601 6.67642 5.06794 6.6508C5.00986 6.62518 4.9576 6.58824 4.91426 6.54219L3.96743 5.60469C3.87877 5.5168 3.82898 5.39766 3.82898 5.27344C3.82898 5.14922 3.87877 5.03008 3.96743 4.94219L4.91426 4.00469C5.00302 3.91691 5.12335 3.8676 5.2488 3.8676C5.37426 3.8676 5.49458 3.91691 5.58335 4.00469Z" fill="#4B5564"/>
</g>
</svg>
