<svg width="11" height="11" viewBox="0 0 11 11" fill="none" xmlns="http://www.w3.org/2000/svg">
<path d="M6.42902 0.928089C6.42902 0.699039 6.51369 0.47937 6.6644 0.317406C6.81511 0.155443 7.01951 0.0644531 7.23265 0.0644531H9.64353C9.85667 0.0644531 10.0611 0.155443 10.2118 0.317406C10.3625 0.47937 10.4472 0.699039 10.4472 0.928089V8.80047C10.4472 9.23228 10.497 9.71432 10.1793 10.0295C9.86157 10.3447 9.50668 10.4281 8.97384 10.4281H0.803628C0.590492 10.4281 0.386086 10.3371 0.235377 10.1751C0.0846676 10.0132 0 9.7935 0 9.56445V6.97354C0 6.74449 0.0846676 6.52482 0.235377 6.36286C0.386086 6.2009 0.590492 6.10991 0.803628 6.10991H3.21451V3.85117C3.21451 3.62212 3.29918 3.40245 3.44989 3.24048C3.6006 3.07852 3.805 2.98753 4.01814 2.98753H6.42902V0.928089Z" fill="#6268F1"/>
</svg>
