<svg width="20" height="21" viewBox="0 0 20 21" fill="none" xmlns="http://www.w3.org/2000/svg">
<path id="Vector" d="M12.3043 1.70378C12.3043 1.26175 12.4664 0.837825 12.7548 0.525265C13.0433 0.212704 13.4345 0.0371094 13.8424 0.0371094H18.4565C18.8644 0.0371094 19.2556 0.212704 19.5441 0.525265C19.8325 0.837825 19.9946 1.26175 19.9946 1.70378V16.8961C19.9946 17.7294 20.0899 18.6597 19.4819 19.2679C18.8738 19.8761 18.1946 20.0371 17.1748 20.0371H1.53804C1.13013 20.0371 0.738921 19.8615 0.450482 19.549C0.162043 19.2364 0 18.8125 0 18.3704V13.3704C0 12.9284 0.162043 12.5045 0.450482 12.1919C0.738921 11.8794 1.13013 11.7038 1.53804 11.7038H6.15217V7.3448C6.15217 6.90277 6.31422 6.47885 6.60266 6.16629C6.8911 5.85373 7.2823 5.67814 7.69022 5.67814H12.3043V1.70378Z" fill="#505BCE"/>
</svg>
