<svg width="173" height="33" viewBox="0 0 173 33" fill="none" xmlns="http://www.w3.org/2000/svg">
<g id="&#235;&#176;&#139;&#237;&#148;&#140; &#237;&#131;&#128;&#236;&#157;&#180;&#237;&#143;&#172;">
<path id="Union" fill-rule="evenodd" clip-rule="evenodd" d="M154.431 30.1873C155.518 31.2747 156.926 31.7898 158.557 31.7898H169.013C170.107 31.7898 171.081 31.4472 171.833 30.6956C172.615 29.9132 172.999 28.9248 172.999 27.804C172.999 26.698 172.624 25.7257 171.833 24.9845C171.092 24.1938 170.119 23.8181 169.013 23.8181H162.551C161.98 23.8181 161.737 23.6762 161.63 23.5689C161.523 23.4617 161.381 23.2189 161.381 22.6482V4.13106C161.381 2.95989 160.97 1.93786 160.127 1.15253C159.336 0.36888 158.322 0 157.177 0C155.991 0 154.937 0.363236 154.097 1.13886C153.244 1.92599 152.828 2.95309 152.828 4.13106V26.0612C152.828 27.6921 153.343 29.0999 154.431 30.1873ZM169.221 30.7761C169.154 30.7794 169.085 30.7811 169.016 30.7811H158.559C157.155 30.7811 156.018 30.3454 155.146 29.474C154.275 28.6026 153.839 27.465 153.839 26.0611V4.13094C153.839 3.21113 154.154 2.46076 154.783 1.87983C155.362 1.34568 156.084 1.0571 156.949 1.01409C156.083 1.05666 155.36 1.34529 154.781 1.87996C154.151 2.46089 153.837 3.21125 153.837 4.13106V26.0612C153.837 27.4651 154.272 28.6028 155.144 29.4741C156.015 30.3455 157.153 30.7812 158.557 30.7812H169.013C169.084 30.7812 169.153 30.7795 169.221 30.7761Z" fill="white"/>
<path id="Union_2" fill-rule="evenodd" clip-rule="evenodd" d="M124.306 31.3445L124.333 31.3719L124.363 31.3971C125.218 32.1305 126.224 32.5113 127.343 32.5113C128.463 32.5113 129.459 32.1286 130.278 31.3724L130.28 31.3704C131.135 30.5763 131.619 29.5925 131.619 28.4528L131.474 21.7721L131.474 21.7626C131.475 21.6072 131.495 21.5102 131.513 21.4557C131.522 21.4289 131.53 21.4135 131.534 21.406C131.539 21.3989 131.541 21.3961 131.541 21.3961C131.541 21.3961 131.544 21.3931 131.551 21.3889C131.559 21.3844 131.574 21.3763 131.601 21.3674C131.657 21.3488 131.757 21.3284 131.918 21.3284H136.202C139.34 21.3284 141.998 20.3253 144.095 18.2827C146.202 16.2296 147.231 13.5606 147.231 10.3714C147.231 7.38923 146.152 4.92289 143.976 3.07167C141.877 1.24314 139.234 0.358398 136.129 0.358398H128.795C127.164 0.358398 125.756 0.873522 124.669 1.96089C123.582 3.04826 123.066 4.45612 123.066 6.08702V28.4528C123.066 29.5664 123.504 30.543 124.306 31.3445ZM127.531 31.4981C127.47 31.5011 127.408 31.5026 127.345 31.5026C126.474 31.5026 125.699 31.2121 125.021 30.6312C124.392 30.0019 124.077 29.2757 124.077 28.4527V6.0869C124.077 4.68298 124.513 3.54532 125.385 2.67393C126.189 1.86918 127.221 1.43603 128.48 1.37448C127.22 1.43557 126.187 1.86876 125.382 2.67405C124.511 3.54545 124.075 4.6831 124.075 6.08702V28.4528C124.075 29.2758 124.39 30.002 125.019 30.6313C125.697 31.2123 126.471 31.5027 127.343 31.5027C127.406 31.5027 127.469 31.5012 127.531 31.4981ZM131.786 20.3229C131.829 20.3209 131.873 20.3198 131.918 20.3198H136.202C136.392 20.3198 136.58 20.3159 136.766 20.308C136.581 20.3158 136.394 20.3197 136.204 20.3197H131.92C131.874 20.3197 131.829 20.3208 131.786 20.3229ZM135.403 13.5019H131.554C131.524 13.5019 131.498 13.5007 131.477 13.499C131.475 13.4778 131.474 13.452 131.474 13.4213V8.26551C131.474 8.23475 131.475 8.20901 131.477 8.18781C131.498 8.18604 131.524 8.18482 131.554 8.18482H135.694C136.976 8.18482 137.749 8.46434 138.194 8.84786C138.61 9.20669 138.897 9.79454 138.897 10.8071C138.897 11.8285 138.596 12.43 138.139 12.8057C137.645 13.2125 136.791 13.5019 135.403 13.5019Z" fill="white"/>
<path id="Union_3" fill-rule="evenodd" clip-rule="evenodd" d="M101.292 28.4555C101.292 29.6335 101.708 30.6606 102.561 31.4477L102.577 31.4625L102.593 31.4765C103.426 32.1812 104.439 32.514 105.568 32.514C106.728 32.514 107.766 32.19 108.574 31.4501L108.576 31.4477C109.429 30.6606 109.845 29.6335 109.845 28.4555V9.50267C109.845 8.93197 109.987 8.68919 110.094 8.58196C110.201 8.47473 110.444 8.33274 111.015 8.33274H114.5C115.624 8.33274 116.63 8.00056 117.392 7.23856C118.174 6.45612 118.559 5.46778 118.559 4.34691C118.559 3.24092 118.183 2.26859 117.392 1.52731C116.64 0.725153 115.636 0.361084 114.5 0.361084H96.5639C95.4431 0.361084 94.4547 0.745444 93.6723 1.52788C92.9207 2.27944 92.5781 3.25351 92.5781 4.34691C92.5781 5.44176 92.9204 6.41972 93.642 7.20691L93.6716 7.23923L93.704 7.26886C94.4911 7.99045 95.4691 8.33274 96.5639 8.33274H100.122C100.693 8.33274 100.936 8.47473 101.043 8.58196C101.15 8.68919 101.292 8.93197 101.292 9.50267V28.4555Z" fill="white"/>
<path id="Union_4" d="M87.6054 7.12363L87.6215 7.10882L87.637 7.09333C88.4075 6.32289 88.8038 5.36424 88.8038 4.2743C88.8038 3.13773 88.503 2.10324 87.7283 1.36547C86.9629 0.636468 85.9055 0.361084 84.7454 0.361084H73.7803C72.2103 0.361084 70.852 0.844344 69.8101 1.88031C68.7454 2.88883 68.2695 4.26748 68.2695 5.87185V26.0592C68.2695 27.6901 68.7847 29.0979 69.872 30.1853C70.9594 31.2727 72.3673 31.7878 73.9981 31.7878H85.4715C86.5664 31.7878 87.5443 31.4455 88.3315 30.7239L88.3477 30.7091L88.3632 30.6936C89.1336 29.9232 89.53 28.9645 89.53 27.8746C89.53 26.7314 89.1611 25.7219 88.3477 24.9676C87.5876 24.2165 86.5882 23.8888 85.4715 23.8888H77.2659C77.1049 23.8888 77.005 23.8683 76.9494 23.8498C76.9226 23.8408 76.9072 23.8327 76.8998 23.8283C76.8928 23.8241 76.8903 23.8216 76.8898 23.8211L76.888 23.819C76.8867 23.8175 76.8849 23.815 76.8826 23.8111C76.8781 23.8036 76.8701 23.7883 76.8611 23.7615C76.8426 23.7058 76.8221 23.606 76.8221 23.445V20.2499C76.8221 20.0889 76.8426 19.989 76.8611 19.9334C76.8701 19.9066 76.8781 19.8912 76.8826 19.8838C76.8869 19.8767 76.8894 19.8742 76.8898 19.8738C76.8902 19.8734 76.8927 19.8709 76.8998 19.8666C76.9072 19.8621 76.9226 19.8541 76.9494 19.8451C77.005 19.8266 77.1049 19.8061 77.2659 19.8061H83.6561C84.7393 19.8061 85.6928 19.4147 86.4608 18.6536C87.2635 17.9065 87.7146 16.9738 87.7146 15.8929C87.7146 14.7995 87.3719 13.8254 86.6204 13.0739C85.8488 12.3023 84.8119 11.9797 83.6561 11.9797H77.2659C77.1049 11.9797 77.005 11.9592 76.9494 11.9407C76.9226 11.9317 76.9072 11.9237 76.8998 11.9192C76.8927 11.9149 76.8902 11.9124 76.8898 11.912C76.8886 11.9106 76.8854 11.9066 76.8826 11.902C76.8781 11.8946 76.8701 11.8792 76.8611 11.8524C76.8426 11.7968 76.8221 11.6969 76.8221 11.5359V8.63128C76.8221 8.47026 76.8426 8.37043 76.8611 8.31482C76.8701 8.28802 76.8781 8.27264 76.8826 8.26516L76.8861 8.25971C76.8883 8.2567 76.8895 8.25548 76.8898 8.25519C76.8902 8.25476 76.8927 8.25228 76.8998 8.24801C76.9072 8.24353 76.9226 8.23545 76.9494 8.22652C77.005 8.20799 77.1049 8.18751 77.2659 8.18751H84.7454C85.8402 8.18751 86.8182 7.84522 87.6054 7.12363Z" fill="white"/>
<path id="Union_5" fill-rule="evenodd" clip-rule="evenodd" d="M60.7431 7.12363L60.7592 7.10882L60.7747 7.09333C61.5451 6.32289 61.9415 5.36424 61.9415 4.2743C61.9415 3.13773 61.6407 2.10324 60.866 1.36547C60.1006 0.636468 59.0432 0.361084 57.8831 0.361084H46.918C45.348 0.361084 43.9897 0.844344 42.9478 1.88031C41.8831 2.88883 41.4072 4.26748 41.4072 5.87185V26.0592C41.4072 27.6901 41.9223 29.0979 43.0097 30.1853C44.0971 31.2727 45.5049 31.7878 47.1358 31.7878H58.6092C59.7041 31.7878 60.682 31.4455 61.4692 30.7239L61.4854 30.7091L61.5009 30.6936C62.2713 29.9232 62.6677 28.9645 62.6677 27.8746C62.6677 26.7313 62.2987 25.7218 61.4853 24.9675C60.7252 24.2165 59.7259 23.8888 58.6092 23.8888H50.4036C50.2426 23.8888 50.1427 23.8683 50.0871 23.8498C50.0603 23.8408 50.0449 23.8327 50.0375 23.8283C50.0305 23.8241 50.028 23.8216 50.0275 23.8211C50.027 23.8206 50.0245 23.8181 50.0203 23.8111C50.0158 23.8036 50.0078 23.7883 49.9988 23.7615C49.9803 23.7058 49.9598 23.606 49.9598 23.445V20.2499C49.9598 20.0889 49.9803 19.989 49.9988 19.9334C50.0078 19.9066 50.0158 19.8912 50.0203 19.8838C50.0245 19.8768 50.0281 19.8732 50.0287 19.8727C50.0295 19.872 50.0308 19.8709 50.0329 19.8695C50.0341 19.8687 50.0356 19.8677 50.0375 19.8666C50.0449 19.8621 50.0603 19.8541 50.0871 19.8451C50.1427 19.8266 50.2426 19.8061 50.4036 19.8061H56.7938C57.877 19.8061 58.8305 19.4146 59.5985 18.6536C60.4012 17.9064 60.8523 16.9738 60.8523 15.8929C60.8523 14.7995 60.5096 13.8254 59.7581 13.0739C58.9865 12.3023 57.9496 11.9797 56.7938 11.9797H50.4036C50.2426 11.9797 50.1427 11.9592 50.0871 11.9407C50.0603 11.9317 50.0449 11.9237 50.0375 11.9192C50.0305 11.915 50.028 11.9125 50.0275 11.912C50.0271 11.9116 50.0246 11.9092 50.0203 11.902C50.0158 11.8946 50.0078 11.8792 49.9988 11.8524C49.9803 11.7968 49.9598 11.6969 49.9598 11.5359V8.63128C49.9598 8.47026 49.9803 8.37043 49.9988 8.31482C50.0078 8.28802 50.0158 8.27264 50.0203 8.26516C50.0245 8.25821 50.027 8.25568 50.0275 8.25517C50.028 8.25468 50.0305 8.25222 50.0375 8.24801C50.0449 8.24353 50.0603 8.23545 50.0871 8.22652C50.1427 8.20799 50.2426 8.18751 50.4036 8.18751H57.8831C58.9779 8.18751 59.9559 7.84522 60.7431 7.12363ZM43.6503 2.60412C43.6503 2.60412 43.6503 2.60412 43.6503 2.60412V2.60412Z" fill="white"/>
<path id="Union_6" fill-rule="evenodd" clip-rule="evenodd" d="M1.01334 31.0787L1.02551 31.0927L1.03818 31.1063C1.90108 32.0309 2.98858 32.516 4.24445 32.516C5.33965 32.516 6.32464 32.1744 7.14702 31.4785L7.16364 31.4645L7.17964 31.4497C8.00272 30.6899 8.45341 29.7203 8.51852 28.5978L9.56125 15.1727L13.2637 25.5141L13.2908 25.5682C13.74 26.4666 14.3421 27.2194 15.1029 27.8046L15.1171 27.8155L15.1316 27.8259C15.9407 28.4038 16.8191 28.7399 17.7511 28.7399C18.8031 28.7399 19.7606 28.4662 20.5658 27.8704C21.3638 27.2798 21.9365 26.4293 22.3254 25.4015L26.0109 15.0439L26.9854 28.622L26.9876 28.6415C27.1079 29.7241 27.5393 30.6676 28.2934 31.4218L28.3231 31.4514L28.3551 31.4785C29.1775 32.1744 30.1625 32.516 31.2577 32.516C32.5096 32.516 33.5829 32.0327 34.4039 31.0928C35.2767 30.1505 35.6391 29.0046 35.4517 27.7369L32.403 4.43591L32.4022 4.43049C32.2298 3.1658 31.7004 2.0931 30.7833 1.28653C29.8892 0.406607 28.7305 0 27.409 0C26.2454 0 25.1942 0.257157 24.3227 0.843437C23.4454 1.4336 22.8367 2.29923 22.4636 3.36104L17.7511 16.9442L13.0399 3.36478L13.0385 3.36104C12.6637 2.2941 12.0455 1.42759 11.1543 0.838786C10.2709 0.255104 9.20382 0 8.02049 0C6.76129 0 5.64691 0.427092 4.73173 1.27524C3.80671 2.08308 3.27317 3.15989 3.09989 4.43049L0.0504535 27.7369C-0.134363 28.9864 0.189012 30.1276 1.01334 31.0787Z" fill="white"/>
</g>
</svg>
