<svg width="128" height="25" viewBox="0 0 128 25" fill="none" xmlns="http://www.w3.org/2000/svg">
<path fill-rule="evenodd" clip-rule="evenodd" d="M114.358 22.5889C115.157 23.3879 116.191 23.7665 117.39 23.7665H125.074C125.877 23.7665 126.593 23.5147 127.145 22.9624C127.72 22.3875 128.002 21.6612 128.002 20.8376C128.002 20.0249 127.726 19.3104 127.145 18.7657C126.601 18.1847 125.886 17.9087 125.074 17.9087H120.325C119.905 17.9087 119.727 17.8043 119.648 17.7255C119.569 17.6467 119.465 17.4683 119.465 17.049V3.44211C119.465 2.5815 119.163 1.83048 118.544 1.2534C117.962 0.677557 117.218 0.406494 116.376 0.406494C115.504 0.406494 114.73 0.673409 114.112 1.24336C113.486 1.82176 113.18 2.5765 113.18 3.44211V19.5569C113.18 20.7553 113.559 21.7899 114.358 22.5889ZM125.226 23.0215C125.177 23.024 125.126 23.0252 125.075 23.0252H117.392C116.36 23.0252 115.524 22.7051 114.884 22.0648C114.243 21.4244 113.923 20.5885 113.923 19.5568V3.44201C113.923 2.76612 114.154 2.21472 114.617 1.78784C115.042 1.39533 115.573 1.18328 116.208 1.15167C115.572 1.18296 115.041 1.39505 114.615 1.78793C114.153 2.21482 113.921 2.76621 113.921 3.44211V19.5569C113.921 20.5886 114.241 21.4245 114.882 22.0649C115.522 22.7052 116.358 23.0253 117.39 23.0253H125.074C125.125 23.0253 125.176 23.0241 125.226 23.0215Z" fill="#232326"/>
<path fill-rule="evenodd" clip-rule="evenodd" d="M92.2213 23.4392L92.2414 23.4594L92.263 23.4779C92.8918 24.0168 93.631 24.2966 94.4529 24.2966C95.2759 24.2966 96.0078 24.0154 96.6097 23.4598L96.6113 23.4583C97.2397 22.8748 97.5952 22.1518 97.5954 21.3144L97.4885 16.4052L97.4885 16.3982C97.4891 16.284 97.5038 16.2127 97.5172 16.1727C97.5237 16.153 97.5297 16.1417 97.5329 16.1362C97.5361 16.131 97.5382 16.1289 97.5382 16.1289C97.5382 16.1289 97.5404 16.1267 97.5456 16.1236C97.551 16.1203 97.5623 16.1144 97.582 16.1078C97.6229 16.0942 97.6963 16.0791 97.8146 16.0791H100.963C103.269 16.0791 105.222 15.3421 106.763 13.8411C108.311 12.3324 109.068 10.3712 109.068 8.02765C109.068 5.8363 108.274 4.02396 106.676 2.66365C105.133 1.31999 103.191 0.669861 100.909 0.669861H95.5201C94.3217 0.669861 93.2871 1.04839 92.4881 1.84741C91.6891 2.64644 91.3105 3.68097 91.3105 4.8794V21.3144C91.3105 22.1327 91.6324 22.8503 92.2213 23.4392ZM94.5912 23.5521C94.5462 23.5543 94.5007 23.5554 94.4547 23.5554C93.8144 23.5554 93.2452 23.342 92.7472 22.9151C92.2847 22.4526 92.0535 21.919 92.0535 21.3143V4.87931C92.0535 3.84768 92.3737 3.0117 93.014 2.37137C93.6053 1.78002 94.3636 1.46173 95.2887 1.4165C94.3627 1.4614 93.6039 1.77972 93.0122 2.37146C92.3718 3.01179 92.0517 3.84776 92.0517 4.8794V21.3144C92.0517 21.9191 92.2829 22.4527 92.7453 22.9152C93.2434 23.3421 93.8126 23.5555 94.4529 23.5555C94.4995 23.5555 94.5456 23.5544 94.5912 23.5521ZM97.7178 15.3403C97.7493 15.3388 97.7816 15.338 97.8146 15.338H100.963C101.103 15.338 101.241 15.3351 101.377 15.3293C101.241 15.3351 101.104 15.3379 100.965 15.3379H97.8164C97.7828 15.3379 97.7499 15.3387 97.7178 15.3403ZM100.376 10.3281H97.5478C97.5252 10.3281 97.5063 10.3272 97.4907 10.3259C97.4894 10.3103 97.4885 10.2914 97.4885 10.2688V6.48021C97.4885 6.4576 97.4894 6.43869 97.4907 6.42312C97.5063 6.42181 97.5252 6.42092 97.5478 6.42092H100.589C101.531 6.42092 102.1 6.62631 102.427 6.90813C102.732 7.17181 102.943 7.60378 102.943 8.34782C102.943 9.09839 102.722 9.54039 102.386 9.81649C102.023 10.1154 101.396 10.3281 100.376 10.3281Z" fill="#232326"/>
<path fill-rule="evenodd" clip-rule="evenodd" d="M75.3098 21.3163C75.3098 22.1819 75.6153 22.9366 76.2419 23.515L76.2537 23.5259L76.2659 23.5362C76.8778 24.054 77.6226 24.2985 78.4521 24.2985C79.3046 24.2985 80.0673 24.0605 80.6604 23.5168L80.6623 23.515C81.2889 22.9366 81.5945 22.1819 81.5945 21.3163V7.38922C81.5945 6.96986 81.6988 6.79146 81.7776 6.71266C81.8564 6.63387 82.0348 6.52953 82.4541 6.52953H85.0154C85.8416 6.52953 86.5804 6.28543 87.1403 5.7255C87.7153 5.15054 87.9977 4.42429 87.9977 3.60064C87.9977 2.78793 87.7217 2.07343 87.1406 1.52873C86.5875 0.93928 85.85 0.671753 85.0154 0.671753H71.8354C71.0118 0.671753 70.2855 0.95419 69.7106 1.52914C69.1583 2.08141 68.9066 2.79718 68.9066 3.60064C68.9066 4.40516 69.1581 5.1238 69.6883 5.70224L69.7101 5.72599L69.7338 5.74777C70.3123 6.27801 71.0309 6.52953 71.8354 6.52953H74.4501C74.8695 6.52953 75.0479 6.63387 75.1267 6.71266C75.2055 6.79146 75.3098 6.96986 75.3098 7.38922V21.3163Z" fill="#232326"/>
<path d="M65.2529 5.64105L65.2648 5.63016L65.2762 5.61878C65.8423 5.05264 66.1335 4.3482 66.1335 3.54728C66.1335 2.7121 65.9125 1.95193 65.3433 1.4098C64.7808 0.874112 64.0038 0.671753 63.1513 0.671753H55.0939C53.9402 0.671753 52.9421 1.02686 52.1765 1.78812C51.3941 2.52921 51.0444 3.54227 51.0444 4.72121V19.5554C51.0444 20.7538 51.423 21.7883 52.222 22.5874C53.021 23.3864 54.0555 23.7649 55.254 23.7649H63.6849C64.4894 23.7649 65.2081 23.5134 65.7865 22.9832L65.7984 22.9723L65.8098 22.9609C66.3759 22.3947 66.6671 21.6903 66.6671 20.8894C66.6671 20.0493 66.3961 19.3075 65.7984 18.7532C65.2398 18.2013 64.5055 17.9605 63.6849 17.9605H57.6552C57.5369 17.9605 57.4635 17.9454 57.4226 17.9318C57.403 17.9253 57.3916 17.9193 57.3862 17.916C57.381 17.913 57.3792 17.9112 57.3789 17.9108L57.3775 17.9092C57.3766 17.9081 57.3753 17.9063 57.3736 17.9034C57.3703 17.8979 57.3643 17.8866 57.3578 17.8669C57.3441 17.8261 57.3291 17.7527 57.3291 17.6344V15.2866C57.3291 15.1682 57.3441 15.0949 57.3578 15.054C57.3643 15.0343 57.3703 15.023 57.3736 15.0175C57.3767 15.0123 57.3785 15.0105 57.3788 15.0102C57.3791 15.0099 57.3809 15.0081 57.3862 15.0049C57.3916 15.0016 57.403 14.9957 57.4226 14.9891C57.4635 14.9755 57.5369 14.9605 57.6552 14.9605H62.3509C63.1468 14.9605 63.8475 14.6728 64.4118 14.1136C65.0017 13.5646 65.3331 12.8792 65.3331 12.0849C65.3331 11.2815 65.0814 10.5657 64.5291 10.0134C63.9622 9.44648 63.2002 9.2094 62.3509 9.2094H57.6552C57.5369 9.2094 57.4635 9.19436 57.4226 9.18074C57.403 9.17417 57.3916 9.16824 57.3862 9.16494C57.3809 9.16181 57.3791 9.15999 57.3788 9.15967C57.378 9.15864 57.3756 9.15571 57.3736 9.15234C57.3703 9.14685 57.3643 9.13555 57.3578 9.11586C57.3441 9.07499 57.3291 9.00163 57.3291 8.88331V6.7489C57.3291 6.63058 57.3441 6.55722 57.3578 6.51636C57.3643 6.49667 57.3703 6.48537 57.3736 6.47987L57.3761 6.47587C57.3777 6.47366 57.3786 6.47276 57.3788 6.47254C57.3791 6.47223 57.3809 6.47041 57.3862 6.46727C57.3916 6.46398 57.403 6.45804 57.4226 6.45148C57.4635 6.43786 57.5369 6.42281 57.6552 6.42281H63.1513C63.9558 6.42281 64.6745 6.17129 65.2529 5.64105Z" fill="#232326"/>
<path fill-rule="evenodd" clip-rule="evenodd" d="M45.513 5.64105L45.5248 5.63016L45.5362 5.61878C46.1024 5.05264 46.3936 4.3482 46.3936 3.54728C46.3936 2.7121 46.1726 1.95193 45.6033 1.4098C45.0409 0.874112 44.2639 0.671753 43.4114 0.671753H35.354C34.2003 0.671753 33.2022 1.02686 32.4365 1.78812C31.6542 2.52921 31.3045 3.54227 31.3045 4.72121V19.5554C31.3045 20.7538 31.683 21.7883 32.4821 22.5874C33.2811 23.3864 34.3156 23.7649 35.514 23.7649H43.945C44.7495 23.7649 45.4681 23.5134 46.0466 22.9832L46.0584 22.9723L46.0698 22.9609C46.636 22.3947 46.9272 21.6903 46.9272 20.8894C46.9272 20.0493 46.6561 19.3075 46.0584 18.7532C45.4999 18.2013 44.7655 17.9605 43.945 17.9605H37.9153C37.7969 17.9605 37.7236 17.9454 37.6827 17.9318C37.663 17.9253 37.6517 17.9193 37.6462 17.916C37.6411 17.913 37.6393 17.9111 37.6389 17.9108C37.6385 17.9104 37.6367 17.9085 37.6336 17.9034C37.6303 17.8979 37.6244 17.8866 37.6178 17.8669C37.6042 17.8261 37.5892 17.7527 37.5892 17.6344V15.2866C37.5892 15.1682 37.6042 15.0949 37.6178 15.054C37.6244 15.0343 37.6303 15.023 37.6336 15.0175C37.6367 15.0124 37.6394 15.0098 37.6397 15.0094C37.6404 15.0089 37.6414 15.0081 37.6429 15.0071C37.6438 15.0064 37.6449 15.0057 37.6462 15.0049C37.6517 15.0016 37.663 14.9957 37.6827 14.9891C37.7236 14.9755 37.7969 14.9605 37.9153 14.9605H42.611C43.4069 14.9605 44.1076 14.6728 44.6719 14.1135C45.2617 13.5645 45.5932 12.8792 45.5932 12.0849C45.5932 11.2815 45.3414 10.5657 44.7892 10.0134C44.2222 9.44648 43.4602 9.2094 42.611 9.2094H37.9153C37.7969 9.2094 37.7236 9.19436 37.6827 9.18074C37.663 9.17417 37.6517 9.16824 37.6462 9.16494C37.6411 9.16185 37.6392 9.16002 37.6389 9.15967C37.6386 9.15935 37.6368 9.15757 37.6336 9.15234C37.6303 9.14685 37.6244 9.13555 37.6178 9.11586C37.6042 9.07499 37.5892 9.00163 37.5892 8.88331V6.7489C37.5892 6.63058 37.6042 6.55722 37.6178 6.51636C37.6244 6.49667 37.6303 6.48537 37.6336 6.47987C37.6367 6.47476 37.6385 6.4729 37.6389 6.47253C37.6393 6.47217 37.6411 6.47036 37.6462 6.46727C37.6517 6.46398 37.663 6.45804 37.6827 6.45148C37.7236 6.43786 37.7969 6.42281 37.9153 6.42281H43.4114C44.2159 6.42281 44.9345 6.17129 45.513 5.64105ZM32.9527 2.31999C32.9527 2.31999 32.9527 2.31999 32.9527 2.31999V2.31999Z" fill="#232326"/>
<path fill-rule="evenodd" clip-rule="evenodd" d="M1.6225 23.2439L1.63144 23.2542L1.64075 23.2642C2.27483 23.9436 3.07395 24.3001 3.9968 24.3001C4.80158 24.3001 5.52538 24.0491 6.12969 23.5377L6.1419 23.5274L6.15365 23.5166C6.75848 22.9583 7.08965 22.2458 7.1375 21.4209L7.90372 11.5558L10.6244 19.1549L10.6443 19.1947C10.9744 19.8548 11.4168 20.408 11.9759 20.838L11.9863 20.846L11.997 20.8537C12.5915 21.2783 13.2369 21.5253 13.9218 21.5253C14.6949 21.5253 15.3985 21.3242 15.9902 20.8864C16.5766 20.4524 16.9974 19.8275 17.2831 19.0722L19.9914 11.4611L20.7074 21.4386L20.709 21.453C20.7974 22.2485 21.1144 22.9418 21.6686 23.496L21.6904 23.5178L21.7139 23.5377C22.3183 24.0491 23.0421 24.3001 23.8468 24.3001C24.7668 24.3001 25.5555 23.9449 26.1588 23.2543C26.8001 22.5619 27.0664 21.7198 26.9287 20.7883L24.6884 3.66612L24.6879 3.66213C24.5611 2.73281 24.1721 1.94456 23.4982 1.35187C22.8412 0.705279 21.9898 0.406494 21.0187 0.406494C20.1636 0.406494 19.3912 0.59546 18.7508 1.02627C18.1062 1.45994 17.6588 2.09603 17.3847 2.87627L13.9218 12.8575L10.4599 2.87902L10.4589 2.87627C10.1835 2.09226 9.72922 1.45552 9.07437 1.02286C8.42522 0.593951 7.64107 0.406494 6.77153 0.406494C5.84624 0.406494 5.02736 0.720333 4.35487 1.34357C3.67514 1.93719 3.28308 2.72846 3.15575 3.66213L0.914943 20.7883C0.779135 21.7064 1.01676 22.545 1.6225 23.2439Z" fill="#232326"/>
</svg>
